%TF.GenerationSoftware,KiCad,Pcbnew,(5.1.10-6-gecec324121)-1*%
%TF.CreationDate,2021-07-06T17:39:25+03:00*%
%TF.ProjectId,switchplate,73776974-6368-4706-9c61-74652e6b6963,rev?*%
%TF.SameCoordinates,Original*%
%TF.FileFunction,Legend,Bot*%
%TF.FilePolarity,Positive*%
%FSLAX46Y46*%
G04 Gerber Fmt 4.6, Leading zero omitted, Abs format (unit mm)*
G04 Created by KiCad (PCBNEW (5.1.10-6-gecec324121)-1) date 2021-07-06 17:39:25*
%MOMM*%
%LPD*%
G01*
G04 APERTURE LIST*
%ADD10C,0.300000*%
G04 APERTURE END LIST*
%LPC*%
D10*
X171721398Y-81004761D02*
X172269017Y-80052380D01*
X172864255Y-81004761D02*
X172614255Y-79004761D01*
X171852351Y-79004761D01*
X171673779Y-79100000D01*
X171590446Y-79195238D01*
X171519017Y-79385714D01*
X171554732Y-79671428D01*
X171673779Y-79861904D01*
X171780922Y-79957142D01*
X171983303Y-80052380D01*
X172745208Y-80052380D01*
X170864255Y-81004761D02*
X170697589Y-79671428D01*
X170614255Y-79004761D02*
X170721398Y-79100000D01*
X170638065Y-79195238D01*
X170530922Y-79100000D01*
X170614255Y-79004761D01*
X170638065Y-79195238D01*
X168888065Y-79671428D02*
X169090446Y-81290476D01*
X169209494Y-81480952D01*
X169316636Y-81576190D01*
X169519017Y-81671428D01*
X169804732Y-81671428D01*
X169983303Y-81576190D01*
X169042827Y-80909523D02*
X169245208Y-81004761D01*
X169626160Y-81004761D01*
X169804732Y-80909523D01*
X169888065Y-80814285D01*
X169959494Y-80623809D01*
X169888065Y-80052380D01*
X169769017Y-79861904D01*
X169661875Y-79766666D01*
X169459494Y-79671428D01*
X169078541Y-79671428D01*
X168899970Y-79766666D01*
X167245208Y-81004761D02*
X167114255Y-79957142D01*
X167185684Y-79766666D01*
X167364255Y-79671428D01*
X167745208Y-79671428D01*
X167947589Y-79766666D01*
X167233303Y-80909523D02*
X167435684Y-81004761D01*
X167911875Y-81004761D01*
X168090446Y-80909523D01*
X168161875Y-80719047D01*
X168138065Y-80528571D01*
X168019017Y-80338095D01*
X167816636Y-80242857D01*
X167340446Y-80242857D01*
X167138065Y-80147619D01*
X165185684Y-79004761D02*
X165566636Y-79004761D01*
X165769017Y-79100000D01*
X165876160Y-79195238D01*
X166102351Y-79480952D01*
X166245208Y-79861904D01*
X166340446Y-80623809D01*
X166269017Y-80814285D01*
X166185684Y-80909523D01*
X166007113Y-81004761D01*
X165626160Y-81004761D01*
X165423779Y-80909523D01*
X165316636Y-80814285D01*
X165197589Y-80623809D01*
X165138065Y-80147619D01*
X165209494Y-79957142D01*
X165292827Y-79861904D01*
X165471398Y-79766666D01*
X165852351Y-79766666D01*
X166054732Y-79861904D01*
X166161875Y-79957142D01*
X166280922Y-80147619D01*
X163185684Y-79004761D02*
X164138065Y-79004761D01*
X164352351Y-79957142D01*
X164245208Y-79861904D01*
X164042827Y-79766666D01*
X163566636Y-79766666D01*
X163388065Y-79861904D01*
X163304732Y-79957142D01*
X163233303Y-80147619D01*
X163292827Y-80623809D01*
X163411875Y-80814285D01*
X163519017Y-80909523D01*
X163721398Y-81004761D01*
X164197589Y-81004761D01*
X164376160Y-80909523D01*
X164459494Y-80814285D01*
X171352351Y-82495238D02*
X171245208Y-82400000D01*
X171042827Y-82304761D01*
X170566636Y-82304761D01*
X170388065Y-82400000D01*
X170304732Y-82495238D01*
X170233303Y-82685714D01*
X170257113Y-82876190D01*
X170388065Y-83161904D01*
X171673779Y-84304761D01*
X170435684Y-84304761D01*
X168947589Y-82304761D02*
X168757113Y-82304761D01*
X168578541Y-82400000D01*
X168495208Y-82495238D01*
X168423779Y-82685714D01*
X168376160Y-83066666D01*
X168435684Y-83542857D01*
X168578541Y-83923809D01*
X168697589Y-84114285D01*
X168804732Y-84209523D01*
X169007113Y-84304761D01*
X169197589Y-84304761D01*
X169376160Y-84209523D01*
X169459494Y-84114285D01*
X169530922Y-83923809D01*
X169578541Y-83542857D01*
X169519017Y-83066666D01*
X169376160Y-82685714D01*
X169257113Y-82495238D01*
X169149970Y-82400000D01*
X168947589Y-82304761D01*
X167542827Y-82495238D02*
X167435684Y-82400000D01*
X167233303Y-82304761D01*
X166757113Y-82304761D01*
X166578541Y-82400000D01*
X166495208Y-82495238D01*
X166423779Y-82685714D01*
X166447589Y-82876190D01*
X166578541Y-83161904D01*
X167864255Y-84304761D01*
X166626160Y-84304761D01*
X164721398Y-84304761D02*
X165864255Y-84304761D01*
X165292827Y-84304761D02*
X165042827Y-82304761D01*
X165269017Y-82590476D01*
X165483303Y-82780952D01*
X165685684Y-82876190D01*
X172292827Y-87604761D02*
X172126160Y-86271428D01*
X172173779Y-86652380D02*
X172054732Y-86461904D01*
X171947589Y-86366666D01*
X171745208Y-86271428D01*
X171554732Y-86271428D01*
X170280922Y-87509523D02*
X170483303Y-87604761D01*
X170864255Y-87604761D01*
X171042827Y-87509523D01*
X171114255Y-87319047D01*
X171019017Y-86557142D01*
X170899970Y-86366666D01*
X170697589Y-86271428D01*
X170316636Y-86271428D01*
X170138065Y-86366666D01*
X170066636Y-86557142D01*
X170090446Y-86747619D01*
X171066636Y-86938095D01*
X169364255Y-86271428D02*
X169054732Y-87604761D01*
X168411875Y-86271428D01*
X166769017Y-87604761D02*
X167911875Y-87604761D01*
X167340446Y-87604761D02*
X167090446Y-85604761D01*
X167316636Y-85890476D01*
X167530922Y-86080952D01*
X167733303Y-86176190D01*
X165888065Y-87414285D02*
X165804732Y-87509523D01*
X165911875Y-87604761D01*
X165995208Y-87509523D01*
X165888065Y-87414285D01*
X165911875Y-87604761D01*
X164328541Y-85604761D02*
X164138065Y-85604761D01*
X163959494Y-85700000D01*
X163876160Y-85795238D01*
X163804732Y-85985714D01*
X163757113Y-86366666D01*
X163816636Y-86842857D01*
X163959494Y-87223809D01*
X164078541Y-87414285D01*
X164185684Y-87509523D01*
X164388065Y-87604761D01*
X164578541Y-87604761D01*
X164757113Y-87509523D01*
X164840446Y-87414285D01*
X164911875Y-87223809D01*
X164959494Y-86842857D01*
X164899970Y-86366666D01*
X164757113Y-85985714D01*
X164638065Y-85795238D01*
X164530922Y-85700000D01*
X164328541Y-85604761D01*
M02*
