%TF.GenerationSoftware,KiCad,Pcbnew,(5.1.10-6-gecec324121)-1*%
%TF.CreationDate,2021-07-06T17:39:25+03:00*%
%TF.ProjectId,switchplate,73776974-6368-4706-9c61-74652e6b6963,rev?*%
%TF.SameCoordinates,Original*%
%TF.FileFunction,Profile,NP*%
%FSLAX46Y46*%
G04 Gerber Fmt 4.6, Leading zero omitted, Abs format (unit mm)*
G04 Created by KiCad (PCBNEW (5.1.10-6-gecec324121)-1) date 2021-07-06 17:39:25*
%MOMM*%
%LPD*%
G01*
G04 APERTURE LIST*
%TA.AperFunction,Profile*%
%ADD10C,0.200000*%
%TD*%
G04 APERTURE END LIST*
D10*
X158750000Y-92000000D02*
G75*
G02*
X157750000Y-91000000I0J1000000D01*
G01*
X177750000Y-90000000D02*
X177750000Y-91000000D01*
X157750000Y-91000000D02*
X157750000Y-90000000D01*
X176750000Y-92000000D02*
X158750000Y-92000000D01*
X176750000Y-89000000D02*
G75*
G02*
X177750000Y-90000000I0J-1000000D01*
G01*
X157750000Y-90000000D02*
G75*
G02*
X158750000Y-89000000I1000000J0D01*
G01*
X158750000Y-89000000D02*
X176750000Y-89000000D01*
X177750000Y-91000000D02*
G75*
G02*
X176750000Y-92000000I-1000000J0D01*
G01*
X121000000Y-89000000D02*
G75*
G02*
X122000000Y-90000000I0J-1000000D01*
G01*
X122000000Y-91000000D02*
G75*
G02*
X121000000Y-92000000I-1000000J0D01*
G01*
X99000000Y-92000000D02*
G75*
G02*
X98000000Y-91000000I0J1000000D01*
G01*
X98000000Y-90000000D02*
G75*
G02*
X99000000Y-89000000I1000000J0D01*
G01*
X98000000Y-91000000D02*
X98000000Y-90000000D01*
X121000000Y-92000000D02*
X99000000Y-92000000D01*
X122000000Y-90000000D02*
X122000000Y-91000000D01*
X99000000Y-89000000D02*
X121000000Y-89000000D01*
X306371675Y-96290955D02*
G75*
G02*
X305700000Y-96725000I628325J-1709045D01*
G01*
X308800000Y-42000000D02*
G75*
G03*
X308800000Y-42000000I-1800000J0D01*
G01*
X158300000Y-42000000D02*
G75*
G03*
X158300000Y-42000000I-1800000J0D01*
G01*
X158300000Y-98000000D02*
G75*
G03*
X158300000Y-98000000I-1800000J0D01*
G01*
X7800000Y-98000000D02*
G75*
G03*
X7800000Y-98000000I-1800000J0D01*
G01*
X7800000Y-42000000D02*
G75*
G03*
X7800000Y-42000000I-1800000J0D01*
G01*
X140475000Y-20525000D02*
G75*
G02*
X139975000Y-20025000I0J500000D01*
G01*
X134424999Y-6525000D02*
X121425000Y-6525000D01*
X115375000Y-6525000D02*
G75*
G02*
X115875000Y-7025000I0J-500000D01*
G01*
X134424999Y-6525000D02*
G75*
G02*
X134924999Y-7025000I0J-500000D01*
G01*
X134924999Y-20025000D02*
G75*
G02*
X134424999Y-20525000I-500000J0D01*
G01*
X121425000Y-20525000D02*
G75*
G02*
X120925000Y-20025000I0J500000D01*
G01*
X101875000Y-7025000D02*
X101875000Y-20025000D01*
X115875000Y-20025000D02*
X115875000Y-7025000D01*
X96825000Y-20025000D02*
X96825000Y-7025000D01*
X115875000Y-20025000D02*
G75*
G02*
X115375000Y-20525000I-500000J0D01*
G01*
X102375000Y-20525000D02*
G75*
G02*
X101875000Y-20025000I0J500000D01*
G01*
X134924999Y-20025000D02*
X134924999Y-7025000D01*
X115375000Y-6525000D02*
X102375000Y-6525000D01*
X153475000Y-6525000D02*
G75*
G02*
X153975000Y-7025000I0J-500000D01*
G01*
X102375000Y-20525000D02*
X115375000Y-20525000D01*
X101875000Y-7025000D02*
G75*
G02*
X102375000Y-6525000I500000J0D01*
G01*
X120925000Y-7025000D02*
X120925000Y-20025000D01*
X153975000Y-20025000D02*
G75*
G02*
X153475000Y-20525000I-500000J0D01*
G01*
X121425000Y-20525000D02*
X134424999Y-20525000D01*
X82825000Y-7025000D02*
X82825000Y-20025000D01*
X120925000Y-7025000D02*
G75*
G02*
X121425000Y-6525000I500000J0D01*
G01*
X96325000Y-6525000D02*
X83325000Y-6525000D01*
X139975000Y-7025000D02*
G75*
G02*
X140475000Y-6525000I500000J0D01*
G01*
X292375000Y-26075000D02*
X292375000Y-39075000D01*
X59512500Y-58625000D02*
G75*
G02*
X59012500Y-58125000I0J500000D01*
G01*
X9006250Y-45125000D02*
G75*
G02*
X9506250Y-44625000I500000J0D01*
G01*
X39962500Y-45125000D02*
X39962500Y-58125000D01*
X53962500Y-58125000D02*
X53962500Y-45125000D01*
X305875000Y-25575000D02*
G75*
G02*
X306375000Y-26075000I0J-500000D01*
G01*
X275418750Y-57538000D02*
X276856750Y-57538000D01*
X53462500Y-44625000D02*
X40462500Y-44625000D01*
X284943750Y-57038000D02*
G75*
G02*
X284443750Y-57538000I-500000J0D01*
G01*
X284943750Y-57038000D02*
X284943750Y-51037999D01*
X40462500Y-58625000D02*
X53462500Y-58625000D01*
X39962500Y-45125000D02*
G75*
G02*
X40462500Y-44625000I500000J0D01*
G01*
X53462500Y-44625000D02*
G75*
G02*
X53962500Y-45125000I0J-500000D01*
G01*
X53962500Y-58125000D02*
G75*
G02*
X53462500Y-58625000I-500000J0D01*
G01*
X292875000Y-39575000D02*
X305875000Y-39575000D01*
X284443750Y-50537999D02*
X283856750Y-50537999D01*
X40462500Y-58625000D02*
G75*
G02*
X39962500Y-58125000I0J500000D01*
G01*
X9006250Y-45125000D02*
X9006250Y-58125000D01*
X9506250Y-58625000D02*
X14268750Y-58625000D01*
X283856750Y-49100000D02*
X284443750Y-49100000D01*
X305875000Y-25575000D02*
X292875000Y-25575000D01*
X14268750Y-58625000D02*
X22506250Y-58625000D01*
X22506250Y-58625000D02*
X27268750Y-58625000D01*
X284443750Y-26662000D02*
X282562500Y-26662000D01*
X306375000Y-39075000D02*
X306375000Y-26075000D01*
X284943750Y-33162000D02*
X284943750Y-27162000D01*
X284443750Y-35100000D02*
X282562500Y-35100000D01*
X284943750Y-33162000D02*
G75*
G02*
X284443750Y-33662000I-500000J0D01*
G01*
X283856750Y-57538000D02*
X284443750Y-57538000D01*
X27768750Y-58125000D02*
X27768750Y-45125000D01*
X22506250Y-44625000D02*
X14268750Y-44625000D01*
X292875000Y-39575000D02*
G75*
G02*
X292375000Y-39075000I0J500000D01*
G01*
X284443750Y-50537999D02*
G75*
G02*
X284943750Y-51037999I0J-500000D01*
G01*
X270943750Y-39575000D02*
X270943750Y-44625000D01*
X284943750Y-48600000D02*
X284943750Y-35600000D01*
X14268750Y-44625000D02*
X9506250Y-44625000D01*
X9506250Y-58625000D02*
G75*
G02*
X9006250Y-58125000I0J500000D01*
G01*
X292375000Y-26075000D02*
G75*
G02*
X292875000Y-25575000I500000J0D01*
G01*
X27268750Y-44625000D02*
X22506250Y-44625000D01*
X27268750Y-44625000D02*
G75*
G02*
X27768750Y-45125000I0J-500000D01*
G01*
X282562500Y-33662000D02*
X284443750Y-33662000D01*
X27768750Y-58125000D02*
G75*
G02*
X27268750Y-58625000I-500000J0D01*
G01*
X306375000Y-39075000D02*
G75*
G02*
X305875000Y-39575000I-500000J0D01*
G01*
X284443750Y-26662000D02*
G75*
G02*
X284943750Y-27162000I0J-500000D01*
G01*
X258250000Y-25575000D02*
X245250000Y-25575000D01*
X239700000Y-39075000D02*
G75*
G02*
X239200000Y-39575000I-500000J0D01*
G01*
X287662500Y-25575000D02*
X286662500Y-25575000D01*
X286662500Y-39575000D02*
G75*
G02*
X286162500Y-39075000I0J500000D01*
G01*
X263462500Y-39575000D02*
G75*
G02*
X262962500Y-39075000I0J500000D01*
G01*
X239700000Y-39075000D02*
X239700000Y-26075000D01*
X225700000Y-26075000D02*
G75*
G02*
X226200000Y-25575000I500000J0D01*
G01*
X264962500Y-39075000D02*
X264962500Y-26075000D01*
X239200000Y-25575000D02*
X226200000Y-25575000D01*
X288162500Y-39075000D02*
G75*
G02*
X287662500Y-39575000I-500000J0D01*
G01*
X269062499Y-39575000D02*
X270943750Y-39575000D01*
X287662500Y-25575000D02*
G75*
G02*
X288162500Y-26075000I0J-500000D01*
G01*
X282562500Y-26662000D02*
X282562500Y-26075000D01*
X262962500Y-26075000D02*
X262962500Y-39075000D01*
X264462500Y-25575000D02*
X263462500Y-25575000D01*
X244750000Y-26075000D02*
X244750000Y-39075000D01*
X245250000Y-39575000D02*
X258250000Y-39575000D01*
X226200000Y-39575000D02*
G75*
G02*
X225700000Y-39075000I0J500000D01*
G01*
X226200000Y-39575000D02*
X239200000Y-39575000D01*
X245250000Y-39575000D02*
G75*
G02*
X244750000Y-39075000I0J500000D01*
G01*
X264962500Y-39075000D02*
G75*
G02*
X264462500Y-39575000I-500000J0D01*
G01*
X268562499Y-26075000D02*
X268562499Y-39075000D01*
X225700000Y-26075000D02*
X225700000Y-39075000D01*
X220150000Y-25575000D02*
X207150000Y-25575000D01*
X269062499Y-39575000D02*
G75*
G02*
X268562499Y-39075000I0J500000D01*
G01*
X284443750Y-35100000D02*
G75*
G02*
X284943750Y-35600000I0J-500000D01*
G01*
X263462500Y-39575000D02*
X264462500Y-39575000D01*
X286662500Y-39575000D02*
X287662500Y-39575000D01*
X284943750Y-48600000D02*
G75*
G02*
X284443750Y-49100000I-500000J0D01*
G01*
X286162500Y-26075000D02*
X286162500Y-39075000D01*
X288162500Y-39075000D02*
X288162500Y-26075000D01*
X264462500Y-25575000D02*
G75*
G02*
X264962500Y-26075000I0J-500000D01*
G01*
X282562500Y-35100000D02*
X282562500Y-33662000D01*
X239200000Y-25575000D02*
G75*
G02*
X239700000Y-26075000I0J-500000D01*
G01*
X220650000Y-39075000D02*
X220650000Y-26075000D01*
X207150000Y-39575000D02*
X220150000Y-39575000D01*
X286162500Y-26075000D02*
G75*
G02*
X286662500Y-25575000I500000J0D01*
G01*
X268562499Y-26075000D02*
G75*
G02*
X269062499Y-25575000I500000J0D01*
G01*
X262962500Y-26075000D02*
G75*
G02*
X263462500Y-25575000I500000J0D01*
G01*
X282062500Y-25575000D02*
X269062499Y-25575000D01*
X244750000Y-26075000D02*
G75*
G02*
X245250000Y-25575000I500000J0D01*
G01*
X258750000Y-39075000D02*
G75*
G02*
X258250000Y-39575000I-500000J0D01*
G01*
X206650000Y-26075000D02*
X206650000Y-39075000D01*
X282062500Y-25575000D02*
G75*
G02*
X282562500Y-26075000I0J-500000D01*
G01*
X258250000Y-25575000D02*
G75*
G02*
X258750000Y-26075000I0J-500000D01*
G01*
X258750000Y-39075000D02*
X258750000Y-26075000D01*
X168550000Y-26075000D02*
G75*
G02*
X169050000Y-25575000I500000J0D01*
G01*
X150000000Y-39575000D02*
G75*
G02*
X149500000Y-39075000I0J500000D01*
G01*
X149500000Y-26075000D02*
X149500000Y-39075000D01*
X149500000Y-26075000D02*
G75*
G02*
X150000000Y-25575000I500000J0D01*
G01*
X130950000Y-39575000D02*
G75*
G02*
X130450000Y-39075000I0J500000D01*
G01*
X163000000Y-25575000D02*
G75*
G02*
X163500000Y-26075000I0J-500000D01*
G01*
X111900000Y-39575000D02*
X124900000Y-39575000D01*
X92350000Y-26075000D02*
X92350000Y-39075000D01*
X130950000Y-39575000D02*
X143950000Y-39575000D01*
X111900000Y-39575000D02*
G75*
G02*
X111400000Y-39075000I0J500000D01*
G01*
X188100000Y-39575000D02*
X201100000Y-39575000D01*
X220150000Y-25575000D02*
G75*
G02*
X220650000Y-26075000I0J-500000D01*
G01*
X201100000Y-25575000D02*
G75*
G02*
X201600000Y-26075000I0J-500000D01*
G01*
X201600000Y-39075000D02*
G75*
G02*
X201100000Y-39575000I-500000J0D01*
G01*
X130450000Y-26075000D02*
X130450000Y-39075000D01*
X182550000Y-39075000D02*
X182550000Y-26075000D01*
X169050000Y-39575000D02*
X182050000Y-39575000D01*
X182050000Y-25575000D02*
G75*
G02*
X182550000Y-26075000I0J-500000D01*
G01*
X163500000Y-39075000D02*
X163500000Y-26075000D01*
X144450000Y-39075000D02*
X144450000Y-26075000D01*
X144450000Y-39075000D02*
G75*
G02*
X143950000Y-39575000I-500000J0D01*
G01*
X130450000Y-26075000D02*
G75*
G02*
X130950000Y-25575000I500000J0D01*
G01*
X111400000Y-26075000D02*
G75*
G02*
X111900000Y-25575000I500000J0D01*
G01*
X150000000Y-39575000D02*
X163000000Y-39575000D01*
X111400000Y-26075000D02*
X111400000Y-39075000D01*
X125400000Y-39075000D02*
G75*
G02*
X124900000Y-39575000I-500000J0D01*
G01*
X220650000Y-39075000D02*
G75*
G02*
X220150000Y-39575000I-500000J0D01*
G01*
X182550000Y-39075000D02*
G75*
G02*
X182050000Y-39575000I-500000J0D01*
G01*
X125400000Y-39075000D02*
X125400000Y-26075000D01*
X201100000Y-25575000D02*
X188100000Y-25575000D01*
X201600000Y-39075000D02*
X201600000Y-26075000D01*
X187600000Y-26075000D02*
G75*
G02*
X188100000Y-25575000I500000J0D01*
G01*
X187600000Y-26075000D02*
X187600000Y-39075000D01*
X188100000Y-39575000D02*
G75*
G02*
X187600000Y-39075000I0J500000D01*
G01*
X163500000Y-39075000D02*
G75*
G02*
X163000000Y-39575000I-500000J0D01*
G01*
X106350000Y-39075000D02*
X106350000Y-26075000D01*
X182050000Y-25575000D02*
X169050000Y-25575000D01*
X169050000Y-39575000D02*
G75*
G02*
X168550000Y-39075000I0J500000D01*
G01*
X143950000Y-25575000D02*
G75*
G02*
X144450000Y-26075000I0J-500000D01*
G01*
X143950000Y-25575000D02*
X130950000Y-25575000D01*
X163000000Y-25575000D02*
X150000000Y-25575000D01*
X124900000Y-25575000D02*
X111900000Y-25575000D01*
X124900000Y-25575000D02*
G75*
G02*
X125400000Y-26075000I0J-500000D01*
G01*
X206650000Y-26075000D02*
G75*
G02*
X207150000Y-25575000I500000J0D01*
G01*
X207150000Y-39575000D02*
G75*
G02*
X206650000Y-39075000I0J500000D01*
G01*
X168550000Y-26075000D02*
X168550000Y-39075000D01*
X197125000Y-7025000D02*
X197125000Y-20025000D01*
X249225000Y-20025000D02*
G75*
G02*
X248725000Y-20525000I-500000J0D01*
G01*
X235725000Y-20525000D02*
X248725000Y-20525000D01*
X235725000Y-20525000D02*
G75*
G02*
X235225000Y-20025000I0J500000D01*
G01*
X216175000Y-7025000D02*
X216175000Y-20025000D01*
X230175000Y-20025000D02*
X230175000Y-7025000D01*
X216175000Y-7025000D02*
G75*
G02*
X216675000Y-6525000I500000J0D01*
G01*
X211125000Y-20025000D02*
X211125000Y-7025000D01*
X216675000Y-20525000D02*
G75*
G02*
X216175000Y-20025000I0J500000D01*
G01*
X216675000Y-20525000D02*
X229675000Y-20525000D01*
X229675000Y-6525000D02*
G75*
G02*
X230175000Y-7025000I0J-500000D01*
G01*
X210625000Y-6525000D02*
X197625000Y-6525000D01*
X230175000Y-20025000D02*
G75*
G02*
X229675000Y-20525000I-500000J0D01*
G01*
X197125000Y-7025000D02*
G75*
G02*
X197625000Y-6525000I500000J0D01*
G01*
X235225000Y-7025000D02*
X235225000Y-20025000D01*
X197625000Y-20525000D02*
X210625000Y-20525000D01*
X229675000Y-6525000D02*
X216675000Y-6525000D01*
X254275000Y-7025000D02*
G75*
G02*
X254775000Y-6525000I500000J0D01*
G01*
X254775000Y-20525000D02*
G75*
G02*
X254275000Y-20025000I0J500000D01*
G01*
X249225000Y-20025000D02*
X249225000Y-7025000D01*
X248725000Y-6525000D02*
G75*
G02*
X249225000Y-7025000I0J-500000D01*
G01*
X248725000Y-6525000D02*
X235725000Y-6525000D01*
X235225000Y-7025000D02*
G75*
G02*
X235725000Y-6525000I500000J0D01*
G01*
X224912500Y-44625000D02*
G75*
G02*
X225412500Y-45125000I0J-500000D01*
G01*
X230462500Y-45125000D02*
X230462500Y-58125000D01*
X243962500Y-44625000D02*
X230962500Y-44625000D01*
X230962500Y-58625000D02*
X243962500Y-58625000D01*
X224912500Y-44625000D02*
X211912500Y-44625000D01*
X225412500Y-58125000D02*
X225412500Y-45125000D01*
X270943750Y-44625000D02*
X263012500Y-44625000D01*
X263012500Y-58625000D02*
X274918750Y-58625000D01*
X244462500Y-58125000D02*
G75*
G02*
X243962500Y-58625000I-500000J0D01*
G01*
X211912500Y-58625000D02*
X224912500Y-58625000D01*
X243962500Y-44625000D02*
G75*
G02*
X244462500Y-45125000I0J-500000D01*
G01*
X211412500Y-45125000D02*
X211412500Y-58125000D01*
X252980750Y-58625000D02*
X252980750Y-59125000D01*
X259980750Y-59125000D02*
X259980750Y-58625000D01*
X259480750Y-44625000D02*
X253480750Y-44625000D01*
X230462500Y-45125000D02*
G75*
G02*
X230962500Y-44625000I500000J0D01*
G01*
X253480750Y-59625000D02*
X259480750Y-59625000D01*
X259980750Y-59125000D02*
G75*
G02*
X259480750Y-59625000I-500000J0D01*
G01*
X253480750Y-59625000D02*
G75*
G02*
X252980750Y-59125000I0J500000D01*
G01*
X275418750Y-58125000D02*
X275418750Y-57538000D01*
X263012500Y-44625000D02*
X261918750Y-44625000D01*
X261918750Y-58625000D02*
X263012500Y-58625000D01*
X225412500Y-58125000D02*
G75*
G02*
X224912500Y-58625000I-500000J0D01*
G01*
X275418750Y-58125000D02*
G75*
G02*
X274918750Y-58625000I-500000J0D01*
G01*
X230962500Y-58625000D02*
G75*
G02*
X230462500Y-58125000I0J500000D01*
G01*
X244462500Y-58125000D02*
X244462500Y-45125000D01*
X211412500Y-45125000D02*
G75*
G02*
X211912500Y-44625000I500000J0D01*
G01*
X186812500Y-44625000D02*
X173812500Y-44625000D01*
X173812500Y-58625000D02*
X186812500Y-58625000D01*
X130162500Y-58125000D02*
G75*
G02*
X129662500Y-58625000I-500000J0D01*
G01*
X173312500Y-45125000D02*
G75*
G02*
X173812500Y-44625000I500000J0D01*
G01*
X186812500Y-44625000D02*
G75*
G02*
X187312500Y-45125000I0J-500000D01*
G01*
X187312500Y-58125000D02*
G75*
G02*
X186812500Y-58625000I-500000J0D01*
G01*
X135712500Y-58625000D02*
X148712500Y-58625000D01*
X154262500Y-45125000D02*
X154262500Y-58125000D01*
X135712500Y-58625000D02*
G75*
G02*
X135212500Y-58125000I0J500000D01*
G01*
X116162500Y-45125000D02*
G75*
G02*
X116662500Y-44625000I500000J0D01*
G01*
X78062500Y-45125000D02*
X78062500Y-58125000D01*
X154762500Y-58625000D02*
G75*
G02*
X154262500Y-58125000I0J500000D01*
G01*
X116662500Y-58625000D02*
X129662500Y-58625000D01*
X72512500Y-44625000D02*
X59512500Y-44625000D01*
X167762500Y-44625000D02*
X154762500Y-44625000D01*
X110612500Y-44625000D02*
G75*
G02*
X111112500Y-45125000I0J-500000D01*
G01*
X78562500Y-58625000D02*
G75*
G02*
X78062500Y-58125000I0J500000D01*
G01*
X116662500Y-58625000D02*
G75*
G02*
X116162500Y-58125000I0J500000D01*
G01*
X97612500Y-58625000D02*
X110612500Y-58625000D01*
X92062500Y-58125000D02*
X92062500Y-45125000D01*
X72512500Y-44625000D02*
G75*
G02*
X73012500Y-45125000I0J-500000D01*
G01*
X154262500Y-45125000D02*
G75*
G02*
X154762500Y-44625000I500000J0D01*
G01*
X135212500Y-45125000D02*
X135212500Y-58125000D01*
X78062500Y-45125000D02*
G75*
G02*
X78562500Y-44625000I500000J0D01*
G01*
X97112500Y-45125000D02*
G75*
G02*
X97612500Y-44625000I500000J0D01*
G01*
X73012500Y-58125000D02*
G75*
G02*
X72512500Y-58625000I-500000J0D01*
G01*
X148712500Y-44625000D02*
X135712500Y-44625000D01*
X59012500Y-45125000D02*
X59012500Y-58125000D01*
X116162500Y-45125000D02*
X116162500Y-58125000D01*
X78562500Y-58625000D02*
X91562500Y-58625000D01*
X97112500Y-45125000D02*
X97112500Y-58125000D01*
X91562500Y-44625000D02*
X78562500Y-44625000D01*
X168262500Y-58125000D02*
X168262500Y-45125000D01*
X135212500Y-45125000D02*
G75*
G02*
X135712500Y-44625000I500000J0D01*
G01*
X167762500Y-44625000D02*
G75*
G02*
X168262500Y-45125000I0J-500000D01*
G01*
X129662500Y-44625000D02*
X116662500Y-44625000D01*
X148712500Y-44625000D02*
G75*
G02*
X149212500Y-45125000I0J-500000D01*
G01*
X110612500Y-44625000D02*
X97612500Y-44625000D01*
X91562500Y-44625000D02*
G75*
G02*
X92062500Y-45125000I0J-500000D01*
G01*
X73012500Y-58125000D02*
X73012500Y-45125000D01*
X59012500Y-45125000D02*
G75*
G02*
X59512500Y-44625000I500000J0D01*
G01*
X111112500Y-58125000D02*
G75*
G02*
X110612500Y-58625000I-500000J0D01*
G01*
X111112500Y-58125000D02*
X111112500Y-45125000D01*
X59512500Y-58625000D02*
X72512500Y-58625000D01*
X154762500Y-58625000D02*
X167762500Y-58625000D01*
X92062500Y-58125000D02*
G75*
G02*
X91562500Y-58625000I-500000J0D01*
G01*
X211912500Y-58625000D02*
G75*
G02*
X211412500Y-58125000I0J500000D01*
G01*
X192362500Y-45125000D02*
X192362500Y-58125000D01*
X129662500Y-44625000D02*
G75*
G02*
X130162500Y-45125000I0J-500000D01*
G01*
X97612500Y-58625000D02*
G75*
G02*
X97112500Y-58125000I0J500000D01*
G01*
X206362500Y-58125000D02*
X206362500Y-45125000D01*
X205862500Y-44625000D02*
X192862500Y-44625000D01*
X149212500Y-58125000D02*
X149212500Y-45125000D01*
X192862500Y-58625000D02*
X205862500Y-58625000D01*
X168262500Y-58125000D02*
G75*
G02*
X167762500Y-58625000I-500000J0D01*
G01*
X192362500Y-45125000D02*
G75*
G02*
X192862500Y-44625000I500000J0D01*
G01*
X205862500Y-44625000D02*
G75*
G02*
X206362500Y-45125000I0J-500000D01*
G01*
X149212500Y-58125000D02*
G75*
G02*
X148712500Y-58625000I-500000J0D01*
G01*
X206362500Y-58125000D02*
G75*
G02*
X205862500Y-58625000I-500000J0D01*
G01*
X130162500Y-58125000D02*
X130162500Y-45125000D01*
X173812500Y-58625000D02*
G75*
G02*
X173312500Y-58125000I0J500000D01*
G01*
X192862500Y-58625000D02*
G75*
G02*
X192362500Y-58125000I0J500000D01*
G01*
X173312500Y-45125000D02*
X173312500Y-58125000D01*
X187312500Y-58125000D02*
X187312500Y-45125000D01*
X68250000Y-39075000D02*
G75*
G02*
X67750000Y-39575000I-500000J0D01*
G01*
X49200000Y-39075000D02*
G75*
G02*
X48700000Y-39575000I-500000J0D01*
G01*
X54750000Y-39575000D02*
X67750000Y-39575000D01*
X73800000Y-39575000D02*
G75*
G02*
X73300000Y-39075000I0J500000D01*
G01*
X67750000Y-25575000D02*
G75*
G02*
X68250000Y-26075000I0J-500000D01*
G01*
X67750000Y-25575000D02*
X54750000Y-25575000D01*
X30987500Y-39075000D02*
G75*
G02*
X30487500Y-39575000I-500000J0D01*
G01*
X29487500Y-39575000D02*
X30487500Y-39575000D01*
X105850000Y-25575000D02*
X92850000Y-25575000D01*
X92850000Y-39575000D02*
G75*
G02*
X92350000Y-39075000I0J500000D01*
G01*
X87300000Y-39075000D02*
X87300000Y-26075000D01*
X73300000Y-26075000D02*
X73300000Y-39075000D01*
X87300000Y-39075000D02*
G75*
G02*
X86800000Y-39575000I-500000J0D01*
G01*
X30987500Y-39075000D02*
X30987500Y-26075000D01*
X29487500Y-39575000D02*
G75*
G02*
X28987500Y-39075000I0J500000D01*
G01*
X92850000Y-39575000D02*
X105850000Y-39575000D01*
X92350000Y-26075000D02*
G75*
G02*
X92850000Y-25575000I500000J0D01*
G01*
X106350000Y-39075000D02*
G75*
G02*
X105850000Y-39575000I-500000J0D01*
G01*
X28987500Y-26075000D02*
X28987500Y-39075000D01*
X35700000Y-39575000D02*
X48700000Y-39575000D01*
X105850000Y-25575000D02*
G75*
G02*
X106350000Y-26075000I0J-500000D01*
G01*
X86800000Y-25575000D02*
X73800000Y-25575000D01*
X54250000Y-26075000D02*
G75*
G02*
X54750000Y-25575000I500000J0D01*
G01*
X48700000Y-25575000D02*
X35700000Y-25575000D01*
X35700000Y-39575000D02*
G75*
G02*
X35200000Y-39075000I0J500000D01*
G01*
X73800000Y-39575000D02*
X86800000Y-39575000D01*
X73300000Y-26075000D02*
G75*
G02*
X73800000Y-25575000I500000J0D01*
G01*
X86800000Y-25575000D02*
G75*
G02*
X87300000Y-26075000I0J-500000D01*
G01*
X54750000Y-39575000D02*
G75*
G02*
X54250000Y-39075000I0J500000D01*
G01*
X35200000Y-26075000D02*
X35200000Y-39075000D01*
X30487500Y-25575000D02*
G75*
G02*
X30987500Y-26075000I0J-500000D01*
G01*
X54250000Y-26075000D02*
X54250000Y-39075000D01*
X68250000Y-39075000D02*
X68250000Y-26075000D01*
X30487500Y-25575000D02*
X29487500Y-25575000D01*
X49200000Y-39075000D02*
X49200000Y-26075000D01*
X35200000Y-26075000D02*
G75*
G02*
X35700000Y-25575000I500000J0D01*
G01*
X48700000Y-25575000D02*
G75*
G02*
X49200000Y-26075000I0J-500000D01*
G01*
X28987500Y-26075000D02*
G75*
G02*
X29487500Y-25575000I500000J0D01*
G01*
X125687500Y-64175000D02*
G75*
G02*
X126187500Y-63675000I500000J0D01*
G01*
X106637500Y-64175000D02*
X106637500Y-77175000D01*
X107137500Y-77675000D02*
X120137500Y-77675000D01*
X120637500Y-77175000D02*
G75*
G02*
X120137500Y-77675000I-500000J0D01*
G01*
X107137500Y-77675000D02*
G75*
G02*
X106637500Y-77175000I0J500000D01*
G01*
X101587500Y-77175000D02*
X101587500Y-64175000D01*
X139187500Y-63675000D02*
G75*
G02*
X139687500Y-64175000I0J-500000D01*
G01*
X139687500Y-77175000D02*
G75*
G02*
X139187500Y-77675000I-500000J0D01*
G01*
X82037500Y-63675000D02*
G75*
G02*
X82537500Y-64175000I0J-500000D01*
G01*
X106637500Y-64175000D02*
G75*
G02*
X107137500Y-63675000I500000J0D01*
G01*
X126187500Y-77675000D02*
G75*
G02*
X125687500Y-77175000I0J500000D01*
G01*
X101087500Y-63675000D02*
X88087500Y-63675000D01*
X82037500Y-63675000D02*
X69037500Y-63675000D01*
X87587500Y-64175000D02*
G75*
G02*
X88087500Y-63675000I500000J0D01*
G01*
X101587500Y-77175000D02*
G75*
G02*
X101087500Y-77675000I-500000J0D01*
G01*
X68537500Y-64175000D02*
G75*
G02*
X69037500Y-63675000I500000J0D01*
G01*
X82537500Y-77175000D02*
X82537500Y-64175000D01*
X69037500Y-77675000D02*
X82037500Y-77675000D01*
X120137500Y-63675000D02*
G75*
G02*
X120637500Y-64175000I0J-500000D01*
G01*
X120137500Y-63675000D02*
X107137500Y-63675000D01*
X87587500Y-64175000D02*
X87587500Y-77175000D01*
X88087500Y-77675000D02*
G75*
G02*
X87587500Y-77175000I0J500000D01*
G01*
X68537500Y-64175000D02*
X68537500Y-77175000D01*
X139187500Y-63675000D02*
X126187500Y-63675000D01*
X126187500Y-77675000D02*
X139187500Y-77675000D01*
X88087500Y-77675000D02*
X101087500Y-77675000D01*
X120637500Y-77175000D02*
X120637500Y-64175000D01*
X101087500Y-63675000D02*
G75*
G02*
X101587500Y-64175000I0J-500000D01*
G01*
X40969250Y-77675000D02*
X43937500Y-77675000D01*
X10093250Y-77675000D02*
X10093250Y-78175000D01*
X16593250Y-63675000D02*
X10593250Y-63675000D01*
X9506250Y-77675000D02*
G75*
G02*
X9006250Y-77175000I0J500000D01*
G01*
X34469250Y-78675000D02*
X40469250Y-78675000D01*
X277356750Y-59625000D02*
X283356750Y-59625000D01*
X49487500Y-64175000D02*
G75*
G02*
X49987500Y-63675000I500000J0D01*
G01*
X17093250Y-77675000D02*
X19031250Y-77675000D01*
X22506250Y-77675000D02*
X30937500Y-77675000D01*
X33969250Y-77675000D02*
X33969250Y-78175000D01*
X62987500Y-63675000D02*
X49987500Y-63675000D01*
X306375000Y-58125000D02*
X306375000Y-45125000D01*
X62987500Y-63675000D02*
G75*
G02*
X63487500Y-64175000I0J-500000D01*
G01*
X30937500Y-63675000D02*
X22506250Y-63675000D01*
X292375000Y-45125000D02*
G75*
G02*
X292875000Y-44625000I500000J0D01*
G01*
X305875000Y-44625000D02*
X292875000Y-44625000D01*
X44437500Y-77175000D02*
G75*
G02*
X43937500Y-77675000I-500000J0D01*
G01*
X44437500Y-77175000D02*
X44437500Y-64175000D01*
X283856750Y-59125000D02*
G75*
G02*
X283356750Y-59625000I-500000J0D01*
G01*
X283856750Y-59125000D02*
X283856750Y-57538000D01*
X9506250Y-77675000D02*
X10093250Y-77675000D01*
X10593250Y-78675000D02*
G75*
G02*
X10093250Y-78175000I0J500000D01*
G01*
X277356750Y-59625000D02*
G75*
G02*
X276856750Y-59125000I0J500000D01*
G01*
X19031250Y-77675000D02*
X22506250Y-77675000D01*
X82537500Y-77175000D02*
G75*
G02*
X82037500Y-77675000I-500000J0D01*
G01*
X10593250Y-63675000D02*
X9506250Y-63675000D01*
X63487500Y-77175000D02*
G75*
G02*
X62987500Y-77675000I-500000J0D01*
G01*
X249512500Y-45125000D02*
G75*
G02*
X250012500Y-44625000I500000J0D01*
G01*
X69037500Y-77675000D02*
G75*
G02*
X68537500Y-77175000I0J500000D01*
G01*
X49987500Y-77675000D02*
X62987500Y-77675000D01*
X49987500Y-77675000D02*
G75*
G02*
X49487500Y-77175000I0J500000D01*
G01*
X17093250Y-78175000D02*
G75*
G02*
X16593250Y-78675000I-500000J0D01*
G01*
X43937500Y-63675000D02*
G75*
G02*
X44437500Y-64175000I0J-500000D01*
G01*
X305875000Y-44625000D02*
G75*
G02*
X306375000Y-45125000I0J-500000D01*
G01*
X276856750Y-57538000D02*
X276856750Y-59125000D01*
X34469250Y-78675000D02*
G75*
G02*
X33969250Y-78175000I0J500000D01*
G01*
X250012500Y-58625000D02*
X252980750Y-58625000D01*
X283856750Y-50537999D02*
X283856750Y-49100000D01*
X253480750Y-44625000D02*
X250012500Y-44625000D01*
X250012500Y-58625000D02*
G75*
G02*
X249512500Y-58125000I0J500000D01*
G01*
X9006250Y-64175000D02*
X9006250Y-77175000D01*
X292875000Y-58625000D02*
G75*
G02*
X292375000Y-58125000I0J500000D01*
G01*
X292375000Y-45125000D02*
X292375000Y-58125000D01*
X10593250Y-78675000D02*
X16593250Y-78675000D01*
X34469250Y-63675000D02*
X32031250Y-63675000D01*
X40969250Y-78175000D02*
G75*
G02*
X40469250Y-78675000I-500000J0D01*
G01*
X49487500Y-64175000D02*
X49487500Y-77175000D01*
X43937500Y-63675000D02*
X40469250Y-63675000D01*
X261918750Y-44625000D02*
X259480750Y-44625000D01*
X259980750Y-58625000D02*
X261918750Y-58625000D01*
X30937500Y-77675000D02*
X32031250Y-77675000D01*
X292875000Y-58625000D02*
X305875000Y-58625000D01*
X32031250Y-77675000D02*
X33969250Y-77675000D01*
X19031250Y-63675000D02*
X16593250Y-63675000D01*
X63487500Y-77175000D02*
X63487500Y-64175000D01*
X9006250Y-64175000D02*
G75*
G02*
X9506250Y-63675000I500000J0D01*
G01*
X22506250Y-63675000D02*
X19031250Y-63675000D01*
X40969250Y-78175000D02*
X40969250Y-77675000D01*
X40469250Y-63675000D02*
X34469250Y-63675000D01*
X306375000Y-58125000D02*
G75*
G02*
X305875000Y-58625000I-500000J0D01*
G01*
X32031250Y-63675000D02*
X30937500Y-63675000D01*
X249512500Y-45125000D02*
X249512500Y-58125000D01*
X17093250Y-78175000D02*
X17093250Y-77675000D01*
X197787500Y-82725000D02*
X197625000Y-82725000D01*
X202387500Y-82725000D02*
X201125000Y-82725000D01*
X207125000Y-82725000D02*
X202387500Y-82725000D01*
X201125000Y-97725000D02*
X207125000Y-97725000D01*
X153475000Y-82725000D02*
G75*
G02*
X153975000Y-83225000I0J-500000D01*
G01*
X207625000Y-96725000D02*
X210625000Y-96725000D01*
X210625000Y-82725000D02*
X207125000Y-82725000D01*
X200625000Y-96725000D02*
X200625000Y-97225000D01*
X92825000Y-82725000D02*
X88068750Y-82725000D01*
X153975000Y-96225000D02*
X153975000Y-83225000D01*
X207625000Y-97225000D02*
X207625000Y-96725000D01*
X92825000Y-82725000D02*
G75*
G02*
X93325000Y-83225000I0J-500000D01*
G01*
X207625000Y-97225000D02*
G75*
G02*
X207125000Y-97725000I-500000J0D01*
G01*
X88068750Y-97725000D02*
X92825000Y-97725000D01*
X201125000Y-97725000D02*
G75*
G02*
X200625000Y-97225000I0J500000D01*
G01*
X153975000Y-96225000D02*
G75*
G02*
X153475000Y-96725000I-500000J0D01*
G01*
X141568750Y-96725000D02*
X153475000Y-96725000D01*
X201125000Y-82725000D02*
X197787500Y-82725000D01*
X215387500Y-82725000D02*
X210625000Y-82725000D01*
X197787500Y-96725000D02*
X200625000Y-96725000D01*
X197625000Y-96725000D02*
X197787500Y-96725000D01*
X93325000Y-97225000D02*
G75*
G02*
X92825000Y-97725000I-500000J0D01*
G01*
X93325000Y-97225000D02*
X93325000Y-83225000D01*
X153475000Y-82725000D02*
X141568750Y-82725000D01*
X210625000Y-96725000D02*
X215387500Y-96725000D01*
X73012500Y-96225000D02*
X73012500Y-83225000D01*
X54912500Y-82725000D02*
X53912500Y-82725000D01*
X140475000Y-96725000D02*
X141568750Y-96725000D01*
X128568750Y-96725000D02*
X140475000Y-96725000D01*
X128568750Y-96725000D02*
G75*
G02*
X128068750Y-96225000I0J500000D01*
G01*
X76612500Y-83225000D02*
X76612500Y-96225000D01*
X54912500Y-82725000D02*
G75*
G02*
X55412500Y-83225000I0J-500000D01*
G01*
X70131250Y-96725000D02*
X72512500Y-96725000D01*
X77112500Y-96725000D02*
G75*
G02*
X76612500Y-96225000I0J500000D01*
G01*
X59512500Y-96725000D02*
X70131250Y-96725000D01*
X72512500Y-82725000D02*
G75*
G02*
X73012500Y-83225000I0J-500000D01*
G01*
X72512500Y-82725000D02*
X70131250Y-82725000D01*
X57131250Y-96725000D02*
G75*
G02*
X56631250Y-96225000I0J500000D01*
G01*
X35700000Y-96725000D02*
X46318750Y-96725000D01*
X78612500Y-96225000D02*
G75*
G02*
X78112500Y-96725000I-500000J0D01*
G01*
X188568750Y-97225000D02*
G75*
G02*
X188068750Y-97725000I-500000J0D01*
G01*
X48700000Y-82725000D02*
G75*
G02*
X49200000Y-83225000I0J-500000D01*
G01*
X182068750Y-97725000D02*
G75*
G02*
X181568750Y-97225000I0J500000D01*
G01*
X81568750Y-83225000D02*
X81568750Y-97225000D01*
X86825000Y-82725000D02*
X82068750Y-82725000D01*
X86825000Y-97725000D02*
X88068750Y-97725000D01*
X53412500Y-83225000D02*
X53412500Y-96225000D01*
X55412500Y-96225000D02*
G75*
G02*
X54912500Y-96725000I-500000J0D01*
G01*
X28987500Y-83225000D02*
X28987500Y-96225000D01*
X77112500Y-96725000D02*
X78112500Y-96725000D01*
X81568750Y-83225000D02*
G75*
G02*
X82068750Y-82725000I500000J0D01*
G01*
X32818750Y-83225000D02*
X32818750Y-96225000D01*
X78112500Y-82725000D02*
X77112500Y-82725000D01*
X78112500Y-82725000D02*
G75*
G02*
X78612500Y-83225000I0J-500000D01*
G01*
X128068750Y-83225000D02*
X128068750Y-96225000D01*
X33318750Y-96725000D02*
X35700000Y-96725000D01*
X140475000Y-82725000D02*
X128568750Y-82725000D01*
X78612500Y-96225000D02*
X78612500Y-83225000D01*
X53912500Y-96725000D02*
G75*
G02*
X53412500Y-96225000I0J500000D01*
G01*
X73012500Y-96225000D02*
G75*
G02*
X72512500Y-96725000I-500000J0D01*
G01*
X59512500Y-82725000D02*
X57131250Y-82725000D01*
X35700000Y-82725000D02*
X33318750Y-82725000D01*
X70131250Y-82725000D02*
X59512500Y-82725000D01*
X56631250Y-83225000D02*
G75*
G02*
X57131250Y-82725000I500000J0D01*
G01*
X57131250Y-96725000D02*
X59512500Y-96725000D01*
X46318750Y-96725000D02*
X48700000Y-96725000D01*
X30987500Y-96225000D02*
X30987500Y-83225000D01*
X181568750Y-83225000D02*
X181568750Y-97225000D01*
X188568750Y-97225000D02*
X188568750Y-83225000D01*
X48700000Y-82725000D02*
X46318750Y-82725000D01*
X49200000Y-96225000D02*
G75*
G02*
X48700000Y-96725000I-500000J0D01*
G01*
X188068750Y-82725000D02*
X182068750Y-82725000D01*
X82068750Y-97725000D02*
X86825000Y-97725000D01*
X182068750Y-97725000D02*
X188068750Y-97725000D01*
X181568750Y-83225000D02*
G75*
G02*
X182068750Y-82725000I500000J0D01*
G01*
X188068750Y-82725000D02*
G75*
G02*
X188568750Y-83225000I0J-500000D01*
G01*
X53412500Y-83225000D02*
G75*
G02*
X53912500Y-82725000I500000J0D01*
G01*
X32818750Y-83225000D02*
G75*
G02*
X33318750Y-82725000I500000J0D01*
G01*
X53912500Y-96725000D02*
X54912500Y-96725000D01*
X46318750Y-82725000D02*
X35700000Y-82725000D01*
X88068750Y-82725000D02*
X86825000Y-82725000D01*
X82068750Y-97725000D02*
G75*
G02*
X81568750Y-97225000I0J500000D01*
G01*
X141568750Y-82725000D02*
X140475000Y-82725000D01*
X76612500Y-83225000D02*
G75*
G02*
X77112500Y-82725000I500000J0D01*
G01*
X49200000Y-96225000D02*
X49200000Y-83225000D01*
X33318750Y-96725000D02*
G75*
G02*
X32818750Y-96225000I0J500000D01*
G01*
X128068750Y-83225000D02*
G75*
G02*
X128568750Y-82725000I500000J0D01*
G01*
X55412500Y-96225000D02*
X55412500Y-83225000D01*
X56631250Y-83225000D02*
X56631250Y-96225000D01*
X45225000Y-20525000D02*
G75*
G02*
X44725000Y-20025000I0J500000D01*
G01*
X64275000Y-20525000D02*
G75*
G02*
X63775000Y-20025000I0J500000D01*
G01*
X25675000Y-7025000D02*
X25675000Y-20025000D01*
X58725000Y-20025000D02*
G75*
G02*
X58225000Y-20525000I-500000J0D01*
G01*
X63775000Y-7025000D02*
X63775000Y-20025000D01*
X58225000Y-6525000D02*
X45225000Y-6525000D01*
X77775000Y-20025000D02*
X77775000Y-7025000D01*
X77275000Y-6525000D02*
G75*
G02*
X77775000Y-7025000I0J-500000D01*
G01*
X83325000Y-20525000D02*
X96325000Y-20525000D01*
X44725000Y-7025000D02*
X44725000Y-20025000D01*
X96325000Y-6525000D02*
G75*
G02*
X96825000Y-7025000I0J-500000D01*
G01*
X77775000Y-20025000D02*
G75*
G02*
X77275000Y-20525000I-500000J0D01*
G01*
X83325000Y-20525000D02*
G75*
G02*
X82825000Y-20025000I0J500000D01*
G01*
X96825000Y-20025000D02*
G75*
G02*
X96325000Y-20525000I-500000J0D01*
G01*
X58725000Y-20025000D02*
X58725000Y-7025000D01*
X77275000Y-6525000D02*
X64275000Y-6525000D01*
X44725000Y-7025000D02*
G75*
G02*
X45225000Y-6525000I500000J0D01*
G01*
X82825000Y-7025000D02*
G75*
G02*
X83325000Y-6525000I500000J0D01*
G01*
X64275000Y-20525000D02*
X77275000Y-20525000D01*
X63775000Y-7025000D02*
G75*
G02*
X64275000Y-6525000I500000J0D01*
G01*
X45225000Y-20525000D02*
X58225000Y-20525000D01*
X58225000Y-6525000D02*
G75*
G02*
X58725000Y-7025000I0J-500000D01*
G01*
X39675000Y-20025000D02*
X39675000Y-7025000D01*
X254775000Y-20525000D02*
X255362000Y-20525000D01*
X273825000Y-20525000D02*
X277300000Y-20525000D01*
X267775000Y-6525000D02*
X264300000Y-6525000D01*
X277300000Y-6525000D02*
X273825000Y-6525000D01*
X255862000Y-21525000D02*
X261862000Y-21525000D01*
X262362000Y-21025000D02*
G75*
G02*
X261862000Y-21525000I-500000J0D01*
G01*
X267775000Y-20525000D02*
X273825000Y-20525000D01*
X273825000Y-6525000D02*
X267775000Y-6525000D01*
X262362000Y-20525000D02*
X264300000Y-20525000D01*
X279238000Y-20525000D02*
X279238000Y-21025000D01*
X286238000Y-21025000D02*
X286238000Y-20525000D01*
X285738000Y-6525000D02*
X279738000Y-6525000D01*
X262362000Y-21025000D02*
X262362000Y-20525000D01*
X279738000Y-21525000D02*
X285738000Y-21525000D01*
X264300000Y-20525000D02*
X267775000Y-20525000D01*
X286238000Y-21025000D02*
G75*
G02*
X285738000Y-21525000I-500000J0D01*
G01*
X279738000Y-21525000D02*
G75*
G02*
X279238000Y-21025000I0J500000D01*
G01*
X255862000Y-21525000D02*
G75*
G02*
X255362000Y-21025000I0J500000D01*
G01*
X264300000Y-6525000D02*
X261862000Y-6525000D01*
X261862000Y-6525000D02*
X255862000Y-6525000D01*
X255362000Y-20525000D02*
X255362000Y-21025000D01*
X254275000Y-7025000D02*
X254275000Y-20025000D01*
X255862000Y-6525000D02*
X254775000Y-6525000D01*
X159025000Y-7025000D02*
G75*
G02*
X159525000Y-6525000I500000J0D01*
G01*
X173025000Y-20025000D02*
X173025000Y-7025000D01*
X159525000Y-20525000D02*
X172525000Y-20525000D01*
X210625000Y-6525000D02*
G75*
G02*
X211125000Y-7025000I0J-500000D01*
G01*
X211125000Y-20025000D02*
G75*
G02*
X210625000Y-20525000I-500000J0D01*
G01*
X197625000Y-20525000D02*
G75*
G02*
X197125000Y-20025000I0J500000D01*
G01*
X178075000Y-7025000D02*
X178075000Y-20025000D01*
X192075000Y-20025000D02*
X192075000Y-7025000D01*
X191575000Y-6525000D02*
X178575000Y-6525000D01*
X178575000Y-20525000D02*
X191575000Y-20525000D01*
X178075000Y-7025000D02*
G75*
G02*
X178575000Y-6525000I500000J0D01*
G01*
X153975000Y-20025000D02*
X153975000Y-7025000D01*
X191575000Y-6525000D02*
G75*
G02*
X192075000Y-7025000I0J-500000D01*
G01*
X192075000Y-20025000D02*
G75*
G02*
X191575000Y-20525000I-500000J0D01*
G01*
X139975000Y-7025000D02*
X139975000Y-20025000D01*
X172525000Y-6525000D02*
X159525000Y-6525000D01*
X178575000Y-20525000D02*
G75*
G02*
X178075000Y-20025000I0J500000D01*
G01*
X172525000Y-6525000D02*
G75*
G02*
X173025000Y-7025000I0J-500000D01*
G01*
X173025000Y-20025000D02*
G75*
G02*
X172525000Y-20525000I-500000J0D01*
G01*
X159025000Y-7025000D02*
X159025000Y-20025000D01*
X159525000Y-20525000D02*
G75*
G02*
X159025000Y-20025000I0J500000D01*
G01*
X153475000Y-6525000D02*
X140475000Y-6525000D01*
X140475000Y-20525000D02*
X153475000Y-20525000D01*
X254275000Y-83225000D02*
G75*
G02*
X254775000Y-82725000I500000J0D01*
G01*
X267775000Y-82725000D02*
G75*
G02*
X268275000Y-83225000I0J-500000D01*
G01*
X248725000Y-96725000D02*
X249562500Y-96725000D01*
X248562500Y-82725000D02*
X243962500Y-82725000D01*
X196787500Y-96725000D02*
X197625000Y-96725000D01*
X250062500Y-96225000D02*
X250062500Y-83225000D01*
X229675000Y-96725000D02*
X235725000Y-96725000D01*
X196787500Y-96725000D02*
G75*
G02*
X196287500Y-96225000I0J500000D01*
G01*
X219987500Y-96725000D02*
X220987500Y-96725000D01*
X229675000Y-82725000D02*
X226362500Y-82725000D01*
X248725000Y-82725000D02*
X248562500Y-82725000D01*
X235725000Y-82725000D02*
X229675000Y-82725000D01*
X220987500Y-82725000D02*
X219987500Y-82725000D01*
X254275000Y-83225000D02*
X254275000Y-96225000D01*
X249562500Y-82725000D02*
X248725000Y-82725000D01*
X226362500Y-82725000D02*
X225362500Y-82725000D01*
X250062500Y-96225000D02*
G75*
G02*
X249562500Y-96725000I-500000J0D01*
G01*
X215387500Y-96725000D02*
X219987500Y-96725000D01*
X226362500Y-96725000D02*
X229675000Y-96725000D01*
X220987500Y-96725000D02*
X225362500Y-96725000D01*
X287325000Y-96225000D02*
X287325000Y-83225000D01*
X225362500Y-82725000D02*
X220987500Y-82725000D01*
X249562500Y-82725000D02*
G75*
G02*
X250062500Y-83225000I0J-500000D01*
G01*
X292875000Y-96725000D02*
G75*
G02*
X292375000Y-96225000I0J500000D01*
G01*
X292375000Y-83225000D02*
X292375000Y-96225000D01*
X306371675Y-96290956D02*
X306375000Y-83225000D01*
X305875000Y-82725000D02*
X292875000Y-82725000D01*
X292875000Y-96725000D02*
X305700000Y-96725000D01*
X292375000Y-83225000D02*
G75*
G02*
X292875000Y-82725000I500000J0D01*
G01*
X305875000Y-82725000D02*
G75*
G02*
X306375000Y-83225000I0J-500000D01*
G01*
X273325000Y-83225000D02*
X273325000Y-96225000D01*
X243962500Y-96725000D02*
X248562500Y-96725000D01*
X196287500Y-83225000D02*
G75*
G02*
X196787500Y-82725000I500000J0D01*
G01*
X248562500Y-96725000D02*
X248725000Y-96725000D01*
X286825000Y-82725000D02*
X273825000Y-82725000D01*
X273825000Y-96725000D02*
X286825000Y-96725000D01*
X273325000Y-83225000D02*
G75*
G02*
X273825000Y-82725000I500000J0D01*
G01*
X286825000Y-82725000D02*
G75*
G02*
X287325000Y-83225000I0J-500000D01*
G01*
X254775000Y-96725000D02*
X267775000Y-96725000D01*
X235725000Y-96725000D02*
X243962500Y-96725000D01*
X219987500Y-82725000D02*
X215387500Y-82725000D01*
X287325000Y-96225000D02*
G75*
G02*
X286825000Y-96725000I-500000J0D01*
G01*
X273825000Y-96725000D02*
G75*
G02*
X273325000Y-96225000I0J500000D01*
G01*
X268275000Y-96225000D02*
X268275000Y-83225000D01*
X268275000Y-96225000D02*
G75*
G02*
X267775000Y-96725000I-500000J0D01*
G01*
X254775000Y-96725000D02*
G75*
G02*
X254275000Y-96225000I0J500000D01*
G01*
X196287500Y-83225000D02*
X196287500Y-96225000D01*
X197625000Y-82725000D02*
X196787500Y-82725000D01*
X267775000Y-82725000D02*
X254775000Y-82725000D01*
X243962500Y-82725000D02*
X235725000Y-82725000D01*
X225362500Y-96725000D02*
X226362500Y-96725000D01*
X306375000Y-77175000D02*
X306375000Y-64175000D01*
X30487500Y-82725000D02*
G75*
G02*
X30987500Y-83225000I0J-500000D01*
G01*
X22506250Y-96725000D02*
X24887500Y-96725000D01*
X25387500Y-96225000D02*
X25387500Y-83225000D01*
X25387500Y-96225000D02*
G75*
G02*
X24887500Y-96725000I-500000J0D01*
G01*
X24887500Y-82725000D02*
X22506250Y-82725000D01*
X22506250Y-82725000D02*
X11887500Y-82725000D01*
X24887500Y-82725000D02*
G75*
G02*
X25387500Y-83225000I0J-500000D01*
G01*
X9506250Y-96725000D02*
G75*
G02*
X9006250Y-96225000I0J500000D01*
G01*
X292375000Y-64175000D02*
X292375000Y-77175000D01*
X30487500Y-82725000D02*
X29487500Y-82725000D01*
X29487500Y-96725000D02*
X30487500Y-96725000D01*
X28987500Y-83225000D02*
G75*
G02*
X29487500Y-82725000I500000J0D01*
G01*
X30987500Y-96225000D02*
G75*
G02*
X30487500Y-96725000I-500000J0D01*
G01*
X29487500Y-96725000D02*
G75*
G02*
X28987500Y-96225000I0J500000D01*
G01*
X9006250Y-83225000D02*
X9006250Y-96225000D01*
X11887500Y-96725000D02*
X22506250Y-96725000D01*
X9006250Y-83225000D02*
G75*
G02*
X9506250Y-82725000I500000J0D01*
G01*
X11887500Y-82725000D02*
X9506250Y-82725000D01*
X9506250Y-96725000D02*
X11887500Y-96725000D01*
X292875000Y-77675000D02*
G75*
G02*
X292375000Y-77175000I0J500000D01*
G01*
X287325000Y-77175000D02*
X287325000Y-64175000D01*
X287325000Y-77175000D02*
G75*
G02*
X286825000Y-77675000I-500000J0D01*
G01*
X202387500Y-77675000D02*
G75*
G02*
X201887500Y-77175000I0J500000D01*
G01*
X158737500Y-77175000D02*
G75*
G02*
X158237500Y-77675000I-500000J0D01*
G01*
X196337500Y-63675000D02*
X183337500Y-63675000D01*
X286825000Y-63675000D02*
X273825000Y-63675000D01*
X273825000Y-77675000D02*
G75*
G02*
X273325000Y-77175000I0J500000D01*
G01*
X247131250Y-64175000D02*
X247131250Y-77175000D01*
X220937500Y-64175000D02*
G75*
G02*
X221437500Y-63675000I500000J0D01*
G01*
X177287500Y-63675000D02*
X164287500Y-63675000D01*
X202387500Y-77675000D02*
X215387500Y-77675000D01*
X201887500Y-64175000D02*
G75*
G02*
X202387500Y-63675000I500000J0D01*
G01*
X145237500Y-77675000D02*
X158237500Y-77675000D01*
X183337500Y-77675000D02*
X196337500Y-77675000D01*
X144737500Y-64175000D02*
G75*
G02*
X145237500Y-63675000I500000J0D01*
G01*
X144737500Y-64175000D02*
X144737500Y-77175000D01*
X215387500Y-63675000D02*
G75*
G02*
X215887500Y-64175000I0J-500000D01*
G01*
X177787500Y-77175000D02*
X177787500Y-64175000D01*
X158237500Y-63675000D02*
G75*
G02*
X158737500Y-64175000I0J-500000D01*
G01*
X247131250Y-64175000D02*
G75*
G02*
X247631250Y-63675000I500000J0D01*
G01*
X215887500Y-77175000D02*
G75*
G02*
X215387500Y-77675000I-500000J0D01*
G01*
X183337500Y-77675000D02*
G75*
G02*
X182837500Y-77175000I0J500000D01*
G01*
X177287500Y-63675000D02*
G75*
G02*
X177787500Y-64175000I0J-500000D01*
G01*
X260631250Y-63675000D02*
G75*
G02*
X261131250Y-64175000I0J-500000D01*
G01*
X164287500Y-77675000D02*
X177287500Y-77675000D01*
X234437500Y-63675000D02*
X221437500Y-63675000D01*
X158737500Y-77175000D02*
X158737500Y-64175000D01*
X196337500Y-63675000D02*
G75*
G02*
X196837500Y-64175000I0J-500000D01*
G01*
X163787500Y-64175000D02*
G75*
G02*
X164287500Y-63675000I500000J0D01*
G01*
X163787500Y-64175000D02*
X163787500Y-77175000D01*
X221437500Y-77675000D02*
G75*
G02*
X220937500Y-77175000I0J500000D01*
G01*
X261131250Y-77175000D02*
X261131250Y-64175000D01*
X196837500Y-77175000D02*
G75*
G02*
X196337500Y-77675000I-500000J0D01*
G01*
X247631250Y-77675000D02*
X260631250Y-77675000D01*
X221437500Y-77675000D02*
X234437500Y-77675000D01*
X261131250Y-77175000D02*
G75*
G02*
X260631250Y-77675000I-500000J0D01*
G01*
X182837500Y-64175000D02*
X182837500Y-77175000D01*
X177787500Y-77175000D02*
G75*
G02*
X177287500Y-77675000I-500000J0D01*
G01*
X158237500Y-63675000D02*
X145237500Y-63675000D01*
X260631250Y-63675000D02*
X247631250Y-63675000D01*
X215387500Y-63675000D02*
X202387500Y-63675000D01*
X220937500Y-64175000D02*
X220937500Y-77175000D01*
X215887500Y-77175000D02*
X215887500Y-64175000D01*
X196837500Y-77175000D02*
X196837500Y-64175000D01*
X164287500Y-77675000D02*
G75*
G02*
X163787500Y-77175000I0J500000D01*
G01*
X182837500Y-64175000D02*
G75*
G02*
X183337500Y-63675000I500000J0D01*
G01*
X201887500Y-64175000D02*
X201887500Y-77175000D01*
X273825000Y-77675000D02*
X286825000Y-77675000D01*
X247631250Y-77675000D02*
G75*
G02*
X247131250Y-77175000I0J500000D01*
G01*
X139687500Y-77175000D02*
X139687500Y-64175000D01*
X145237500Y-77675000D02*
G75*
G02*
X144737500Y-77175000I0J500000D01*
G01*
X234437500Y-63675000D02*
G75*
G02*
X234937500Y-64175000I0J-500000D01*
G01*
X234937500Y-77175000D02*
X234937500Y-64175000D01*
X234937500Y-77175000D02*
G75*
G02*
X234437500Y-77675000I-500000J0D01*
G01*
X305875000Y-63675000D02*
X292875000Y-63675000D01*
X286825000Y-63675000D02*
G75*
G02*
X287325000Y-64175000I0J-500000D01*
G01*
X273325000Y-64175000D02*
X273325000Y-77175000D01*
X125687500Y-64175000D02*
X125687500Y-77175000D01*
X292875000Y-77675000D02*
X305875000Y-77675000D01*
X292375000Y-64175000D02*
G75*
G02*
X292875000Y-63675000I500000J0D01*
G01*
X305875000Y-63675000D02*
G75*
G02*
X306375000Y-64175000I0J-500000D01*
G01*
X306375000Y-77175000D02*
G75*
G02*
X305875000Y-77675000I-500000J0D01*
G01*
X273325000Y-64175000D02*
G75*
G02*
X273825000Y-63675000I500000J0D01*
G01*
X20624999Y-20025000D02*
X20624999Y-7025000D01*
X20124999Y-6525000D02*
G75*
G02*
X20624999Y-7025000I0J-500000D01*
G01*
X20624999Y-20025000D02*
G75*
G02*
X20124999Y-20525000I-500000J0D01*
G01*
X26175000Y-20525000D02*
X39175000Y-20525000D01*
X39175000Y-6525000D02*
X26175000Y-6525000D01*
X25675000Y-7025000D02*
G75*
G02*
X26175000Y-6525000I500000J0D01*
G01*
X39175000Y-6525000D02*
G75*
G02*
X39675000Y-7025000I0J-500000D01*
G01*
X39675000Y-20025000D02*
G75*
G02*
X39175000Y-20525000I-500000J0D01*
G01*
X26175000Y-20525000D02*
G75*
G02*
X25675000Y-20025000I0J500000D01*
G01*
X20124999Y-6525000D02*
X7125000Y-6525000D01*
X6625000Y-7025000D02*
G75*
G02*
X7125000Y-6525000I500000J0D01*
G01*
X6625000Y-7025000D02*
X6625000Y-20025000D01*
X7125000Y-20525000D02*
X20124999Y-20525000D01*
X7125000Y-20525000D02*
G75*
G02*
X6625000Y-20025000I0J500000D01*
G01*
X292375000Y-7025000D02*
G75*
G02*
X292875000Y-6525000I500000J0D01*
G01*
X286825000Y-6525000D02*
G75*
G02*
X287325000Y-7025000I0J-500000D01*
G01*
X25387500Y-39075000D02*
X25387500Y-26075000D01*
X24887500Y-25575000D02*
X11887500Y-25575000D01*
X11887500Y-39575000D02*
X24887500Y-39575000D01*
X25387500Y-39075000D02*
G75*
G02*
X24887500Y-39575000I-500000J0D01*
G01*
X11387500Y-26075000D02*
G75*
G02*
X11887500Y-25575000I500000J0D01*
G01*
X287325000Y-20025000D02*
X287325000Y-7025000D01*
X286825000Y-6525000D02*
X285738000Y-6525000D01*
X292875000Y-20525000D02*
G75*
G02*
X292375000Y-20025000I0J500000D01*
G01*
X24887500Y-25575000D02*
G75*
G02*
X25387500Y-26075000I0J-500000D01*
G01*
X11887500Y-39575000D02*
G75*
G02*
X11387500Y-39075000I0J500000D01*
G01*
X306375000Y-20025000D02*
G75*
G02*
X305875000Y-20525000I-500000J0D01*
G01*
X306375000Y-20025000D02*
X306375000Y-7025000D01*
X292875000Y-20525000D02*
X305875000Y-20525000D01*
X279738000Y-6525000D02*
X277300000Y-6525000D01*
X286238000Y-20525000D02*
X286825000Y-20525000D01*
X277300000Y-20525000D02*
X279238000Y-20525000D01*
X292375000Y-7025000D02*
X292375000Y-20025000D01*
X287325000Y-20025000D02*
G75*
G02*
X286825000Y-20525000I-500000J0D01*
G01*
X305875000Y-6525000D02*
G75*
G02*
X306375000Y-7025000I0J-500000D01*
G01*
X11387500Y-26075000D02*
X11387500Y-39075000D01*
X305875000Y-6525000D02*
X292875000Y-6525000D01*
X313000000Y-102000000D02*
G75*
G02*
X311000000Y-104000000I-2000000J0D01*
G01*
X311000000Y0D02*
G75*
G02*
X313000000Y-2000000I0J-2000000D01*
G01*
X2000000Y-104000000D02*
G75*
G02*
X0Y-102000000I0J2000000D01*
G01*
X0Y-2000000D02*
G75*
G02*
X2000000Y0I2000000J0D01*
G01*
X313000000Y-2000000D02*
X313000000Y-102000000D01*
X2000000Y-104000000D02*
X311000000Y-104000000D01*
X0Y-2000000D02*
X0Y-102000000D01*
X2000000Y0D02*
X311000000Y0D01*
M02*
