%TF.GenerationSoftware,KiCad,Pcbnew,(5.1.10-6-gecec324121)-1*%
%TF.CreationDate,2021-07-06T17:39:25+03:00*%
%TF.ProjectId,switchplate,73776974-6368-4706-9c61-74652e6b6963,rev?*%
%TF.SameCoordinates,Original*%
%TF.FileFunction,Legend,Top*%
%TF.FilePolarity,Positive*%
%FSLAX46Y46*%
G04 Gerber Fmt 4.6, Leading zero omitted, Abs format (unit mm)*
G04 Created by KiCad (PCBNEW (5.1.10-6-gecec324121)-1) date 2021-07-06 17:39:25*
%MOMM*%
%LPD*%
G01*
G04 APERTURE LIST*
%ADD10C,0.010000*%
G04 APERTURE END LIST*
%LPC*%
D10*
%TO.C,G\u002A\u002A\u002A*%
G36*
X109577878Y-87539425D02*
G01*
X109576716Y-87678149D01*
X109575388Y-87794002D01*
X109573531Y-87889515D01*
X109570784Y-87967216D01*
X109566785Y-88029633D01*
X109561173Y-88079297D01*
X109553585Y-88118735D01*
X109543661Y-88150477D01*
X109531038Y-88177053D01*
X109515355Y-88200990D01*
X109496250Y-88224819D01*
X109476637Y-88247346D01*
X109406430Y-88310150D01*
X109321579Y-88354902D01*
X109220577Y-88382145D01*
X109101915Y-88392427D01*
X109075349Y-88392490D01*
X109014191Y-88389561D01*
X108950421Y-88382900D01*
X108901350Y-88374634D01*
X108812490Y-88349320D01*
X108730364Y-88315333D01*
X108663757Y-88276386D01*
X108657053Y-88271425D01*
X108615928Y-88240058D01*
X108649202Y-88189779D01*
X108669447Y-88160346D01*
X108683374Y-88142246D01*
X108686500Y-88139500D01*
X108698420Y-88145906D01*
X108724580Y-88162319D01*
X108745138Y-88175786D01*
X108803660Y-88210960D01*
X108859808Y-88235230D01*
X108920521Y-88250350D01*
X108992736Y-88258071D01*
X109079150Y-88260150D01*
X109147017Y-88259571D01*
X109195418Y-88257304D01*
X109230270Y-88252549D01*
X109257492Y-88244509D01*
X109282350Y-88232738D01*
X109346324Y-88189478D01*
X109392393Y-88136684D01*
X109422313Y-88070831D01*
X109437841Y-87988394D01*
X109441100Y-87914175D01*
X109441100Y-87806344D01*
X109388649Y-87853730D01*
X109346049Y-87886671D01*
X109294403Y-87919144D01*
X109264824Y-87934583D01*
X109229713Y-87949772D01*
X109197478Y-87959561D01*
X109160860Y-87965103D01*
X109112600Y-87967547D01*
X109053750Y-87968050D01*
X108990217Y-87967523D01*
X108944579Y-87965060D01*
X108909334Y-87959333D01*
X108876983Y-87949017D01*
X108840028Y-87932786D01*
X108831500Y-87928749D01*
X108736011Y-87870667D01*
X108660501Y-87796906D01*
X108605056Y-87707584D01*
X108569768Y-87602822D01*
X108563316Y-87569555D01*
X108558136Y-87480845D01*
X108697789Y-87480845D01*
X108702952Y-87565229D01*
X108724995Y-87640247D01*
X108727492Y-87645577D01*
X108778561Y-87723749D01*
X108845718Y-87784721D01*
X108925318Y-87827290D01*
X109013718Y-87850252D01*
X109107276Y-87852404D01*
X109202347Y-87832542D01*
X109244250Y-87816282D01*
X109324664Y-87767770D01*
X109385388Y-87703494D01*
X109425757Y-87624519D01*
X109445107Y-87531910D01*
X109446813Y-87491800D01*
X109438509Y-87401037D01*
X109412127Y-87324379D01*
X109365458Y-87256098D01*
X109349092Y-87238355D01*
X109279090Y-87182998D01*
X109198898Y-87147102D01*
X109112774Y-87130107D01*
X109024975Y-87131455D01*
X108939760Y-87150587D01*
X108861386Y-87186945D01*
X108794111Y-87239968D01*
X108742193Y-87309100D01*
X108737085Y-87318670D01*
X108709251Y-87395768D01*
X108697789Y-87480845D01*
X108558136Y-87480845D01*
X108556788Y-87457775D01*
X108574016Y-87352344D01*
X108613680Y-87255792D01*
X108674463Y-87170651D01*
X108755045Y-87099452D01*
X108831500Y-87054887D01*
X108870248Y-87037311D01*
X108902894Y-87025918D01*
X108936935Y-87019380D01*
X108979869Y-87016371D01*
X109039191Y-87015564D01*
X109053750Y-87015550D01*
X109117981Y-87016146D01*
X109164322Y-87018771D01*
X109200272Y-87024679D01*
X109233328Y-87035125D01*
X109270989Y-87051363D01*
X109272792Y-87052194D01*
X109331872Y-87085639D01*
X109385272Y-87126610D01*
X109402967Y-87143986D01*
X109453800Y-87199132D01*
X109453800Y-87009200D01*
X109582088Y-87009200D01*
X109577878Y-87539425D01*
G37*
X109577878Y-87539425D02*
X109576716Y-87678149D01*
X109575388Y-87794002D01*
X109573531Y-87889515D01*
X109570784Y-87967216D01*
X109566785Y-88029633D01*
X109561173Y-88079297D01*
X109553585Y-88118735D01*
X109543661Y-88150477D01*
X109531038Y-88177053D01*
X109515355Y-88200990D01*
X109496250Y-88224819D01*
X109476637Y-88247346D01*
X109406430Y-88310150D01*
X109321579Y-88354902D01*
X109220577Y-88382145D01*
X109101915Y-88392427D01*
X109075349Y-88392490D01*
X109014191Y-88389561D01*
X108950421Y-88382900D01*
X108901350Y-88374634D01*
X108812490Y-88349320D01*
X108730364Y-88315333D01*
X108663757Y-88276386D01*
X108657053Y-88271425D01*
X108615928Y-88240058D01*
X108649202Y-88189779D01*
X108669447Y-88160346D01*
X108683374Y-88142246D01*
X108686500Y-88139500D01*
X108698420Y-88145906D01*
X108724580Y-88162319D01*
X108745138Y-88175786D01*
X108803660Y-88210960D01*
X108859808Y-88235230D01*
X108920521Y-88250350D01*
X108992736Y-88258071D01*
X109079150Y-88260150D01*
X109147017Y-88259571D01*
X109195418Y-88257304D01*
X109230270Y-88252549D01*
X109257492Y-88244509D01*
X109282350Y-88232738D01*
X109346324Y-88189478D01*
X109392393Y-88136684D01*
X109422313Y-88070831D01*
X109437841Y-87988394D01*
X109441100Y-87914175D01*
X109441100Y-87806344D01*
X109388649Y-87853730D01*
X109346049Y-87886671D01*
X109294403Y-87919144D01*
X109264824Y-87934583D01*
X109229713Y-87949772D01*
X109197478Y-87959561D01*
X109160860Y-87965103D01*
X109112600Y-87967547D01*
X109053750Y-87968050D01*
X108990217Y-87967523D01*
X108944579Y-87965060D01*
X108909334Y-87959333D01*
X108876983Y-87949017D01*
X108840028Y-87932786D01*
X108831500Y-87928749D01*
X108736011Y-87870667D01*
X108660501Y-87796906D01*
X108605056Y-87707584D01*
X108569768Y-87602822D01*
X108563316Y-87569555D01*
X108558136Y-87480845D01*
X108697789Y-87480845D01*
X108702952Y-87565229D01*
X108724995Y-87640247D01*
X108727492Y-87645577D01*
X108778561Y-87723749D01*
X108845718Y-87784721D01*
X108925318Y-87827290D01*
X109013718Y-87850252D01*
X109107276Y-87852404D01*
X109202347Y-87832542D01*
X109244250Y-87816282D01*
X109324664Y-87767770D01*
X109385388Y-87703494D01*
X109425757Y-87624519D01*
X109445107Y-87531910D01*
X109446813Y-87491800D01*
X109438509Y-87401037D01*
X109412127Y-87324379D01*
X109365458Y-87256098D01*
X109349092Y-87238355D01*
X109279090Y-87182998D01*
X109198898Y-87147102D01*
X109112774Y-87130107D01*
X109024975Y-87131455D01*
X108939760Y-87150587D01*
X108861386Y-87186945D01*
X108794111Y-87239968D01*
X108742193Y-87309100D01*
X108737085Y-87318670D01*
X108709251Y-87395768D01*
X108697789Y-87480845D01*
X108558136Y-87480845D01*
X108556788Y-87457775D01*
X108574016Y-87352344D01*
X108613680Y-87255792D01*
X108674463Y-87170651D01*
X108755045Y-87099452D01*
X108831500Y-87054887D01*
X108870248Y-87037311D01*
X108902894Y-87025918D01*
X108936935Y-87019380D01*
X108979869Y-87016371D01*
X109039191Y-87015564D01*
X109053750Y-87015550D01*
X109117981Y-87016146D01*
X109164322Y-87018771D01*
X109200272Y-87024679D01*
X109233328Y-87035125D01*
X109270989Y-87051363D01*
X109272792Y-87052194D01*
X109331872Y-87085639D01*
X109385272Y-87126610D01*
X109402967Y-87143986D01*
X109453800Y-87199132D01*
X109453800Y-87009200D01*
X109582088Y-87009200D01*
X109577878Y-87539425D01*
G36*
X110963332Y-87016440D02*
G01*
X111012589Y-87018612D01*
X111049580Y-87023516D01*
X111080861Y-87032040D01*
X111112991Y-87045077D01*
X111114877Y-87045926D01*
X111165116Y-87075058D01*
X111211669Y-87112597D01*
X111226288Y-87127921D01*
X111248491Y-87155678D01*
X111266296Y-87183634D01*
X111280183Y-87214900D01*
X111290629Y-87252586D01*
X111298113Y-87299803D01*
X111303114Y-87359661D01*
X111306109Y-87435270D01*
X111307577Y-87529741D01*
X111307997Y-87646184D01*
X111308000Y-87659205D01*
X111308000Y-88012500D01*
X111181000Y-88012500D01*
X111181000Y-87871953D01*
X111138390Y-87914562D01*
X111077395Y-87963789D01*
X111006953Y-87996828D01*
X110922003Y-88015594D01*
X110857150Y-88021023D01*
X110790392Y-88022225D01*
X110739604Y-88018404D01*
X110695683Y-88008611D01*
X110676145Y-88002149D01*
X110604376Y-87969473D01*
X110550940Y-87926965D01*
X110509060Y-87868603D01*
X110494782Y-87841050D01*
X110473024Y-87768040D01*
X110473327Y-87749578D01*
X110612371Y-87749578D01*
X110612770Y-87753325D01*
X110630840Y-87812714D01*
X110667592Y-87861475D01*
X110718027Y-87893448D01*
X110729672Y-87897390D01*
X110775186Y-87905369D01*
X110834894Y-87909040D01*
X110897952Y-87908364D01*
X110953515Y-87903303D01*
X110978325Y-87898263D01*
X111043307Y-87868864D01*
X111102157Y-87821589D01*
X111139647Y-87773861D01*
X111156902Y-87737845D01*
X111165730Y-87696464D01*
X111168234Y-87639975D01*
X111168300Y-87553201D01*
X110949225Y-87557425D01*
X110868532Y-87559217D01*
X110808888Y-87561377D01*
X110765944Y-87564445D01*
X110735350Y-87568962D01*
X110712755Y-87575467D01*
X110693810Y-87584500D01*
X110684019Y-87590337D01*
X110638788Y-87630789D01*
X110615157Y-87683295D01*
X110612371Y-87749578D01*
X110473327Y-87749578D01*
X110474266Y-87692498D01*
X110497339Y-87619701D01*
X110541074Y-87554929D01*
X110562877Y-87533511D01*
X110598389Y-87506490D01*
X110637920Y-87486046D01*
X110685448Y-87471370D01*
X110744949Y-87461650D01*
X110820401Y-87456078D01*
X110915781Y-87453843D01*
X110954705Y-87453700D01*
X111168300Y-87453700D01*
X111168300Y-87381509D01*
X111159259Y-87305848D01*
X111133778Y-87240268D01*
X111094316Y-87190142D01*
X111073612Y-87174647D01*
X110996494Y-87141437D01*
X110908015Y-87128425D01*
X110812002Y-87135448D01*
X110712281Y-87162344D01*
X110642255Y-87192941D01*
X110600639Y-87213641D01*
X110569113Y-87228395D01*
X110553243Y-87234626D01*
X110552385Y-87234572D01*
X110545254Y-87222808D01*
X110529671Y-87196941D01*
X110522287Y-87184663D01*
X110494164Y-87137877D01*
X110551897Y-87104043D01*
X110618865Y-87067339D01*
X110677685Y-87042287D01*
X110736516Y-87026799D01*
X110803517Y-87018784D01*
X110886849Y-87016152D01*
X110895250Y-87016109D01*
X110963332Y-87016440D01*
G37*
X110963332Y-87016440D02*
X111012589Y-87018612D01*
X111049580Y-87023516D01*
X111080861Y-87032040D01*
X111112991Y-87045077D01*
X111114877Y-87045926D01*
X111165116Y-87075058D01*
X111211669Y-87112597D01*
X111226288Y-87127921D01*
X111248491Y-87155678D01*
X111266296Y-87183634D01*
X111280183Y-87214900D01*
X111290629Y-87252586D01*
X111298113Y-87299803D01*
X111303114Y-87359661D01*
X111306109Y-87435270D01*
X111307577Y-87529741D01*
X111307997Y-87646184D01*
X111308000Y-87659205D01*
X111308000Y-88012500D01*
X111181000Y-88012500D01*
X111181000Y-87871953D01*
X111138390Y-87914562D01*
X111077395Y-87963789D01*
X111006953Y-87996828D01*
X110922003Y-88015594D01*
X110857150Y-88021023D01*
X110790392Y-88022225D01*
X110739604Y-88018404D01*
X110695683Y-88008611D01*
X110676145Y-88002149D01*
X110604376Y-87969473D01*
X110550940Y-87926965D01*
X110509060Y-87868603D01*
X110494782Y-87841050D01*
X110473024Y-87768040D01*
X110473327Y-87749578D01*
X110612371Y-87749578D01*
X110612770Y-87753325D01*
X110630840Y-87812714D01*
X110667592Y-87861475D01*
X110718027Y-87893448D01*
X110729672Y-87897390D01*
X110775186Y-87905369D01*
X110834894Y-87909040D01*
X110897952Y-87908364D01*
X110953515Y-87903303D01*
X110978325Y-87898263D01*
X111043307Y-87868864D01*
X111102157Y-87821589D01*
X111139647Y-87773861D01*
X111156902Y-87737845D01*
X111165730Y-87696464D01*
X111168234Y-87639975D01*
X111168300Y-87553201D01*
X110949225Y-87557425D01*
X110868532Y-87559217D01*
X110808888Y-87561377D01*
X110765944Y-87564445D01*
X110735350Y-87568962D01*
X110712755Y-87575467D01*
X110693810Y-87584500D01*
X110684019Y-87590337D01*
X110638788Y-87630789D01*
X110615157Y-87683295D01*
X110612371Y-87749578D01*
X110473327Y-87749578D01*
X110474266Y-87692498D01*
X110497339Y-87619701D01*
X110541074Y-87554929D01*
X110562877Y-87533511D01*
X110598389Y-87506490D01*
X110637920Y-87486046D01*
X110685448Y-87471370D01*
X110744949Y-87461650D01*
X110820401Y-87456078D01*
X110915781Y-87453843D01*
X110954705Y-87453700D01*
X111168300Y-87453700D01*
X111168300Y-87381509D01*
X111159259Y-87305848D01*
X111133778Y-87240268D01*
X111094316Y-87190142D01*
X111073612Y-87174647D01*
X110996494Y-87141437D01*
X110908015Y-87128425D01*
X110812002Y-87135448D01*
X110712281Y-87162344D01*
X110642255Y-87192941D01*
X110600639Y-87213641D01*
X110569113Y-87228395D01*
X110553243Y-87234626D01*
X110552385Y-87234572D01*
X110545254Y-87222808D01*
X110529671Y-87196941D01*
X110522287Y-87184663D01*
X110494164Y-87137877D01*
X110551897Y-87104043D01*
X110618865Y-87067339D01*
X110677685Y-87042287D01*
X110736516Y-87026799D01*
X110803517Y-87018784D01*
X110886849Y-87016152D01*
X110895250Y-87016109D01*
X110963332Y-87016440D01*
G36*
X113979402Y-86677916D02*
G01*
X114106141Y-86704897D01*
X114111525Y-86706525D01*
X114159505Y-86723692D01*
X114184731Y-86741470D01*
X114189526Y-86764496D01*
X114176215Y-86797402D01*
X114165941Y-86815027D01*
X114141078Y-86855804D01*
X114080264Y-86827842D01*
X114046687Y-86814466D01*
X114011666Y-86806084D01*
X113967959Y-86801660D01*
X113908328Y-86800163D01*
X113886100Y-86800130D01*
X113822118Y-86801027D01*
X113775819Y-86804274D01*
X113739509Y-86811127D01*
X113705496Y-86822845D01*
X113681020Y-86833644D01*
X113592300Y-86887952D01*
X113521478Y-86960132D01*
X113468721Y-87049872D01*
X113434193Y-87156859D01*
X113418061Y-87280780D01*
X113416790Y-87333050D01*
X113417004Y-87434650D01*
X113445125Y-87396550D01*
X113513042Y-87324896D01*
X113595347Y-87270961D01*
X113687876Y-87235119D01*
X113786461Y-87217743D01*
X113886938Y-87219205D01*
X113985140Y-87239879D01*
X114076901Y-87280138D01*
X114150460Y-87333358D01*
X114210582Y-87400074D01*
X114249291Y-87474675D01*
X114268451Y-87561559D01*
X114271339Y-87618800D01*
X114260065Y-87720557D01*
X114226715Y-87810530D01*
X114172432Y-87887228D01*
X114098361Y-87949164D01*
X114005644Y-87994848D01*
X113974643Y-88005079D01*
X113915321Y-88016762D01*
X113841867Y-88022739D01*
X113764950Y-88022792D01*
X113695240Y-88016700D01*
X113666973Y-88011411D01*
X113566390Y-87975470D01*
X113479756Y-87918907D01*
X113407668Y-87842711D01*
X113350721Y-87747868D01*
X113309513Y-87635366D01*
X113307773Y-87626327D01*
X113467278Y-87626327D01*
X113478529Y-87703212D01*
X113511046Y-87770509D01*
X113561926Y-87826443D01*
X113628265Y-87869238D01*
X113707161Y-87897117D01*
X113795711Y-87908306D01*
X113891012Y-87901028D01*
X113910231Y-87897285D01*
X113989428Y-87868502D01*
X114053578Y-87821440D01*
X114100546Y-87759694D01*
X114128198Y-87686860D01*
X114134398Y-87606530D01*
X114122601Y-87539707D01*
X114089146Y-87465961D01*
X114036768Y-87408944D01*
X113965927Y-87368972D01*
X113877083Y-87346359D01*
X113833691Y-87342064D01*
X113734128Y-87345595D01*
X113647325Y-87367643D01*
X113575285Y-87406656D01*
X113520008Y-87461080D01*
X113483498Y-87529363D01*
X113467756Y-87609951D01*
X113467278Y-87626327D01*
X113307773Y-87626327D01*
X113284641Y-87506190D01*
X113276687Y-87365943D01*
X113283009Y-87231127D01*
X113302399Y-87115084D01*
X113336048Y-87014136D01*
X113385150Y-86924605D01*
X113443676Y-86850596D01*
X113527461Y-86777270D01*
X113626015Y-86722673D01*
X113736250Y-86687470D01*
X113855075Y-86672329D01*
X113979402Y-86677916D01*
G37*
X113979402Y-86677916D02*
X114106141Y-86704897D01*
X114111525Y-86706525D01*
X114159505Y-86723692D01*
X114184731Y-86741470D01*
X114189526Y-86764496D01*
X114176215Y-86797402D01*
X114165941Y-86815027D01*
X114141078Y-86855804D01*
X114080264Y-86827842D01*
X114046687Y-86814466D01*
X114011666Y-86806084D01*
X113967959Y-86801660D01*
X113908328Y-86800163D01*
X113886100Y-86800130D01*
X113822118Y-86801027D01*
X113775819Y-86804274D01*
X113739509Y-86811127D01*
X113705496Y-86822845D01*
X113681020Y-86833644D01*
X113592300Y-86887952D01*
X113521478Y-86960132D01*
X113468721Y-87049872D01*
X113434193Y-87156859D01*
X113418061Y-87280780D01*
X113416790Y-87333050D01*
X113417004Y-87434650D01*
X113445125Y-87396550D01*
X113513042Y-87324896D01*
X113595347Y-87270961D01*
X113687876Y-87235119D01*
X113786461Y-87217743D01*
X113886938Y-87219205D01*
X113985140Y-87239879D01*
X114076901Y-87280138D01*
X114150460Y-87333358D01*
X114210582Y-87400074D01*
X114249291Y-87474675D01*
X114268451Y-87561559D01*
X114271339Y-87618800D01*
X114260065Y-87720557D01*
X114226715Y-87810530D01*
X114172432Y-87887228D01*
X114098361Y-87949164D01*
X114005644Y-87994848D01*
X113974643Y-88005079D01*
X113915321Y-88016762D01*
X113841867Y-88022739D01*
X113764950Y-88022792D01*
X113695240Y-88016700D01*
X113666973Y-88011411D01*
X113566390Y-87975470D01*
X113479756Y-87918907D01*
X113407668Y-87842711D01*
X113350721Y-87747868D01*
X113309513Y-87635366D01*
X113307773Y-87626327D01*
X113467278Y-87626327D01*
X113478529Y-87703212D01*
X113511046Y-87770509D01*
X113561926Y-87826443D01*
X113628265Y-87869238D01*
X113707161Y-87897117D01*
X113795711Y-87908306D01*
X113891012Y-87901028D01*
X113910231Y-87897285D01*
X113989428Y-87868502D01*
X114053578Y-87821440D01*
X114100546Y-87759694D01*
X114128198Y-87686860D01*
X114134398Y-87606530D01*
X114122601Y-87539707D01*
X114089146Y-87465961D01*
X114036768Y-87408944D01*
X113965927Y-87368972D01*
X113877083Y-87346359D01*
X113833691Y-87342064D01*
X113734128Y-87345595D01*
X113647325Y-87367643D01*
X113575285Y-87406656D01*
X113520008Y-87461080D01*
X113483498Y-87529363D01*
X113467756Y-87609951D01*
X113467278Y-87626327D01*
X113307773Y-87626327D01*
X113284641Y-87506190D01*
X113276687Y-87365943D01*
X113283009Y-87231127D01*
X113302399Y-87115084D01*
X113336048Y-87014136D01*
X113385150Y-86924605D01*
X113443676Y-86850596D01*
X113527461Y-86777270D01*
X113626015Y-86722673D01*
X113736250Y-86687470D01*
X113855075Y-86672329D01*
X113979402Y-86677916D01*
G36*
X115854600Y-86806000D02*
G01*
X115249185Y-86806000D01*
X115233757Y-86967925D01*
X115227220Y-87034242D01*
X115220765Y-87095728D01*
X115215130Y-87145605D01*
X115211050Y-87177094D01*
X115210991Y-87177475D01*
X115203653Y-87225100D01*
X115318657Y-87225100D01*
X115464792Y-87230943D01*
X115589163Y-87248692D01*
X115692615Y-87278675D01*
X115775993Y-87321218D01*
X115840141Y-87376650D01*
X115885868Y-87445227D01*
X115919048Y-87539295D01*
X115928624Y-87633285D01*
X115916198Y-87723974D01*
X115883369Y-87808134D01*
X115831737Y-87882541D01*
X115762904Y-87943970D01*
X115678469Y-87989194D01*
X115605315Y-88010649D01*
X115527685Y-88020686D01*
X115438332Y-88023591D01*
X115348495Y-88019533D01*
X115269414Y-88008684D01*
X115254209Y-88005314D01*
X115171637Y-87979597D01*
X115093057Y-87944784D01*
X115027419Y-87905084D01*
X115007253Y-87889179D01*
X114966357Y-87853750D01*
X115030893Y-87747130D01*
X115092869Y-87791656D01*
X115181326Y-87841706D01*
X115282584Y-87876542D01*
X115389434Y-87894868D01*
X115494664Y-87895387D01*
X115581888Y-87879598D01*
X115655820Y-87847197D01*
X115714484Y-87799853D01*
X115756808Y-87741524D01*
X115781716Y-87676173D01*
X115788135Y-87607759D01*
X115774991Y-87540243D01*
X115741209Y-87477586D01*
X115702053Y-87436475D01*
X115668609Y-87412403D01*
X115629937Y-87393644D01*
X115582362Y-87379466D01*
X115522208Y-87369137D01*
X115445801Y-87361926D01*
X115349464Y-87357098D01*
X115295150Y-87355416D01*
X115059551Y-87349152D01*
X115094342Y-87017251D01*
X115103666Y-86928453D01*
X115112106Y-86848381D01*
X115119307Y-86780374D01*
X115124913Y-86727775D01*
X115128570Y-86693924D01*
X115129916Y-86682175D01*
X115142292Y-86681359D01*
X115176874Y-86680621D01*
X115230468Y-86679989D01*
X115299879Y-86679490D01*
X115381914Y-86679152D01*
X115473378Y-86679004D01*
X115492650Y-86679000D01*
X115854600Y-86679000D01*
X115854600Y-86806000D01*
G37*
X115854600Y-86806000D02*
X115249185Y-86806000D01*
X115233757Y-86967925D01*
X115227220Y-87034242D01*
X115220765Y-87095728D01*
X115215130Y-87145605D01*
X115211050Y-87177094D01*
X115210991Y-87177475D01*
X115203653Y-87225100D01*
X115318657Y-87225100D01*
X115464792Y-87230943D01*
X115589163Y-87248692D01*
X115692615Y-87278675D01*
X115775993Y-87321218D01*
X115840141Y-87376650D01*
X115885868Y-87445227D01*
X115919048Y-87539295D01*
X115928624Y-87633285D01*
X115916198Y-87723974D01*
X115883369Y-87808134D01*
X115831737Y-87882541D01*
X115762904Y-87943970D01*
X115678469Y-87989194D01*
X115605315Y-88010649D01*
X115527685Y-88020686D01*
X115438332Y-88023591D01*
X115348495Y-88019533D01*
X115269414Y-88008684D01*
X115254209Y-88005314D01*
X115171637Y-87979597D01*
X115093057Y-87944784D01*
X115027419Y-87905084D01*
X115007253Y-87889179D01*
X114966357Y-87853750D01*
X115030893Y-87747130D01*
X115092869Y-87791656D01*
X115181326Y-87841706D01*
X115282584Y-87876542D01*
X115389434Y-87894868D01*
X115494664Y-87895387D01*
X115581888Y-87879598D01*
X115655820Y-87847197D01*
X115714484Y-87799853D01*
X115756808Y-87741524D01*
X115781716Y-87676173D01*
X115788135Y-87607759D01*
X115774991Y-87540243D01*
X115741209Y-87477586D01*
X115702053Y-87436475D01*
X115668609Y-87412403D01*
X115629937Y-87393644D01*
X115582362Y-87379466D01*
X115522208Y-87369137D01*
X115445801Y-87361926D01*
X115349464Y-87357098D01*
X115295150Y-87355416D01*
X115059551Y-87349152D01*
X115094342Y-87017251D01*
X115103666Y-86928453D01*
X115112106Y-86848381D01*
X115119307Y-86780374D01*
X115124913Y-86727775D01*
X115128570Y-86693924D01*
X115129916Y-86682175D01*
X115142292Y-86681359D01*
X115176874Y-86680621D01*
X115230468Y-86679989D01*
X115299879Y-86679490D01*
X115381914Y-86679152D01*
X115473378Y-86679004D01*
X115492650Y-86679000D01*
X115854600Y-86679000D01*
X115854600Y-86806000D01*
G36*
X106029146Y-86685493D02*
G01*
X106107229Y-86686107D01*
X106167681Y-86687465D01*
X106214389Y-86689842D01*
X106251237Y-86693513D01*
X106282109Y-86698751D01*
X106310892Y-86705832D01*
X106339081Y-86714277D01*
X106437684Y-86757494D01*
X106520076Y-86818543D01*
X106584594Y-86894619D01*
X106629576Y-86982916D01*
X106653361Y-87080630D01*
X106654286Y-87184957D01*
X106646752Y-87233554D01*
X106614355Y-87334938D01*
X106562524Y-87420162D01*
X106491619Y-87488753D01*
X106417583Y-87533172D01*
X106355245Y-87562800D01*
X106441590Y-87682875D01*
X106486089Y-87745030D01*
X106534690Y-87813355D01*
X106579986Y-87877417D01*
X106601275Y-87907725D01*
X106674614Y-88012500D01*
X106594182Y-88011765D01*
X106513750Y-88011031D01*
X106367700Y-87802401D01*
X106221650Y-87593772D01*
X105758100Y-87593400D01*
X105758100Y-88012500D01*
X105605473Y-88012500D01*
X105608178Y-87466400D01*
X105758100Y-87466400D01*
X105990744Y-87466400D01*
X106090266Y-87465602D01*
X106167690Y-87463074D01*
X106226275Y-87458606D01*
X106269278Y-87451994D01*
X106286574Y-87447636D01*
X106351397Y-87418557D01*
X106412337Y-87373863D01*
X106461364Y-87320272D01*
X106483446Y-87282958D01*
X106499361Y-87228246D01*
X106506530Y-87159787D01*
X106504632Y-87087797D01*
X106493347Y-87022490D01*
X106491781Y-87017023D01*
X106464481Y-86962154D01*
X106419121Y-86909048D01*
X106362550Y-86864445D01*
X106309692Y-86837855D01*
X106280624Y-86829135D01*
X106244551Y-86822417D01*
X106197401Y-86817320D01*
X106135101Y-86813462D01*
X106053579Y-86810463D01*
X106002575Y-86809124D01*
X105758100Y-86803306D01*
X105758100Y-87466400D01*
X105608178Y-87466400D01*
X105608761Y-87348925D01*
X105612050Y-86685350D01*
X105929550Y-86685350D01*
X106029146Y-86685493D01*
G37*
X106029146Y-86685493D02*
X106107229Y-86686107D01*
X106167681Y-86687465D01*
X106214389Y-86689842D01*
X106251237Y-86693513D01*
X106282109Y-86698751D01*
X106310892Y-86705832D01*
X106339081Y-86714277D01*
X106437684Y-86757494D01*
X106520076Y-86818543D01*
X106584594Y-86894619D01*
X106629576Y-86982916D01*
X106653361Y-87080630D01*
X106654286Y-87184957D01*
X106646752Y-87233554D01*
X106614355Y-87334938D01*
X106562524Y-87420162D01*
X106491619Y-87488753D01*
X106417583Y-87533172D01*
X106355245Y-87562800D01*
X106441590Y-87682875D01*
X106486089Y-87745030D01*
X106534690Y-87813355D01*
X106579986Y-87877417D01*
X106601275Y-87907725D01*
X106674614Y-88012500D01*
X106594182Y-88011765D01*
X106513750Y-88011031D01*
X106367700Y-87802401D01*
X106221650Y-87593772D01*
X105758100Y-87593400D01*
X105758100Y-88012500D01*
X105605473Y-88012500D01*
X105608178Y-87466400D01*
X105758100Y-87466400D01*
X105990744Y-87466400D01*
X106090266Y-87465602D01*
X106167690Y-87463074D01*
X106226275Y-87458606D01*
X106269278Y-87451994D01*
X106286574Y-87447636D01*
X106351397Y-87418557D01*
X106412337Y-87373863D01*
X106461364Y-87320272D01*
X106483446Y-87282958D01*
X106499361Y-87228246D01*
X106506530Y-87159787D01*
X106504632Y-87087797D01*
X106493347Y-87022490D01*
X106491781Y-87017023D01*
X106464481Y-86962154D01*
X106419121Y-86909048D01*
X106362550Y-86864445D01*
X106309692Y-86837855D01*
X106280624Y-86829135D01*
X106244551Y-86822417D01*
X106197401Y-86817320D01*
X106135101Y-86813462D01*
X106053579Y-86810463D01*
X106002575Y-86809124D01*
X105758100Y-86803306D01*
X105758100Y-87466400D01*
X105608178Y-87466400D01*
X105608761Y-87348925D01*
X105612050Y-86685350D01*
X105929550Y-86685350D01*
X106029146Y-86685493D01*
G36*
X107688500Y-88012500D02*
G01*
X107548800Y-88012500D01*
X107548800Y-87009200D01*
X107688500Y-87009200D01*
X107688500Y-88012500D01*
G37*
X107688500Y-88012500D02*
X107548800Y-88012500D01*
X107548800Y-87009200D01*
X107688500Y-87009200D01*
X107688500Y-88012500D01*
G36*
X107680235Y-86623453D02*
G01*
X107712132Y-86662864D01*
X107722397Y-86703437D01*
X107712433Y-86740023D01*
X107687403Y-86769386D01*
X107652466Y-86788288D01*
X107612784Y-86793494D01*
X107573518Y-86781767D01*
X107551013Y-86763906D01*
X107527363Y-86722733D01*
X107527563Y-86678682D01*
X107551465Y-86637194D01*
X107554572Y-86633972D01*
X107595898Y-86607525D01*
X107639548Y-86604342D01*
X107680235Y-86623453D01*
G37*
X107680235Y-86623453D02*
X107712132Y-86662864D01*
X107722397Y-86703437D01*
X107712433Y-86740023D01*
X107687403Y-86769386D01*
X107652466Y-86788288D01*
X107612784Y-86793494D01*
X107573518Y-86781767D01*
X107551013Y-86763906D01*
X107527363Y-86722733D01*
X107527563Y-86678682D01*
X107551465Y-86637194D01*
X107554572Y-86633972D01*
X107595898Y-86607525D01*
X107639548Y-86604342D01*
X107680235Y-86623453D01*
G36*
X109017643Y-78127298D02*
G01*
X109028943Y-78151617D01*
X109024766Y-78191925D01*
X109020742Y-78205559D01*
X109017330Y-78216408D01*
X109014586Y-78227786D01*
X109012619Y-78241667D01*
X109011540Y-78260022D01*
X109011457Y-78284824D01*
X109012480Y-78318046D01*
X109014719Y-78361659D01*
X109018282Y-78417636D01*
X109023279Y-78487950D01*
X109029820Y-78574572D01*
X109038014Y-78679476D01*
X109047971Y-78804633D01*
X109059799Y-78952017D01*
X109067386Y-79046300D01*
X109081275Y-79218332D01*
X109093413Y-79366934D01*
X109104038Y-79493997D01*
X109113385Y-79601412D01*
X109121690Y-79691070D01*
X109129191Y-79764863D01*
X109136122Y-79824683D01*
X109142721Y-79872420D01*
X109149223Y-79909967D01*
X109155864Y-79939214D01*
X109162882Y-79962053D01*
X109170511Y-79980377D01*
X109178989Y-79996075D01*
X109187713Y-80009782D01*
X109210884Y-80048464D01*
X109219987Y-80076970D01*
X109217719Y-80104205D01*
X109217088Y-80106750D01*
X109214356Y-80130399D01*
X109212223Y-80175152D01*
X109210774Y-80236719D01*
X109210098Y-80310809D01*
X109210280Y-80393131D01*
X109210601Y-80426399D01*
X109213916Y-80707949D01*
X109257167Y-80753808D01*
X109286118Y-80789245D01*
X109305205Y-80826596D01*
X109315796Y-80871653D01*
X109319261Y-80930208D01*
X109317025Y-81007009D01*
X109314495Y-81065403D01*
X109314783Y-81104773D01*
X109318720Y-81131417D01*
X109327134Y-81151633D01*
X109338280Y-81168267D01*
X109355699Y-81194764D01*
X109358047Y-81212820D01*
X109346680Y-81233367D01*
X109346404Y-81233761D01*
X109338948Y-81249090D01*
X109333564Y-81273017D01*
X109329960Y-81309250D01*
X109327840Y-81361496D01*
X109326910Y-81433463D01*
X109326800Y-81480747D01*
X109326800Y-81699742D01*
X109377182Y-81777694D01*
X109419128Y-81850350D01*
X109451793Y-81922504D01*
X109472640Y-81987737D01*
X109479200Y-82035607D01*
X109475407Y-82073593D01*
X109465846Y-82120277D01*
X109460713Y-82138990D01*
X109442226Y-82200417D01*
X109486113Y-82248995D01*
X109514495Y-82282087D01*
X109526761Y-82305430D01*
X109524307Y-82327675D01*
X109508528Y-82357472D01*
X109504647Y-82363868D01*
X109495401Y-82381261D01*
X109488699Y-82401300D01*
X109484139Y-82428181D01*
X109481319Y-82466100D01*
X109479837Y-82519255D01*
X109479293Y-82591842D01*
X109479247Y-82629262D01*
X109479199Y-82853075D01*
X109562879Y-83022728D01*
X109646558Y-83192381D01*
X109637726Y-83402165D01*
X109628893Y-83611950D01*
X109668346Y-83661321D01*
X109691292Y-83692741D01*
X109705520Y-83717433D01*
X109707800Y-83725102D01*
X109700266Y-83742898D01*
X109681238Y-83771122D01*
X109670474Y-83784795D01*
X109633148Y-83830078D01*
X109640578Y-83970929D01*
X109648009Y-84111780D01*
X109738229Y-84118724D01*
X109771818Y-84120540D01*
X109827259Y-84122619D01*
X109901004Y-84124866D01*
X109989508Y-84127190D01*
X110089223Y-84129495D01*
X110196605Y-84131689D01*
X110300220Y-84133547D01*
X110771990Y-84141425D01*
X110779334Y-84010037D01*
X110782002Y-83958630D01*
X110785398Y-83887519D01*
X110789269Y-83802381D01*
X110793358Y-83708892D01*
X110797409Y-83612730D01*
X110799212Y-83568612D01*
X110803122Y-83482164D01*
X110807443Y-83404099D01*
X110811913Y-83338020D01*
X110816267Y-83287529D01*
X110820242Y-83256229D01*
X110822720Y-83247599D01*
X110840815Y-83239934D01*
X110875035Y-83232379D01*
X110899397Y-83228843D01*
X110928170Y-83225499D01*
X110947640Y-83220697D01*
X110959053Y-83210256D01*
X110963655Y-83189997D01*
X110962691Y-83155741D01*
X110957406Y-83103308D01*
X110951755Y-83053122D01*
X110945209Y-82970501D01*
X110946380Y-82902700D01*
X110952763Y-82853598D01*
X110979012Y-82751532D01*
X111020185Y-82645070D01*
X111072301Y-82542434D01*
X111131377Y-82451849D01*
X111169923Y-82405159D01*
X111218093Y-82352901D01*
X111230590Y-82188675D01*
X111236418Y-82106770D01*
X111242504Y-82012385D01*
X111248045Y-81918421D01*
X111251534Y-81852452D01*
X111254788Y-81783409D01*
X111256229Y-81734858D01*
X111255297Y-81701921D01*
X111251431Y-81679720D01*
X111244072Y-81663379D01*
X111232658Y-81648020D01*
X111227322Y-81641641D01*
X111194663Y-81602828D01*
X111232056Y-81567004D01*
X111260529Y-81531687D01*
X111285524Y-81487712D01*
X111290822Y-81475213D01*
X111299727Y-81449668D01*
X111304675Y-81426025D01*
X111305644Y-81398342D01*
X111302615Y-81360673D01*
X111295567Y-81307075D01*
X111290098Y-81269531D01*
X111279635Y-81188827D01*
X111276195Y-81126850D01*
X111280945Y-81077610D01*
X111295048Y-81035120D01*
X111319668Y-80993390D01*
X111351972Y-80951300D01*
X111401662Y-80890190D01*
X111437368Y-80844168D01*
X111461182Y-80808658D01*
X111475199Y-80779083D01*
X111481513Y-80750868D01*
X111482218Y-80719437D01*
X111479407Y-80680215D01*
X111478865Y-80673997D01*
X111475289Y-80619342D01*
X111476735Y-80580389D01*
X111484288Y-80547746D01*
X111497072Y-80516283D01*
X111510984Y-80479503D01*
X111519294Y-80439001D01*
X111523180Y-80386890D01*
X111523900Y-80336644D01*
X111522394Y-80280031D01*
X111518361Y-80229903D01*
X111512531Y-80193895D01*
X111509332Y-80183923D01*
X111503605Y-80148684D01*
X111519518Y-80123494D01*
X111553865Y-80113144D01*
X111556758Y-80113099D01*
X111588335Y-80122587D01*
X111603085Y-80149736D01*
X111600297Y-80192573D01*
X111593588Y-80215159D01*
X111584058Y-80255475D01*
X111577282Y-80309647D01*
X111574700Y-80366163D01*
X111574700Y-80366229D01*
X111575795Y-80418905D01*
X111580367Y-80454493D01*
X111590347Y-80481256D01*
X111607665Y-80507460D01*
X111607701Y-80507507D01*
X111622975Y-80529260D01*
X111632216Y-80549493D01*
X111636461Y-80574777D01*
X111636747Y-80611683D01*
X111634113Y-80666781D01*
X111633778Y-80672678D01*
X111626854Y-80794106D01*
X111704263Y-80888578D01*
X111741401Y-80936294D01*
X111774657Y-80983270D01*
X111798758Y-81021894D01*
X111804906Y-81033850D01*
X111822699Y-81096097D01*
X111827652Y-81170946D01*
X111819585Y-81248978D01*
X111809787Y-81289006D01*
X111798458Y-81334000D01*
X111791628Y-81375856D01*
X111790737Y-81390138D01*
X111798393Y-81424993D01*
X111818209Y-81469439D01*
X111845172Y-81514352D01*
X111874269Y-81550609D01*
X111883680Y-81559280D01*
X111902720Y-81588275D01*
X111899684Y-81620236D01*
X111889215Y-81635004D01*
X111883726Y-81653208D01*
X111879567Y-81693031D01*
X111876760Y-81750724D01*
X111875331Y-81822541D01*
X111875301Y-81904732D01*
X111876696Y-81993550D01*
X111879538Y-82085248D01*
X111883852Y-82176076D01*
X111885614Y-82205397D01*
X111893885Y-82335544D01*
X111963717Y-82446697D01*
X112024341Y-82547079D01*
X112070369Y-82633957D01*
X112103639Y-82713194D01*
X112125991Y-82790653D01*
X112139262Y-82872196D01*
X112145292Y-82963687D01*
X112146200Y-83028613D01*
X112146200Y-83195591D01*
X112199961Y-83206932D01*
X112234165Y-83216102D01*
X112251406Y-83229915D01*
X112259874Y-83256563D01*
X112262056Y-83269061D01*
X112264208Y-83293191D01*
X112266668Y-83339517D01*
X112269325Y-83404841D01*
X112272073Y-83485963D01*
X112274802Y-83579684D01*
X112277405Y-83682803D01*
X112279773Y-83792122D01*
X112279782Y-83792588D01*
X112282323Y-83915666D01*
X112284666Y-84015715D01*
X112286959Y-84095106D01*
X112289351Y-84156207D01*
X112291990Y-84201387D01*
X112295024Y-84233017D01*
X112298603Y-84253466D01*
X112302874Y-84265103D01*
X112307986Y-84270297D01*
X112309762Y-84270968D01*
X112330615Y-84274126D01*
X112370392Y-84278134D01*
X112422661Y-84282394D01*
X112461708Y-84285106D01*
X112521231Y-84288603D01*
X112561096Y-84289415D01*
X112586968Y-84286850D01*
X112604512Y-84280216D01*
X112619392Y-84268819D01*
X112623120Y-84265369D01*
X112664794Y-84241878D01*
X112702897Y-84237136D01*
X112738389Y-84238606D01*
X112763317Y-84246117D01*
X112784950Y-84264320D01*
X112810559Y-84297867D01*
X112820729Y-84312527D01*
X112846261Y-84355847D01*
X112859280Y-84398264D01*
X112863936Y-84446451D01*
X112867367Y-84487668D01*
X112875668Y-84521228D01*
X112892194Y-84555779D01*
X112920297Y-84599965D01*
X112927711Y-84610878D01*
X112984632Y-84689591D01*
X113034250Y-84747429D01*
X113079272Y-84786861D01*
X113122408Y-84810357D01*
X113156167Y-84819161D01*
X113187090Y-84821686D01*
X113235077Y-84823102D01*
X113295296Y-84823516D01*
X113362910Y-84823035D01*
X113433085Y-84821765D01*
X113500988Y-84819815D01*
X113561782Y-84817292D01*
X113610635Y-84814302D01*
X113642710Y-84810952D01*
X113652986Y-84808146D01*
X113655216Y-84794070D01*
X113658043Y-84757598D01*
X113661316Y-84701724D01*
X113664884Y-84629444D01*
X113668598Y-84543749D01*
X113672306Y-84447635D01*
X113674960Y-84371465D01*
X113689250Y-83942469D01*
X113758275Y-83932551D01*
X113796522Y-83926609D01*
X113822350Y-83921749D01*
X113829071Y-83919691D01*
X113830895Y-83906547D01*
X113835415Y-83869342D01*
X113842494Y-83809253D01*
X113851999Y-83727461D01*
X113863793Y-83625145D01*
X113877743Y-83503484D01*
X113893713Y-83363659D01*
X113911568Y-83206848D01*
X113931174Y-83034230D01*
X113952395Y-82846987D01*
X113975098Y-82646296D01*
X113999146Y-82433338D01*
X114008022Y-82354650D01*
X114020664Y-82240767D01*
X114032471Y-82131000D01*
X114043098Y-82028801D01*
X114052204Y-81937619D01*
X114059443Y-81860904D01*
X114064473Y-81802107D01*
X114066950Y-81764677D01*
X114067059Y-81761799D01*
X114069173Y-81712420D01*
X114072792Y-81682812D01*
X114079811Y-81667348D01*
X114092127Y-81660402D01*
X114101995Y-81658145D01*
X114126313Y-81654268D01*
X114135245Y-81654096D01*
X114136476Y-81666786D01*
X114138982Y-81700783D01*
X114142486Y-81752045D01*
X114146711Y-81816526D01*
X114151042Y-81884750D01*
X114156776Y-81975193D01*
X114163582Y-82080473D01*
X114171299Y-82198244D01*
X114179766Y-82326157D01*
X114188822Y-82461866D01*
X114198306Y-82603022D01*
X114208057Y-82747279D01*
X114217914Y-82892289D01*
X114227717Y-83035705D01*
X114237303Y-83175179D01*
X114246513Y-83308364D01*
X114255185Y-83432912D01*
X114263159Y-83546477D01*
X114270274Y-83646710D01*
X114276367Y-83731265D01*
X114281280Y-83797794D01*
X114284850Y-83843949D01*
X114286917Y-83867383D01*
X114287054Y-83868536D01*
X114293879Y-83921923D01*
X114372564Y-83925686D01*
X114451250Y-83929450D01*
X114459024Y-84189800D01*
X114461509Y-84273301D01*
X114463846Y-84352414D01*
X114465887Y-84422033D01*
X114467481Y-84477056D01*
X114468480Y-84512377D01*
X114468549Y-84514932D01*
X114469957Y-84540066D01*
X114474217Y-84562121D01*
X114483653Y-84585147D01*
X114500591Y-84613192D01*
X114527357Y-84650305D01*
X114566275Y-84700534D01*
X114598618Y-84741415D01*
X114726936Y-84903116D01*
X115116143Y-84895325D01*
X115217344Y-84893126D01*
X115314031Y-84890701D01*
X115402255Y-84888173D01*
X115478066Y-84885667D01*
X115537514Y-84883305D01*
X115576650Y-84881213D01*
X115583581Y-84880679D01*
X115661812Y-84873823D01*
X115669124Y-84801686D01*
X115671179Y-84773563D01*
X115674017Y-84723146D01*
X115677498Y-84653527D01*
X115681478Y-84567797D01*
X115685817Y-84469045D01*
X115690374Y-84360361D01*
X115695006Y-84244837D01*
X115697140Y-84189800D01*
X115701644Y-84075269D01*
X115706044Y-83968776D01*
X115710215Y-83872960D01*
X115714033Y-83790462D01*
X115717373Y-83723924D01*
X115720110Y-83675986D01*
X115722120Y-83649288D01*
X115722891Y-83644589D01*
X115737019Y-83641487D01*
X115770326Y-83637939D01*
X115816615Y-83634556D01*
X115835718Y-83633471D01*
X115943500Y-83627814D01*
X115943500Y-83673857D01*
X115945297Y-83704354D01*
X115955538Y-83717141D01*
X115981491Y-83719881D01*
X115987183Y-83719900D01*
X116015986Y-83717871D01*
X116029156Y-83706768D01*
X116034221Y-83679062D01*
X116034808Y-83672275D01*
X116039920Y-83640353D01*
X116052371Y-83625680D01*
X116075680Y-83620437D01*
X116115843Y-83619848D01*
X116154283Y-83624043D01*
X116183838Y-83633379D01*
X116196618Y-83652204D01*
X116199902Y-83672705D01*
X116204507Y-83698581D01*
X116216744Y-83711168D01*
X116244250Y-83716367D01*
X116257825Y-83717455D01*
X116311800Y-83721360D01*
X116311800Y-83675781D01*
X116314558Y-83645118D01*
X116326028Y-83627941D01*
X116350998Y-83621989D01*
X116394259Y-83625002D01*
X116413801Y-83627640D01*
X116453976Y-83634560D01*
X116475404Y-83643183D01*
X116484633Y-83657500D01*
X116487268Y-83672385D01*
X116491698Y-83693274D01*
X116503365Y-83703540D01*
X116529336Y-83706921D01*
X116553100Y-83707200D01*
X116590315Y-83706066D01*
X116609220Y-83700167D01*
X116616883Y-83685750D01*
X116618931Y-83672275D01*
X116622681Y-83653126D01*
X116632461Y-83642260D01*
X116654432Y-83636817D01*
X116694756Y-83633935D01*
X116702325Y-83633568D01*
X116781700Y-83629787D01*
X116781700Y-83674843D01*
X116784083Y-83705252D01*
X116794511Y-83717795D01*
X116811862Y-83719900D01*
X116866019Y-83715649D01*
X116903552Y-83703790D01*
X116920723Y-83685663D01*
X116921399Y-83680659D01*
X116933068Y-83654144D01*
X116967974Y-83637605D01*
X117025968Y-83631105D01*
X117036235Y-83631000D01*
X117101939Y-83631000D01*
X117094446Y-83754825D01*
X117090625Y-83821568D01*
X117086362Y-83901712D01*
X117082281Y-83983279D01*
X117080038Y-84031050D01*
X117078032Y-84074226D01*
X117074930Y-84139603D01*
X117070885Y-84224012D01*
X117066051Y-84324286D01*
X117060580Y-84437256D01*
X117054626Y-84559754D01*
X117048342Y-84688611D01*
X117041881Y-84820660D01*
X117041189Y-84834782D01*
X117009254Y-85486115D01*
X117081476Y-85552121D01*
X117153697Y-85618127D01*
X117145235Y-85853288D01*
X117141922Y-85940365D01*
X117138190Y-86030210D01*
X117134380Y-86115145D01*
X117130832Y-86187493D01*
X117128777Y-86224975D01*
X117120781Y-86361500D01*
X104479336Y-86361500D01*
X104470878Y-86002725D01*
X104468223Y-85894739D01*
X104465245Y-85781522D01*
X104462128Y-85669542D01*
X104459057Y-85565266D01*
X104456214Y-85475160D01*
X104454376Y-85421700D01*
X104446331Y-85199450D01*
X104530715Y-85203708D01*
X104615100Y-85207967D01*
X104615100Y-85006999D01*
X104744453Y-84979162D01*
X104798485Y-84967159D01*
X104842523Y-84956666D01*
X104871119Y-84949026D01*
X104879114Y-84946018D01*
X104880003Y-84932499D01*
X104880033Y-84896663D01*
X104879265Y-84841576D01*
X104877759Y-84770304D01*
X104875577Y-84685914D01*
X104872778Y-84591472D01*
X104871024Y-84537125D01*
X104867881Y-84438579D01*
X104865256Y-84348481D01*
X104863218Y-84269886D01*
X104861835Y-84205848D01*
X104861178Y-84159422D01*
X104861317Y-84133662D01*
X104861751Y-84129415D01*
X104875174Y-84126417D01*
X104909044Y-84121102D01*
X104958585Y-84114163D01*
X105019025Y-84106292D01*
X105034127Y-84104403D01*
X105202379Y-84083517D01*
X105194756Y-83993783D01*
X105192550Y-83955795D01*
X105190436Y-83897145D01*
X105188522Y-83822570D01*
X105186918Y-83736810D01*
X105185734Y-83644601D01*
X105185225Y-83580859D01*
X105183317Y-83257668D01*
X105251451Y-83261284D01*
X105290950Y-83264148D01*
X105319165Y-83267616D01*
X105327462Y-83269768D01*
X105332498Y-83260862D01*
X105337650Y-83231337D01*
X105342525Y-83185972D01*
X105346726Y-83129544D01*
X105349859Y-83066828D01*
X105351529Y-83002602D01*
X105351700Y-82976574D01*
X105352045Y-82925153D01*
X105354295Y-82893255D01*
X105360273Y-82875002D01*
X105371802Y-82864518D01*
X105388881Y-82856680D01*
X105425310Y-82839294D01*
X105447356Y-82820133D01*
X105456666Y-82793804D01*
X105454884Y-82754918D01*
X105443656Y-82698083D01*
X105440912Y-82686188D01*
X105429341Y-82634455D01*
X105420472Y-82590778D01*
X105415673Y-82562074D01*
X105415200Y-82556298D01*
X105419720Y-82535701D01*
X105431691Y-82498886D01*
X105448729Y-82453054D01*
X105452703Y-82443020D01*
X105463774Y-82414734D01*
X105472556Y-82389202D01*
X105479450Y-82362884D01*
X105484861Y-82332237D01*
X105489190Y-82293723D01*
X105492841Y-82243799D01*
X105496217Y-82178926D01*
X105499721Y-82095561D01*
X105503519Y-81996405D01*
X105507323Y-81899646D01*
X105511247Y-81807154D01*
X105515088Y-81723173D01*
X105518645Y-81651950D01*
X105521715Y-81597729D01*
X105524045Y-81565299D01*
X105532304Y-81511337D01*
X105544870Y-81471995D01*
X105560082Y-81450687D01*
X105576278Y-81450827D01*
X105578731Y-81452950D01*
X105585339Y-81471100D01*
X105592481Y-81513160D01*
X105600181Y-81579382D01*
X105608461Y-81670014D01*
X105617344Y-81785309D01*
X105626855Y-81925516D01*
X105636090Y-82075250D01*
X105652673Y-82354650D01*
X105699711Y-82447747D01*
X105746749Y-82540845D01*
X105728323Y-82657297D01*
X105720577Y-82715969D01*
X105717505Y-82762150D01*
X105719409Y-82790393D01*
X105720785Y-82794180D01*
X105738915Y-82809682D01*
X105772109Y-82825180D01*
X105789336Y-82830756D01*
X105847000Y-82846901D01*
X105847000Y-83257970D01*
X105923200Y-83252458D01*
X105999400Y-83246947D01*
X106000492Y-83346898D01*
X106001653Y-83423237D01*
X106003489Y-83507377D01*
X106005860Y-83595617D01*
X106008626Y-83684255D01*
X106011650Y-83769590D01*
X106014791Y-83847921D01*
X106017910Y-83915545D01*
X106020869Y-83968762D01*
X106023528Y-84003871D01*
X106025685Y-84017118D01*
X106039938Y-84023320D01*
X106073639Y-84035054D01*
X106121867Y-84050681D01*
X106179704Y-84068563D01*
X106184387Y-84069978D01*
X106243082Y-84088174D01*
X106292842Y-84104523D01*
X106328632Y-84117304D01*
X106345415Y-84124799D01*
X106345737Y-84125071D01*
X106348737Y-84139718D01*
X106352368Y-84176453D01*
X106356417Y-84231979D01*
X106360671Y-84302998D01*
X106364918Y-84386214D01*
X106368946Y-84478329D01*
X106369627Y-84495497D01*
X106373642Y-84589145D01*
X106377995Y-84674745D01*
X106382460Y-84748943D01*
X106386813Y-84808384D01*
X106390828Y-84849716D01*
X106394280Y-84869585D01*
X106394795Y-84870587D01*
X106411605Y-84878494D01*
X106447318Y-84887869D01*
X106495617Y-84897186D01*
X106521221Y-84901160D01*
X106574363Y-84910390D01*
X106618957Y-84921095D01*
X106648194Y-84931515D01*
X106654540Y-84935655D01*
X106666513Y-84963101D01*
X106672072Y-85015023D01*
X106672500Y-85040019D01*
X106673681Y-85091147D01*
X106676757Y-85137804D01*
X106680437Y-85166112D01*
X106686686Y-85189449D01*
X106698118Y-85201197D01*
X106722033Y-85205326D01*
X106753462Y-85205810D01*
X106818550Y-85205820D01*
X106801310Y-84045660D01*
X106838505Y-84000536D01*
X106853662Y-83981391D01*
X106864002Y-83963852D01*
X106870430Y-83942734D01*
X106873850Y-83912851D01*
X106875169Y-83869020D01*
X106875291Y-83806056D01*
X106875249Y-83790031D01*
X106873998Y-83710569D01*
X106870536Y-83653159D01*
X106864554Y-83614523D01*
X106856649Y-83592900D01*
X106839572Y-83545573D01*
X106846492Y-83505761D01*
X106862999Y-83484950D01*
X106882473Y-83458798D01*
X106886854Y-83425574D01*
X106876361Y-83379567D01*
X106867926Y-83355989D01*
X106856018Y-83320690D01*
X106854746Y-83295624D01*
X106864516Y-83267775D01*
X106871101Y-83253974D01*
X106895186Y-83218974D01*
X106932237Y-83180383D01*
X106961425Y-83156149D01*
X107028100Y-83106730D01*
X107028100Y-82874162D01*
X107028967Y-82778452D01*
X107031499Y-82701871D01*
X107035590Y-82646345D01*
X107041133Y-82613798D01*
X107042668Y-82609621D01*
X107050243Y-82584508D01*
X107041213Y-82565841D01*
X107026903Y-82553085D01*
X107006729Y-82534823D01*
X107005167Y-82521327D01*
X107020221Y-82502389D01*
X107049220Y-82479904D01*
X107085891Y-82462388D01*
X107086102Y-82462318D01*
X107127476Y-82436770D01*
X107151241Y-82402207D01*
X107173545Y-82365378D01*
X107192652Y-82353231D01*
X107210166Y-82365502D01*
X107223183Y-82390480D01*
X107248441Y-82428568D01*
X107285685Y-82448987D01*
X107321909Y-82465522D01*
X107350014Y-82485918D01*
X107351337Y-82487323D01*
X107364620Y-82505092D01*
X107365148Y-82522203D01*
X107352946Y-82549563D01*
X107351480Y-82552407D01*
X107337980Y-82587051D01*
X107338821Y-82619971D01*
X107344207Y-82640760D01*
X107349108Y-82669864D01*
X107353245Y-82718971D01*
X107356321Y-82782688D01*
X107358040Y-82855620D01*
X107358300Y-82897150D01*
X107358300Y-83106503D01*
X107421587Y-83145844D01*
X107476776Y-83189250D01*
X107515027Y-83238336D01*
X107534618Y-83289051D01*
X107533827Y-83337346D01*
X107517453Y-83371397D01*
X107501353Y-83400937D01*
X107503516Y-83428426D01*
X107525289Y-83460476D01*
X107538494Y-83474720D01*
X107578989Y-83516500D01*
X107549911Y-83568236D01*
X107537652Y-83592092D01*
X107529643Y-83615495D01*
X107525205Y-83644183D01*
X107523663Y-83683897D01*
X107524336Y-83740374D01*
X107525292Y-83776670D01*
X107527400Y-83842366D01*
X107530019Y-83887745D01*
X107534205Y-83917885D01*
X107541017Y-83937863D01*
X107551513Y-83952757D01*
X107564675Y-83965727D01*
X107587278Y-83987554D01*
X107599158Y-84000751D01*
X107599682Y-84001868D01*
X107600698Y-84015112D01*
X107603471Y-84049594D01*
X107607667Y-84101239D01*
X107612958Y-84165970D01*
X107618562Y-84234250D01*
X107624680Y-84310766D01*
X107629986Y-84381124D01*
X107634127Y-84440337D01*
X107636752Y-84483419D01*
X107637529Y-84503491D01*
X107638721Y-84526580D01*
X107646171Y-84539085D01*
X107666067Y-84544844D01*
X107704594Y-84547698D01*
X107709135Y-84547941D01*
X107780570Y-84551750D01*
X107802857Y-84608900D01*
X107818322Y-84643741D01*
X107833414Y-84660462D01*
X107854972Y-84665296D01*
X107864772Y-84665344D01*
X107888010Y-84665059D01*
X107932758Y-84664625D01*
X107995127Y-84664074D01*
X108071229Y-84663441D01*
X108157173Y-84662759D01*
X108234600Y-84662169D01*
X108564800Y-84659700D01*
X108564800Y-83854320D01*
X108518856Y-83807270D01*
X108472913Y-83760220D01*
X108506588Y-83716071D01*
X108535277Y-83663240D01*
X108548168Y-83598841D01*
X108545542Y-83519732D01*
X108531472Y-83439252D01*
X108519925Y-83376809D01*
X108511471Y-83311136D01*
X108507756Y-83255338D01*
X108507707Y-83250000D01*
X108508615Y-83213457D01*
X108512716Y-83182057D01*
X108521992Y-83149731D01*
X108538421Y-83110408D01*
X108563985Y-83058019D01*
X108581631Y-83023432D01*
X108655613Y-82879415D01*
X108651481Y-82634212D01*
X108649758Y-82547527D01*
X108647684Y-82482642D01*
X108644907Y-82435954D01*
X108641074Y-82403865D01*
X108635835Y-82382772D01*
X108628837Y-82369075D01*
X108625125Y-82364479D01*
X108607977Y-82342811D01*
X108605474Y-82325045D01*
X108618149Y-82301599D01*
X108629485Y-82285912D01*
X108642720Y-82265962D01*
X108649271Y-82246614D01*
X108649746Y-82220539D01*
X108644752Y-82180408D01*
X108640481Y-82153314D01*
X108631875Y-82086770D01*
X108631074Y-82031303D01*
X108639461Y-81979141D01*
X108658422Y-81922510D01*
X108689341Y-81853638D01*
X108696482Y-81838935D01*
X108727437Y-81771629D01*
X108747974Y-81714903D01*
X108761455Y-81658001D01*
X108769293Y-81606141D01*
X108777472Y-81487002D01*
X108770711Y-81380124D01*
X108749334Y-81289367D01*
X108740795Y-81267420D01*
X108727663Y-81230124D01*
X108722618Y-81201087D01*
X108724304Y-81191378D01*
X108728717Y-81173271D01*
X108733714Y-81135298D01*
X108738691Y-81082969D01*
X108743041Y-81021792D01*
X108743146Y-81020035D01*
X108747718Y-80952002D01*
X108752850Y-80902984D01*
X108759892Y-80866609D01*
X108770193Y-80836504D01*
X108785105Y-80806296D01*
X108790484Y-80796608D01*
X108828543Y-80729050D01*
X108834772Y-80448863D01*
X108836602Y-80353037D01*
X108837212Y-80279524D01*
X108836489Y-80225261D01*
X108834322Y-80187187D01*
X108830596Y-80162238D01*
X108825198Y-80147352D01*
X108823551Y-80144811D01*
X108807297Y-80107162D01*
X108816195Y-80073018D01*
X108829937Y-80057364D01*
X108838072Y-80048951D01*
X108844956Y-80038060D01*
X108850929Y-80022123D01*
X108856329Y-79998572D01*
X108861497Y-79964837D01*
X108866771Y-79918349D01*
X108872491Y-79856539D01*
X108878997Y-79776840D01*
X108886628Y-79676681D01*
X108894733Y-79567000D01*
X108911291Y-79338588D01*
X108925642Y-79134475D01*
X108937846Y-78953656D01*
X108947958Y-78795132D01*
X108956036Y-78657901D01*
X108962139Y-78540960D01*
X108966323Y-78443308D01*
X108968646Y-78363944D01*
X108969167Y-78301866D01*
X108968793Y-78277950D01*
X108967339Y-78213655D01*
X108967348Y-78170414D01*
X108969459Y-78143891D01*
X108974311Y-78129752D01*
X108982542Y-78123664D01*
X108991808Y-78121703D01*
X109017643Y-78127298D01*
G37*
X109017643Y-78127298D02*
X109028943Y-78151617D01*
X109024766Y-78191925D01*
X109020742Y-78205559D01*
X109017330Y-78216408D01*
X109014586Y-78227786D01*
X109012619Y-78241667D01*
X109011540Y-78260022D01*
X109011457Y-78284824D01*
X109012480Y-78318046D01*
X109014719Y-78361659D01*
X109018282Y-78417636D01*
X109023279Y-78487950D01*
X109029820Y-78574572D01*
X109038014Y-78679476D01*
X109047971Y-78804633D01*
X109059799Y-78952017D01*
X109067386Y-79046300D01*
X109081275Y-79218332D01*
X109093413Y-79366934D01*
X109104038Y-79493997D01*
X109113385Y-79601412D01*
X109121690Y-79691070D01*
X109129191Y-79764863D01*
X109136122Y-79824683D01*
X109142721Y-79872420D01*
X109149223Y-79909967D01*
X109155864Y-79939214D01*
X109162882Y-79962053D01*
X109170511Y-79980377D01*
X109178989Y-79996075D01*
X109187713Y-80009782D01*
X109210884Y-80048464D01*
X109219987Y-80076970D01*
X109217719Y-80104205D01*
X109217088Y-80106750D01*
X109214356Y-80130399D01*
X109212223Y-80175152D01*
X109210774Y-80236719D01*
X109210098Y-80310809D01*
X109210280Y-80393131D01*
X109210601Y-80426399D01*
X109213916Y-80707949D01*
X109257167Y-80753808D01*
X109286118Y-80789245D01*
X109305205Y-80826596D01*
X109315796Y-80871653D01*
X109319261Y-80930208D01*
X109317025Y-81007009D01*
X109314495Y-81065403D01*
X109314783Y-81104773D01*
X109318720Y-81131417D01*
X109327134Y-81151633D01*
X109338280Y-81168267D01*
X109355699Y-81194764D01*
X109358047Y-81212820D01*
X109346680Y-81233367D01*
X109346404Y-81233761D01*
X109338948Y-81249090D01*
X109333564Y-81273017D01*
X109329960Y-81309250D01*
X109327840Y-81361496D01*
X109326910Y-81433463D01*
X109326800Y-81480747D01*
X109326800Y-81699742D01*
X109377182Y-81777694D01*
X109419128Y-81850350D01*
X109451793Y-81922504D01*
X109472640Y-81987737D01*
X109479200Y-82035607D01*
X109475407Y-82073593D01*
X109465846Y-82120277D01*
X109460713Y-82138990D01*
X109442226Y-82200417D01*
X109486113Y-82248995D01*
X109514495Y-82282087D01*
X109526761Y-82305430D01*
X109524307Y-82327675D01*
X109508528Y-82357472D01*
X109504647Y-82363868D01*
X109495401Y-82381261D01*
X109488699Y-82401300D01*
X109484139Y-82428181D01*
X109481319Y-82466100D01*
X109479837Y-82519255D01*
X109479293Y-82591842D01*
X109479247Y-82629262D01*
X109479199Y-82853075D01*
X109562879Y-83022728D01*
X109646558Y-83192381D01*
X109637726Y-83402165D01*
X109628893Y-83611950D01*
X109668346Y-83661321D01*
X109691292Y-83692741D01*
X109705520Y-83717433D01*
X109707800Y-83725102D01*
X109700266Y-83742898D01*
X109681238Y-83771122D01*
X109670474Y-83784795D01*
X109633148Y-83830078D01*
X109640578Y-83970929D01*
X109648009Y-84111780D01*
X109738229Y-84118724D01*
X109771818Y-84120540D01*
X109827259Y-84122619D01*
X109901004Y-84124866D01*
X109989508Y-84127190D01*
X110089223Y-84129495D01*
X110196605Y-84131689D01*
X110300220Y-84133547D01*
X110771990Y-84141425D01*
X110779334Y-84010037D01*
X110782002Y-83958630D01*
X110785398Y-83887519D01*
X110789269Y-83802381D01*
X110793358Y-83708892D01*
X110797409Y-83612730D01*
X110799212Y-83568612D01*
X110803122Y-83482164D01*
X110807443Y-83404099D01*
X110811913Y-83338020D01*
X110816267Y-83287529D01*
X110820242Y-83256229D01*
X110822720Y-83247599D01*
X110840815Y-83239934D01*
X110875035Y-83232379D01*
X110899397Y-83228843D01*
X110928170Y-83225499D01*
X110947640Y-83220697D01*
X110959053Y-83210256D01*
X110963655Y-83189997D01*
X110962691Y-83155741D01*
X110957406Y-83103308D01*
X110951755Y-83053122D01*
X110945209Y-82970501D01*
X110946380Y-82902700D01*
X110952763Y-82853598D01*
X110979012Y-82751532D01*
X111020185Y-82645070D01*
X111072301Y-82542434D01*
X111131377Y-82451849D01*
X111169923Y-82405159D01*
X111218093Y-82352901D01*
X111230590Y-82188675D01*
X111236418Y-82106770D01*
X111242504Y-82012385D01*
X111248045Y-81918421D01*
X111251534Y-81852452D01*
X111254788Y-81783409D01*
X111256229Y-81734858D01*
X111255297Y-81701921D01*
X111251431Y-81679720D01*
X111244072Y-81663379D01*
X111232658Y-81648020D01*
X111227322Y-81641641D01*
X111194663Y-81602828D01*
X111232056Y-81567004D01*
X111260529Y-81531687D01*
X111285524Y-81487712D01*
X111290822Y-81475213D01*
X111299727Y-81449668D01*
X111304675Y-81426025D01*
X111305644Y-81398342D01*
X111302615Y-81360673D01*
X111295567Y-81307075D01*
X111290098Y-81269531D01*
X111279635Y-81188827D01*
X111276195Y-81126850D01*
X111280945Y-81077610D01*
X111295048Y-81035120D01*
X111319668Y-80993390D01*
X111351972Y-80951300D01*
X111401662Y-80890190D01*
X111437368Y-80844168D01*
X111461182Y-80808658D01*
X111475199Y-80779083D01*
X111481513Y-80750868D01*
X111482218Y-80719437D01*
X111479407Y-80680215D01*
X111478865Y-80673997D01*
X111475289Y-80619342D01*
X111476735Y-80580389D01*
X111484288Y-80547746D01*
X111497072Y-80516283D01*
X111510984Y-80479503D01*
X111519294Y-80439001D01*
X111523180Y-80386890D01*
X111523900Y-80336644D01*
X111522394Y-80280031D01*
X111518361Y-80229903D01*
X111512531Y-80193895D01*
X111509332Y-80183923D01*
X111503605Y-80148684D01*
X111519518Y-80123494D01*
X111553865Y-80113144D01*
X111556758Y-80113099D01*
X111588335Y-80122587D01*
X111603085Y-80149736D01*
X111600297Y-80192573D01*
X111593588Y-80215159D01*
X111584058Y-80255475D01*
X111577282Y-80309647D01*
X111574700Y-80366163D01*
X111574700Y-80366229D01*
X111575795Y-80418905D01*
X111580367Y-80454493D01*
X111590347Y-80481256D01*
X111607665Y-80507460D01*
X111607701Y-80507507D01*
X111622975Y-80529260D01*
X111632216Y-80549493D01*
X111636461Y-80574777D01*
X111636747Y-80611683D01*
X111634113Y-80666781D01*
X111633778Y-80672678D01*
X111626854Y-80794106D01*
X111704263Y-80888578D01*
X111741401Y-80936294D01*
X111774657Y-80983270D01*
X111798758Y-81021894D01*
X111804906Y-81033850D01*
X111822699Y-81096097D01*
X111827652Y-81170946D01*
X111819585Y-81248978D01*
X111809787Y-81289006D01*
X111798458Y-81334000D01*
X111791628Y-81375856D01*
X111790737Y-81390138D01*
X111798393Y-81424993D01*
X111818209Y-81469439D01*
X111845172Y-81514352D01*
X111874269Y-81550609D01*
X111883680Y-81559280D01*
X111902720Y-81588275D01*
X111899684Y-81620236D01*
X111889215Y-81635004D01*
X111883726Y-81653208D01*
X111879567Y-81693031D01*
X111876760Y-81750724D01*
X111875331Y-81822541D01*
X111875301Y-81904732D01*
X111876696Y-81993550D01*
X111879538Y-82085248D01*
X111883852Y-82176076D01*
X111885614Y-82205397D01*
X111893885Y-82335544D01*
X111963717Y-82446697D01*
X112024341Y-82547079D01*
X112070369Y-82633957D01*
X112103639Y-82713194D01*
X112125991Y-82790653D01*
X112139262Y-82872196D01*
X112145292Y-82963687D01*
X112146200Y-83028613D01*
X112146200Y-83195591D01*
X112199961Y-83206932D01*
X112234165Y-83216102D01*
X112251406Y-83229915D01*
X112259874Y-83256563D01*
X112262056Y-83269061D01*
X112264208Y-83293191D01*
X112266668Y-83339517D01*
X112269325Y-83404841D01*
X112272073Y-83485963D01*
X112274802Y-83579684D01*
X112277405Y-83682803D01*
X112279773Y-83792122D01*
X112279782Y-83792588D01*
X112282323Y-83915666D01*
X112284666Y-84015715D01*
X112286959Y-84095106D01*
X112289351Y-84156207D01*
X112291990Y-84201387D01*
X112295024Y-84233017D01*
X112298603Y-84253466D01*
X112302874Y-84265103D01*
X112307986Y-84270297D01*
X112309762Y-84270968D01*
X112330615Y-84274126D01*
X112370392Y-84278134D01*
X112422661Y-84282394D01*
X112461708Y-84285106D01*
X112521231Y-84288603D01*
X112561096Y-84289415D01*
X112586968Y-84286850D01*
X112604512Y-84280216D01*
X112619392Y-84268819D01*
X112623120Y-84265369D01*
X112664794Y-84241878D01*
X112702897Y-84237136D01*
X112738389Y-84238606D01*
X112763317Y-84246117D01*
X112784950Y-84264320D01*
X112810559Y-84297867D01*
X112820729Y-84312527D01*
X112846261Y-84355847D01*
X112859280Y-84398264D01*
X112863936Y-84446451D01*
X112867367Y-84487668D01*
X112875668Y-84521228D01*
X112892194Y-84555779D01*
X112920297Y-84599965D01*
X112927711Y-84610878D01*
X112984632Y-84689591D01*
X113034250Y-84747429D01*
X113079272Y-84786861D01*
X113122408Y-84810357D01*
X113156167Y-84819161D01*
X113187090Y-84821686D01*
X113235077Y-84823102D01*
X113295296Y-84823516D01*
X113362910Y-84823035D01*
X113433085Y-84821765D01*
X113500988Y-84819815D01*
X113561782Y-84817292D01*
X113610635Y-84814302D01*
X113642710Y-84810952D01*
X113652986Y-84808146D01*
X113655216Y-84794070D01*
X113658043Y-84757598D01*
X113661316Y-84701724D01*
X113664884Y-84629444D01*
X113668598Y-84543749D01*
X113672306Y-84447635D01*
X113674960Y-84371465D01*
X113689250Y-83942469D01*
X113758275Y-83932551D01*
X113796522Y-83926609D01*
X113822350Y-83921749D01*
X113829071Y-83919691D01*
X113830895Y-83906547D01*
X113835415Y-83869342D01*
X113842494Y-83809253D01*
X113851999Y-83727461D01*
X113863793Y-83625145D01*
X113877743Y-83503484D01*
X113893713Y-83363659D01*
X113911568Y-83206848D01*
X113931174Y-83034230D01*
X113952395Y-82846987D01*
X113975098Y-82646296D01*
X113999146Y-82433338D01*
X114008022Y-82354650D01*
X114020664Y-82240767D01*
X114032471Y-82131000D01*
X114043098Y-82028801D01*
X114052204Y-81937619D01*
X114059443Y-81860904D01*
X114064473Y-81802107D01*
X114066950Y-81764677D01*
X114067059Y-81761799D01*
X114069173Y-81712420D01*
X114072792Y-81682812D01*
X114079811Y-81667348D01*
X114092127Y-81660402D01*
X114101995Y-81658145D01*
X114126313Y-81654268D01*
X114135245Y-81654096D01*
X114136476Y-81666786D01*
X114138982Y-81700783D01*
X114142486Y-81752045D01*
X114146711Y-81816526D01*
X114151042Y-81884750D01*
X114156776Y-81975193D01*
X114163582Y-82080473D01*
X114171299Y-82198244D01*
X114179766Y-82326157D01*
X114188822Y-82461866D01*
X114198306Y-82603022D01*
X114208057Y-82747279D01*
X114217914Y-82892289D01*
X114227717Y-83035705D01*
X114237303Y-83175179D01*
X114246513Y-83308364D01*
X114255185Y-83432912D01*
X114263159Y-83546477D01*
X114270274Y-83646710D01*
X114276367Y-83731265D01*
X114281280Y-83797794D01*
X114284850Y-83843949D01*
X114286917Y-83867383D01*
X114287054Y-83868536D01*
X114293879Y-83921923D01*
X114372564Y-83925686D01*
X114451250Y-83929450D01*
X114459024Y-84189800D01*
X114461509Y-84273301D01*
X114463846Y-84352414D01*
X114465887Y-84422033D01*
X114467481Y-84477056D01*
X114468480Y-84512377D01*
X114468549Y-84514932D01*
X114469957Y-84540066D01*
X114474217Y-84562121D01*
X114483653Y-84585147D01*
X114500591Y-84613192D01*
X114527357Y-84650305D01*
X114566275Y-84700534D01*
X114598618Y-84741415D01*
X114726936Y-84903116D01*
X115116143Y-84895325D01*
X115217344Y-84893126D01*
X115314031Y-84890701D01*
X115402255Y-84888173D01*
X115478066Y-84885667D01*
X115537514Y-84883305D01*
X115576650Y-84881213D01*
X115583581Y-84880679D01*
X115661812Y-84873823D01*
X115669124Y-84801686D01*
X115671179Y-84773563D01*
X115674017Y-84723146D01*
X115677498Y-84653527D01*
X115681478Y-84567797D01*
X115685817Y-84469045D01*
X115690374Y-84360361D01*
X115695006Y-84244837D01*
X115697140Y-84189800D01*
X115701644Y-84075269D01*
X115706044Y-83968776D01*
X115710215Y-83872960D01*
X115714033Y-83790462D01*
X115717373Y-83723924D01*
X115720110Y-83675986D01*
X115722120Y-83649288D01*
X115722891Y-83644589D01*
X115737019Y-83641487D01*
X115770326Y-83637939D01*
X115816615Y-83634556D01*
X115835718Y-83633471D01*
X115943500Y-83627814D01*
X115943500Y-83673857D01*
X115945297Y-83704354D01*
X115955538Y-83717141D01*
X115981491Y-83719881D01*
X115987183Y-83719900D01*
X116015986Y-83717871D01*
X116029156Y-83706768D01*
X116034221Y-83679062D01*
X116034808Y-83672275D01*
X116039920Y-83640353D01*
X116052371Y-83625680D01*
X116075680Y-83620437D01*
X116115843Y-83619848D01*
X116154283Y-83624043D01*
X116183838Y-83633379D01*
X116196618Y-83652204D01*
X116199902Y-83672705D01*
X116204507Y-83698581D01*
X116216744Y-83711168D01*
X116244250Y-83716367D01*
X116257825Y-83717455D01*
X116311800Y-83721360D01*
X116311800Y-83675781D01*
X116314558Y-83645118D01*
X116326028Y-83627941D01*
X116350998Y-83621989D01*
X116394259Y-83625002D01*
X116413801Y-83627640D01*
X116453976Y-83634560D01*
X116475404Y-83643183D01*
X116484633Y-83657500D01*
X116487268Y-83672385D01*
X116491698Y-83693274D01*
X116503365Y-83703540D01*
X116529336Y-83706921D01*
X116553100Y-83707200D01*
X116590315Y-83706066D01*
X116609220Y-83700167D01*
X116616883Y-83685750D01*
X116618931Y-83672275D01*
X116622681Y-83653126D01*
X116632461Y-83642260D01*
X116654432Y-83636817D01*
X116694756Y-83633935D01*
X116702325Y-83633568D01*
X116781700Y-83629787D01*
X116781700Y-83674843D01*
X116784083Y-83705252D01*
X116794511Y-83717795D01*
X116811862Y-83719900D01*
X116866019Y-83715649D01*
X116903552Y-83703790D01*
X116920723Y-83685663D01*
X116921399Y-83680659D01*
X116933068Y-83654144D01*
X116967974Y-83637605D01*
X117025968Y-83631105D01*
X117036235Y-83631000D01*
X117101939Y-83631000D01*
X117094446Y-83754825D01*
X117090625Y-83821568D01*
X117086362Y-83901712D01*
X117082281Y-83983279D01*
X117080038Y-84031050D01*
X117078032Y-84074226D01*
X117074930Y-84139603D01*
X117070885Y-84224012D01*
X117066051Y-84324286D01*
X117060580Y-84437256D01*
X117054626Y-84559754D01*
X117048342Y-84688611D01*
X117041881Y-84820660D01*
X117041189Y-84834782D01*
X117009254Y-85486115D01*
X117081476Y-85552121D01*
X117153697Y-85618127D01*
X117145235Y-85853288D01*
X117141922Y-85940365D01*
X117138190Y-86030210D01*
X117134380Y-86115145D01*
X117130832Y-86187493D01*
X117128777Y-86224975D01*
X117120781Y-86361500D01*
X104479336Y-86361500D01*
X104470878Y-86002725D01*
X104468223Y-85894739D01*
X104465245Y-85781522D01*
X104462128Y-85669542D01*
X104459057Y-85565266D01*
X104456214Y-85475160D01*
X104454376Y-85421700D01*
X104446331Y-85199450D01*
X104530715Y-85203708D01*
X104615100Y-85207967D01*
X104615100Y-85006999D01*
X104744453Y-84979162D01*
X104798485Y-84967159D01*
X104842523Y-84956666D01*
X104871119Y-84949026D01*
X104879114Y-84946018D01*
X104880003Y-84932499D01*
X104880033Y-84896663D01*
X104879265Y-84841576D01*
X104877759Y-84770304D01*
X104875577Y-84685914D01*
X104872778Y-84591472D01*
X104871024Y-84537125D01*
X104867881Y-84438579D01*
X104865256Y-84348481D01*
X104863218Y-84269886D01*
X104861835Y-84205848D01*
X104861178Y-84159422D01*
X104861317Y-84133662D01*
X104861751Y-84129415D01*
X104875174Y-84126417D01*
X104909044Y-84121102D01*
X104958585Y-84114163D01*
X105019025Y-84106292D01*
X105034127Y-84104403D01*
X105202379Y-84083517D01*
X105194756Y-83993783D01*
X105192550Y-83955795D01*
X105190436Y-83897145D01*
X105188522Y-83822570D01*
X105186918Y-83736810D01*
X105185734Y-83644601D01*
X105185225Y-83580859D01*
X105183317Y-83257668D01*
X105251451Y-83261284D01*
X105290950Y-83264148D01*
X105319165Y-83267616D01*
X105327462Y-83269768D01*
X105332498Y-83260862D01*
X105337650Y-83231337D01*
X105342525Y-83185972D01*
X105346726Y-83129544D01*
X105349859Y-83066828D01*
X105351529Y-83002602D01*
X105351700Y-82976574D01*
X105352045Y-82925153D01*
X105354295Y-82893255D01*
X105360273Y-82875002D01*
X105371802Y-82864518D01*
X105388881Y-82856680D01*
X105425310Y-82839294D01*
X105447356Y-82820133D01*
X105456666Y-82793804D01*
X105454884Y-82754918D01*
X105443656Y-82698083D01*
X105440912Y-82686188D01*
X105429341Y-82634455D01*
X105420472Y-82590778D01*
X105415673Y-82562074D01*
X105415200Y-82556298D01*
X105419720Y-82535701D01*
X105431691Y-82498886D01*
X105448729Y-82453054D01*
X105452703Y-82443020D01*
X105463774Y-82414734D01*
X105472556Y-82389202D01*
X105479450Y-82362884D01*
X105484861Y-82332237D01*
X105489190Y-82293723D01*
X105492841Y-82243799D01*
X105496217Y-82178926D01*
X105499721Y-82095561D01*
X105503519Y-81996405D01*
X105507323Y-81899646D01*
X105511247Y-81807154D01*
X105515088Y-81723173D01*
X105518645Y-81651950D01*
X105521715Y-81597729D01*
X105524045Y-81565299D01*
X105532304Y-81511337D01*
X105544870Y-81471995D01*
X105560082Y-81450687D01*
X105576278Y-81450827D01*
X105578731Y-81452950D01*
X105585339Y-81471100D01*
X105592481Y-81513160D01*
X105600181Y-81579382D01*
X105608461Y-81670014D01*
X105617344Y-81785309D01*
X105626855Y-81925516D01*
X105636090Y-82075250D01*
X105652673Y-82354650D01*
X105699711Y-82447747D01*
X105746749Y-82540845D01*
X105728323Y-82657297D01*
X105720577Y-82715969D01*
X105717505Y-82762150D01*
X105719409Y-82790393D01*
X105720785Y-82794180D01*
X105738915Y-82809682D01*
X105772109Y-82825180D01*
X105789336Y-82830756D01*
X105847000Y-82846901D01*
X105847000Y-83257970D01*
X105923200Y-83252458D01*
X105999400Y-83246947D01*
X106000492Y-83346898D01*
X106001653Y-83423237D01*
X106003489Y-83507377D01*
X106005860Y-83595617D01*
X106008626Y-83684255D01*
X106011650Y-83769590D01*
X106014791Y-83847921D01*
X106017910Y-83915545D01*
X106020869Y-83968762D01*
X106023528Y-84003871D01*
X106025685Y-84017118D01*
X106039938Y-84023320D01*
X106073639Y-84035054D01*
X106121867Y-84050681D01*
X106179704Y-84068563D01*
X106184387Y-84069978D01*
X106243082Y-84088174D01*
X106292842Y-84104523D01*
X106328632Y-84117304D01*
X106345415Y-84124799D01*
X106345737Y-84125071D01*
X106348737Y-84139718D01*
X106352368Y-84176453D01*
X106356417Y-84231979D01*
X106360671Y-84302998D01*
X106364918Y-84386214D01*
X106368946Y-84478329D01*
X106369627Y-84495497D01*
X106373642Y-84589145D01*
X106377995Y-84674745D01*
X106382460Y-84748943D01*
X106386813Y-84808384D01*
X106390828Y-84849716D01*
X106394280Y-84869585D01*
X106394795Y-84870587D01*
X106411605Y-84878494D01*
X106447318Y-84887869D01*
X106495617Y-84897186D01*
X106521221Y-84901160D01*
X106574363Y-84910390D01*
X106618957Y-84921095D01*
X106648194Y-84931515D01*
X106654540Y-84935655D01*
X106666513Y-84963101D01*
X106672072Y-85015023D01*
X106672500Y-85040019D01*
X106673681Y-85091147D01*
X106676757Y-85137804D01*
X106680437Y-85166112D01*
X106686686Y-85189449D01*
X106698118Y-85201197D01*
X106722033Y-85205326D01*
X106753462Y-85205810D01*
X106818550Y-85205820D01*
X106801310Y-84045660D01*
X106838505Y-84000536D01*
X106853662Y-83981391D01*
X106864002Y-83963852D01*
X106870430Y-83942734D01*
X106873850Y-83912851D01*
X106875169Y-83869020D01*
X106875291Y-83806056D01*
X106875249Y-83790031D01*
X106873998Y-83710569D01*
X106870536Y-83653159D01*
X106864554Y-83614523D01*
X106856649Y-83592900D01*
X106839572Y-83545573D01*
X106846492Y-83505761D01*
X106862999Y-83484950D01*
X106882473Y-83458798D01*
X106886854Y-83425574D01*
X106876361Y-83379567D01*
X106867926Y-83355989D01*
X106856018Y-83320690D01*
X106854746Y-83295624D01*
X106864516Y-83267775D01*
X106871101Y-83253974D01*
X106895186Y-83218974D01*
X106932237Y-83180383D01*
X106961425Y-83156149D01*
X107028100Y-83106730D01*
X107028100Y-82874162D01*
X107028967Y-82778452D01*
X107031499Y-82701871D01*
X107035590Y-82646345D01*
X107041133Y-82613798D01*
X107042668Y-82609621D01*
X107050243Y-82584508D01*
X107041213Y-82565841D01*
X107026903Y-82553085D01*
X107006729Y-82534823D01*
X107005167Y-82521327D01*
X107020221Y-82502389D01*
X107049220Y-82479904D01*
X107085891Y-82462388D01*
X107086102Y-82462318D01*
X107127476Y-82436770D01*
X107151241Y-82402207D01*
X107173545Y-82365378D01*
X107192652Y-82353231D01*
X107210166Y-82365502D01*
X107223183Y-82390480D01*
X107248441Y-82428568D01*
X107285685Y-82448987D01*
X107321909Y-82465522D01*
X107350014Y-82485918D01*
X107351337Y-82487323D01*
X107364620Y-82505092D01*
X107365148Y-82522203D01*
X107352946Y-82549563D01*
X107351480Y-82552407D01*
X107337980Y-82587051D01*
X107338821Y-82619971D01*
X107344207Y-82640760D01*
X107349108Y-82669864D01*
X107353245Y-82718971D01*
X107356321Y-82782688D01*
X107358040Y-82855620D01*
X107358300Y-82897150D01*
X107358300Y-83106503D01*
X107421587Y-83145844D01*
X107476776Y-83189250D01*
X107515027Y-83238336D01*
X107534618Y-83289051D01*
X107533827Y-83337346D01*
X107517453Y-83371397D01*
X107501353Y-83400937D01*
X107503516Y-83428426D01*
X107525289Y-83460476D01*
X107538494Y-83474720D01*
X107578989Y-83516500D01*
X107549911Y-83568236D01*
X107537652Y-83592092D01*
X107529643Y-83615495D01*
X107525205Y-83644183D01*
X107523663Y-83683897D01*
X107524336Y-83740374D01*
X107525292Y-83776670D01*
X107527400Y-83842366D01*
X107530019Y-83887745D01*
X107534205Y-83917885D01*
X107541017Y-83937863D01*
X107551513Y-83952757D01*
X107564675Y-83965727D01*
X107587278Y-83987554D01*
X107599158Y-84000751D01*
X107599682Y-84001868D01*
X107600698Y-84015112D01*
X107603471Y-84049594D01*
X107607667Y-84101239D01*
X107612958Y-84165970D01*
X107618562Y-84234250D01*
X107624680Y-84310766D01*
X107629986Y-84381124D01*
X107634127Y-84440337D01*
X107636752Y-84483419D01*
X107637529Y-84503491D01*
X107638721Y-84526580D01*
X107646171Y-84539085D01*
X107666067Y-84544844D01*
X107704594Y-84547698D01*
X107709135Y-84547941D01*
X107780570Y-84551750D01*
X107802857Y-84608900D01*
X107818322Y-84643741D01*
X107833414Y-84660462D01*
X107854972Y-84665296D01*
X107864772Y-84665344D01*
X107888010Y-84665059D01*
X107932758Y-84664625D01*
X107995127Y-84664074D01*
X108071229Y-84663441D01*
X108157173Y-84662759D01*
X108234600Y-84662169D01*
X108564800Y-84659700D01*
X108564800Y-83854320D01*
X108518856Y-83807270D01*
X108472913Y-83760220D01*
X108506588Y-83716071D01*
X108535277Y-83663240D01*
X108548168Y-83598841D01*
X108545542Y-83519732D01*
X108531472Y-83439252D01*
X108519925Y-83376809D01*
X108511471Y-83311136D01*
X108507756Y-83255338D01*
X108507707Y-83250000D01*
X108508615Y-83213457D01*
X108512716Y-83182057D01*
X108521992Y-83149731D01*
X108538421Y-83110408D01*
X108563985Y-83058019D01*
X108581631Y-83023432D01*
X108655613Y-82879415D01*
X108651481Y-82634212D01*
X108649758Y-82547527D01*
X108647684Y-82482642D01*
X108644907Y-82435954D01*
X108641074Y-82403865D01*
X108635835Y-82382772D01*
X108628837Y-82369075D01*
X108625125Y-82364479D01*
X108607977Y-82342811D01*
X108605474Y-82325045D01*
X108618149Y-82301599D01*
X108629485Y-82285912D01*
X108642720Y-82265962D01*
X108649271Y-82246614D01*
X108649746Y-82220539D01*
X108644752Y-82180408D01*
X108640481Y-82153314D01*
X108631875Y-82086770D01*
X108631074Y-82031303D01*
X108639461Y-81979141D01*
X108658422Y-81922510D01*
X108689341Y-81853638D01*
X108696482Y-81838935D01*
X108727437Y-81771629D01*
X108747974Y-81714903D01*
X108761455Y-81658001D01*
X108769293Y-81606141D01*
X108777472Y-81487002D01*
X108770711Y-81380124D01*
X108749334Y-81289367D01*
X108740795Y-81267420D01*
X108727663Y-81230124D01*
X108722618Y-81201087D01*
X108724304Y-81191378D01*
X108728717Y-81173271D01*
X108733714Y-81135298D01*
X108738691Y-81082969D01*
X108743041Y-81021792D01*
X108743146Y-81020035D01*
X108747718Y-80952002D01*
X108752850Y-80902984D01*
X108759892Y-80866609D01*
X108770193Y-80836504D01*
X108785105Y-80806296D01*
X108790484Y-80796608D01*
X108828543Y-80729050D01*
X108834772Y-80448863D01*
X108836602Y-80353037D01*
X108837212Y-80279524D01*
X108836489Y-80225261D01*
X108834322Y-80187187D01*
X108830596Y-80162238D01*
X108825198Y-80147352D01*
X108823551Y-80144811D01*
X108807297Y-80107162D01*
X108816195Y-80073018D01*
X108829937Y-80057364D01*
X108838072Y-80048951D01*
X108844956Y-80038060D01*
X108850929Y-80022123D01*
X108856329Y-79998572D01*
X108861497Y-79964837D01*
X108866771Y-79918349D01*
X108872491Y-79856539D01*
X108878997Y-79776840D01*
X108886628Y-79676681D01*
X108894733Y-79567000D01*
X108911291Y-79338588D01*
X108925642Y-79134475D01*
X108937846Y-78953656D01*
X108947958Y-78795132D01*
X108956036Y-78657901D01*
X108962139Y-78540960D01*
X108966323Y-78443308D01*
X108968646Y-78363944D01*
X108969167Y-78301866D01*
X108968793Y-78277950D01*
X108967339Y-78213655D01*
X108967348Y-78170414D01*
X108969459Y-78143891D01*
X108974311Y-78129752D01*
X108982542Y-78123664D01*
X108991808Y-78121703D01*
X109017643Y-78127298D01*
%TD*%
M02*
