%TF.GenerationSoftware,KiCad,Pcbnew,(5.1.10-6-gecec324121)-1*%
%TF.CreationDate,2021-07-06T17:39:12+03:00*%
%TF.ProjectId,bottomplate,626f7474-6f6d-4706-9c61-74652e6b6963,rev?*%
%TF.SameCoordinates,Original*%
%TF.FileFunction,Copper,L2,Bot*%
%TF.FilePolarity,Positive*%
%FSLAX46Y46*%
G04 Gerber Fmt 4.6, Leading zero omitted, Abs format (unit mm)*
G04 Created by KiCad (PCBNEW (5.1.10-6-gecec324121)-1) date 2021-07-06 17:39:12*
%MOMM*%
%LPD*%
G01*
G04 APERTURE LIST*
%TA.AperFunction,EtchedComponent*%
%ADD10C,1.500000*%
%TD*%
%TA.AperFunction,EtchedComponent*%
%ADD11C,0.010000*%
%TD*%
%TA.AperFunction,ComponentPad*%
%ADD12C,4.400000*%
%TD*%
%TA.AperFunction,ViaPad*%
%ADD13C,0.800000*%
%TD*%
%TA.AperFunction,NonConductor*%
%ADD14C,0.254000*%
%TD*%
%TA.AperFunction,NonConductor*%
%ADD15C,0.100000*%
%TD*%
G04 APERTURE END LIST*
D10*
%TO.C,G\u002A\u002A\u002A*%
G36*
X252087156Y-117446886D02*
G01*
X251198499Y-117764314D01*
X250408944Y-118039332D01*
X249691924Y-118280338D01*
X249020869Y-118495725D01*
X248369213Y-118693892D01*
X247710388Y-118883232D01*
X247017825Y-119072144D01*
X246264956Y-119269023D01*
X245774390Y-119394175D01*
X242854776Y-120071992D01*
X239949451Y-120624532D01*
X237063942Y-121053064D01*
X234203767Y-121358859D01*
X231374451Y-121543187D01*
X228581518Y-121607319D01*
X225830490Y-121552524D01*
X223126888Y-121380073D01*
X220476238Y-121091236D01*
X217884060Y-120687281D01*
X215355878Y-120169482D01*
X212897215Y-119539108D01*
X210513593Y-118797427D01*
X208210536Y-117945712D01*
X205993566Y-116985232D01*
X203868206Y-115917256D01*
X201839979Y-114743057D01*
X199914407Y-113463903D01*
X198097014Y-112081063D01*
X196393322Y-110595811D01*
X194808854Y-109009414D01*
X193362706Y-107340014D01*
X192068405Y-105607439D01*
X190923203Y-103813254D01*
X189926877Y-101962062D01*
X189079201Y-100058461D01*
X188379950Y-98107052D01*
X187828900Y-96112434D01*
X187425828Y-94079207D01*
X187170506Y-92011972D01*
X187062710Y-89915328D01*
X187102217Y-87793875D01*
X187288802Y-85652213D01*
X187622240Y-83494941D01*
X188102305Y-81326661D01*
X188728775Y-79151970D01*
X189501423Y-76975471D01*
X190420025Y-74801762D01*
X191484357Y-72635444D01*
X192694193Y-70481116D01*
X194049310Y-68343379D01*
X195358275Y-66484336D01*
X197148781Y-64192021D01*
X199082844Y-61972601D01*
X201156251Y-59829369D01*
X203364787Y-57765617D01*
X205704238Y-55784636D01*
X208170390Y-53889719D01*
X210759029Y-52084158D01*
X213465941Y-50371244D01*
X216286911Y-48754269D01*
X219217726Y-47236524D01*
X221209509Y-46291082D01*
X221566628Y-46134050D01*
X222043886Y-45934072D01*
X222620283Y-45699201D01*
X223274825Y-45437483D01*
X223986514Y-45156969D01*
X224734352Y-44865708D01*
X225497342Y-44571750D01*
X226254489Y-44283145D01*
X226984795Y-44007942D01*
X227667263Y-43754189D01*
X228280895Y-43529937D01*
X228804696Y-43343235D01*
X229217668Y-43202133D01*
X229484934Y-43118583D01*
X229695342Y-43057903D01*
X230026796Y-42961202D01*
X230443736Y-42838907D01*
X230910605Y-42701438D01*
X231251964Y-42600615D01*
X233172925Y-42066500D01*
X235194196Y-41568158D01*
X237254165Y-41119908D01*
X239225383Y-40747494D01*
X242189199Y-40295020D01*
X245128811Y-39971896D01*
X248038029Y-39776885D01*
X250910661Y-39708742D01*
X253740521Y-39766229D01*
X256521420Y-39948101D01*
X259247167Y-40253119D01*
X261911573Y-40680041D01*
X264508449Y-41227627D01*
X267031608Y-41894632D01*
X269474857Y-42679819D01*
X271832010Y-43581944D01*
X274096876Y-44599766D01*
X276263266Y-45732044D01*
X278324992Y-46977538D01*
X280275865Y-48335003D01*
X281393525Y-49205086D01*
X283110286Y-50698466D01*
X284691635Y-52281642D01*
X286142000Y-53959997D01*
X287465810Y-55738916D01*
X288667494Y-57623780D01*
X289400271Y-58936791D01*
X289648960Y-59444737D01*
X289927715Y-60077597D01*
X290224551Y-60802446D01*
X290527484Y-61586359D01*
X290599428Y-61782555D01*
X289832215Y-62061798D01*
X289536073Y-61285553D01*
X289243847Y-60562630D01*
X288967543Y-59926081D01*
X288719166Y-59408958D01*
X288682058Y-59338075D01*
X287638018Y-57507633D01*
X286523011Y-55814908D01*
X285327828Y-54246400D01*
X284725007Y-53536005D01*
X283192294Y-51914040D01*
X281536528Y-50394138D01*
X279763239Y-48977632D01*
X277877961Y-47665853D01*
X275886223Y-46460132D01*
X273793562Y-45361802D01*
X271605507Y-44372195D01*
X269327589Y-43492641D01*
X266965344Y-42724472D01*
X264524300Y-42069022D01*
X262009992Y-41527620D01*
X259427950Y-41101599D01*
X256783707Y-40792291D01*
X254082796Y-40601028D01*
X251330749Y-40529141D01*
X248533095Y-40577962D01*
X245695371Y-40748822D01*
X242823106Y-41043054D01*
X239921832Y-41461990D01*
X236997083Y-42006960D01*
X236909208Y-42025234D01*
X235854858Y-42256375D01*
X234716499Y-42525706D01*
X233556145Y-42817642D01*
X232435814Y-43116596D01*
X231454553Y-43396015D01*
X230973830Y-43537920D01*
X230517858Y-43672026D01*
X230122193Y-43787912D01*
X229822395Y-43875154D01*
X229687499Y-43913919D01*
X229397291Y-44005080D01*
X228976883Y-44149380D01*
X228447490Y-44338677D01*
X227830326Y-44564831D01*
X227146605Y-44819698D01*
X226417542Y-45095138D01*
X225664349Y-45383007D01*
X224908242Y-45675166D01*
X224170433Y-45963471D01*
X223472137Y-46239782D01*
X222834569Y-46495956D01*
X222278941Y-46723852D01*
X221826469Y-46915328D01*
X221565725Y-47030983D01*
X218740124Y-48393840D01*
X216010547Y-49848485D01*
X213381061Y-51390757D01*
X210855729Y-53016492D01*
X208438618Y-54721531D01*
X206133794Y-56501713D01*
X203945321Y-58352874D01*
X201877267Y-60270854D01*
X199933697Y-62251491D01*
X198118676Y-64290624D01*
X196436270Y-66384093D01*
X194890545Y-68527734D01*
X193485567Y-70717388D01*
X192225401Y-72948892D01*
X191114113Y-75218085D01*
X190155768Y-77520805D01*
X189354433Y-79852890D01*
X189289167Y-80067349D01*
X188694917Y-82300709D01*
X188262486Y-84517726D01*
X187991674Y-86722809D01*
X187882281Y-88920366D01*
X187934105Y-91114802D01*
X188146946Y-93310526D01*
X188520602Y-95511946D01*
X188573734Y-95765020D01*
X188705397Y-96296867D01*
X188893952Y-96943540D01*
X189127300Y-97671805D01*
X189393345Y-98448428D01*
X189679992Y-99240174D01*
X189975144Y-100013809D01*
X190266704Y-100736099D01*
X190542575Y-101373809D01*
X190790664Y-101893704D01*
X190836345Y-101981495D01*
X191954084Y-103923260D01*
X193194765Y-105760858D01*
X194559552Y-107495359D01*
X196049612Y-109127832D01*
X197666113Y-110659351D01*
X199410218Y-112090984D01*
X201283097Y-113423803D01*
X203285914Y-114658878D01*
X205419835Y-115797280D01*
X206395047Y-116265251D01*
X208810438Y-117299075D01*
X211314562Y-118199786D01*
X213901015Y-118967041D01*
X216563387Y-119600502D01*
X219295274Y-120099832D01*
X222090269Y-120464689D01*
X224941961Y-120694737D01*
X227843948Y-120789633D01*
X230789821Y-120749040D01*
X233773173Y-120572619D01*
X236787597Y-120260029D01*
X239826686Y-119810932D01*
X242884034Y-119224990D01*
X245953234Y-118501861D01*
X246406108Y-118383687D01*
X248831844Y-117691480D01*
X251312709Y-116885406D01*
X253805328Y-115981898D01*
X256266323Y-114997387D01*
X258652319Y-113948307D01*
X260648230Y-112988408D01*
X263288447Y-111595373D01*
X265834393Y-110117589D01*
X268282572Y-108559613D01*
X270629484Y-106926005D01*
X272871629Y-105221320D01*
X275005508Y-103450118D01*
X277027623Y-101616955D01*
X278934474Y-99726393D01*
X280722561Y-97782987D01*
X282388388Y-95791295D01*
X283928453Y-93755876D01*
X285339258Y-91681288D01*
X286617303Y-89572089D01*
X287759091Y-87432837D01*
X288761122Y-85268089D01*
X289619895Y-83082404D01*
X290331913Y-80880340D01*
X290893676Y-78666455D01*
X291301684Y-76445307D01*
X291552441Y-74221454D01*
X291633529Y-72626096D01*
X291605525Y-70474419D01*
X291415714Y-68309667D01*
X291063871Y-66129510D01*
X290951479Y-65586023D01*
X290815838Y-65038952D01*
X290624084Y-64379943D01*
X290388227Y-63642045D01*
X290120268Y-62858314D01*
X289832215Y-62061798D01*
X290599428Y-61782555D01*
X290824532Y-62396413D01*
X291103709Y-63199683D01*
X291353033Y-63963244D01*
X291560519Y-64654169D01*
X291714186Y-65239536D01*
X291746683Y-65383506D01*
X292122962Y-67425914D01*
X292359269Y-69422223D01*
X292457061Y-71405947D01*
X292417795Y-73410596D01*
X292242926Y-75469679D01*
X292200542Y-75821768D01*
X291832522Y-78111829D01*
X291303546Y-80399809D01*
X290615980Y-82680992D01*
X289772191Y-84950661D01*
X288774546Y-87204095D01*
X287625411Y-89436578D01*
X286327155Y-91643393D01*
X284882140Y-93819819D01*
X283292737Y-95961141D01*
X281561311Y-98062638D01*
X280382658Y-99381371D01*
X278223449Y-101604526D01*
X275930933Y-103734383D01*
X273506683Y-105769784D01*
X270952269Y-107709571D01*
X268269263Y-109552587D01*
X265459234Y-111297674D01*
X262523754Y-112943673D01*
X260724889Y-113872233D01*
X259902079Y-114278554D01*
X259123663Y-114650574D01*
X258363706Y-114999202D01*
X257596269Y-115335347D01*
X256795418Y-115669917D01*
X255935213Y-116013822D01*
X254989721Y-116377972D01*
X253933003Y-116773273D01*
X253101483Y-117078652D01*
X252087156Y-117446886D01*
G37*
X252087156Y-117446886D02*
X251198499Y-117764314D01*
X250408944Y-118039332D01*
X249691924Y-118280338D01*
X249020869Y-118495725D01*
X248369213Y-118693892D01*
X247710388Y-118883232D01*
X247017825Y-119072144D01*
X246264956Y-119269023D01*
X245774390Y-119394175D01*
X242854776Y-120071992D01*
X239949451Y-120624532D01*
X237063942Y-121053064D01*
X234203767Y-121358859D01*
X231374451Y-121543187D01*
X228581518Y-121607319D01*
X225830490Y-121552524D01*
X223126888Y-121380073D01*
X220476238Y-121091236D01*
X217884060Y-120687281D01*
X215355878Y-120169482D01*
X212897215Y-119539108D01*
X210513593Y-118797427D01*
X208210536Y-117945712D01*
X205993566Y-116985232D01*
X203868206Y-115917256D01*
X201839979Y-114743057D01*
X199914407Y-113463903D01*
X198097014Y-112081063D01*
X196393322Y-110595811D01*
X194808854Y-109009414D01*
X193362706Y-107340014D01*
X192068405Y-105607439D01*
X190923203Y-103813254D01*
X189926877Y-101962062D01*
X189079201Y-100058461D01*
X188379950Y-98107052D01*
X187828900Y-96112434D01*
X187425828Y-94079207D01*
X187170506Y-92011972D01*
X187062710Y-89915328D01*
X187102217Y-87793875D01*
X187288802Y-85652213D01*
X187622240Y-83494941D01*
X188102305Y-81326661D01*
X188728775Y-79151970D01*
X189501423Y-76975471D01*
X190420025Y-74801762D01*
X191484357Y-72635444D01*
X192694193Y-70481116D01*
X194049310Y-68343379D01*
X195358275Y-66484336D01*
X197148781Y-64192021D01*
X199082844Y-61972601D01*
X201156251Y-59829369D01*
X203364787Y-57765617D01*
X205704238Y-55784636D01*
X208170390Y-53889719D01*
X210759029Y-52084158D01*
X213465941Y-50371244D01*
X216286911Y-48754269D01*
X219217726Y-47236524D01*
X221209509Y-46291082D01*
X221566628Y-46134050D01*
X222043886Y-45934072D01*
X222620283Y-45699201D01*
X223274825Y-45437483D01*
X223986514Y-45156969D01*
X224734352Y-44865708D01*
X225497342Y-44571750D01*
X226254489Y-44283145D01*
X226984795Y-44007942D01*
X227667263Y-43754189D01*
X228280895Y-43529937D01*
X228804696Y-43343235D01*
X229217668Y-43202133D01*
X229484934Y-43118583D01*
X229695342Y-43057903D01*
X230026796Y-42961202D01*
X230443736Y-42838907D01*
X230910605Y-42701438D01*
X231251964Y-42600615D01*
X233172925Y-42066500D01*
X235194196Y-41568158D01*
X237254165Y-41119908D01*
X239225383Y-40747494D01*
X242189199Y-40295020D01*
X245128811Y-39971896D01*
X248038029Y-39776885D01*
X250910661Y-39708742D01*
X253740521Y-39766229D01*
X256521420Y-39948101D01*
X259247167Y-40253119D01*
X261911573Y-40680041D01*
X264508449Y-41227627D01*
X267031608Y-41894632D01*
X269474857Y-42679819D01*
X271832010Y-43581944D01*
X274096876Y-44599766D01*
X276263266Y-45732044D01*
X278324992Y-46977538D01*
X280275865Y-48335003D01*
X281393525Y-49205086D01*
X283110286Y-50698466D01*
X284691635Y-52281642D01*
X286142000Y-53959997D01*
X287465810Y-55738916D01*
X288667494Y-57623780D01*
X289400271Y-58936791D01*
X289648960Y-59444737D01*
X289927715Y-60077597D01*
X290224551Y-60802446D01*
X290527484Y-61586359D01*
X290599428Y-61782555D01*
X289832215Y-62061798D01*
X289536073Y-61285553D01*
X289243847Y-60562630D01*
X288967543Y-59926081D01*
X288719166Y-59408958D01*
X288682058Y-59338075D01*
X287638018Y-57507633D01*
X286523011Y-55814908D01*
X285327828Y-54246400D01*
X284725007Y-53536005D01*
X283192294Y-51914040D01*
X281536528Y-50394138D01*
X279763239Y-48977632D01*
X277877961Y-47665853D01*
X275886223Y-46460132D01*
X273793562Y-45361802D01*
X271605507Y-44372195D01*
X269327589Y-43492641D01*
X266965344Y-42724472D01*
X264524300Y-42069022D01*
X262009992Y-41527620D01*
X259427950Y-41101599D01*
X256783707Y-40792291D01*
X254082796Y-40601028D01*
X251330749Y-40529141D01*
X248533095Y-40577962D01*
X245695371Y-40748822D01*
X242823106Y-41043054D01*
X239921832Y-41461990D01*
X236997083Y-42006960D01*
X236909208Y-42025234D01*
X235854858Y-42256375D01*
X234716499Y-42525706D01*
X233556145Y-42817642D01*
X232435814Y-43116596D01*
X231454553Y-43396015D01*
X230973830Y-43537920D01*
X230517858Y-43672026D01*
X230122193Y-43787912D01*
X229822395Y-43875154D01*
X229687499Y-43913919D01*
X229397291Y-44005080D01*
X228976883Y-44149380D01*
X228447490Y-44338677D01*
X227830326Y-44564831D01*
X227146605Y-44819698D01*
X226417542Y-45095138D01*
X225664349Y-45383007D01*
X224908242Y-45675166D01*
X224170433Y-45963471D01*
X223472137Y-46239782D01*
X222834569Y-46495956D01*
X222278941Y-46723852D01*
X221826469Y-46915328D01*
X221565725Y-47030983D01*
X218740124Y-48393840D01*
X216010547Y-49848485D01*
X213381061Y-51390757D01*
X210855729Y-53016492D01*
X208438618Y-54721531D01*
X206133794Y-56501713D01*
X203945321Y-58352874D01*
X201877267Y-60270854D01*
X199933697Y-62251491D01*
X198118676Y-64290624D01*
X196436270Y-66384093D01*
X194890545Y-68527734D01*
X193485567Y-70717388D01*
X192225401Y-72948892D01*
X191114113Y-75218085D01*
X190155768Y-77520805D01*
X189354433Y-79852890D01*
X189289167Y-80067349D01*
X188694917Y-82300709D01*
X188262486Y-84517726D01*
X187991674Y-86722809D01*
X187882281Y-88920366D01*
X187934105Y-91114802D01*
X188146946Y-93310526D01*
X188520602Y-95511946D01*
X188573734Y-95765020D01*
X188705397Y-96296867D01*
X188893952Y-96943540D01*
X189127300Y-97671805D01*
X189393345Y-98448428D01*
X189679992Y-99240174D01*
X189975144Y-100013809D01*
X190266704Y-100736099D01*
X190542575Y-101373809D01*
X190790664Y-101893704D01*
X190836345Y-101981495D01*
X191954084Y-103923260D01*
X193194765Y-105760858D01*
X194559552Y-107495359D01*
X196049612Y-109127832D01*
X197666113Y-110659351D01*
X199410218Y-112090984D01*
X201283097Y-113423803D01*
X203285914Y-114658878D01*
X205419835Y-115797280D01*
X206395047Y-116265251D01*
X208810438Y-117299075D01*
X211314562Y-118199786D01*
X213901015Y-118967041D01*
X216563387Y-119600502D01*
X219295274Y-120099832D01*
X222090269Y-120464689D01*
X224941961Y-120694737D01*
X227843948Y-120789633D01*
X230789821Y-120749040D01*
X233773173Y-120572619D01*
X236787597Y-120260029D01*
X239826686Y-119810932D01*
X242884034Y-119224990D01*
X245953234Y-118501861D01*
X246406108Y-118383687D01*
X248831844Y-117691480D01*
X251312709Y-116885406D01*
X253805328Y-115981898D01*
X256266323Y-114997387D01*
X258652319Y-113948307D01*
X260648230Y-112988408D01*
X263288447Y-111595373D01*
X265834393Y-110117589D01*
X268282572Y-108559613D01*
X270629484Y-106926005D01*
X272871629Y-105221320D01*
X275005508Y-103450118D01*
X277027623Y-101616955D01*
X278934474Y-99726393D01*
X280722561Y-97782987D01*
X282388388Y-95791295D01*
X283928453Y-93755876D01*
X285339258Y-91681288D01*
X286617303Y-89572089D01*
X287759091Y-87432837D01*
X288761122Y-85268089D01*
X289619895Y-83082404D01*
X290331913Y-80880340D01*
X290893676Y-78666455D01*
X291301684Y-76445307D01*
X291552441Y-74221454D01*
X291633529Y-72626096D01*
X291605525Y-70474419D01*
X291415714Y-68309667D01*
X291063871Y-66129510D01*
X290951479Y-65586023D01*
X290815838Y-65038952D01*
X290624084Y-64379943D01*
X290388227Y-63642045D01*
X290120268Y-62858314D01*
X289832215Y-62061798D01*
X290599428Y-61782555D01*
X290824532Y-62396413D01*
X291103709Y-63199683D01*
X291353033Y-63963244D01*
X291560519Y-64654169D01*
X291714186Y-65239536D01*
X291746683Y-65383506D01*
X292122962Y-67425914D01*
X292359269Y-69422223D01*
X292457061Y-71405947D01*
X292417795Y-73410596D01*
X292242926Y-75469679D01*
X292200542Y-75821768D01*
X291832522Y-78111829D01*
X291303546Y-80399809D01*
X290615980Y-82680992D01*
X289772191Y-84950661D01*
X288774546Y-87204095D01*
X287625411Y-89436578D01*
X286327155Y-91643393D01*
X284882140Y-93819819D01*
X283292737Y-95961141D01*
X281561311Y-98062638D01*
X280382658Y-99381371D01*
X278223449Y-101604526D01*
X275930933Y-103734383D01*
X273506683Y-105769784D01*
X270952269Y-107709571D01*
X268269263Y-109552587D01*
X265459234Y-111297674D01*
X262523754Y-112943673D01*
X260724889Y-113872233D01*
X259902079Y-114278554D01*
X259123663Y-114650574D01*
X258363706Y-114999202D01*
X257596269Y-115335347D01*
X256795418Y-115669917D01*
X255935213Y-116013822D01*
X254989721Y-116377972D01*
X253933003Y-116773273D01*
X253101483Y-117078652D01*
X252087156Y-117446886D01*
D11*
G36*
X237443539Y-43883045D02*
G01*
X237428738Y-44054860D01*
X237542639Y-44289255D01*
X237596944Y-44362798D01*
X237641426Y-44420850D01*
X237683035Y-44483575D01*
X237725448Y-44563131D01*
X237772342Y-44671678D01*
X237827395Y-44821376D01*
X237894283Y-45024385D01*
X237976683Y-45292865D01*
X238078272Y-45638974D01*
X238202727Y-46074875D01*
X238353725Y-46612725D01*
X238534943Y-47264685D01*
X238750057Y-48042914D01*
X239002745Y-48959572D01*
X239164268Y-49546016D01*
X239458723Y-50616164D01*
X239712217Y-51540871D01*
X239927485Y-52332084D01*
X240107259Y-53001754D01*
X240254270Y-53561830D01*
X240371252Y-54024262D01*
X240460938Y-54401000D01*
X240526060Y-54703992D01*
X240569352Y-54945189D01*
X240593545Y-55136540D01*
X240601374Y-55289995D01*
X240595569Y-55417502D01*
X240578865Y-55531013D01*
X240556297Y-55633034D01*
X240501355Y-55917755D01*
X240509044Y-56110041D01*
X240582651Y-56269636D01*
X240592063Y-56283624D01*
X240660585Y-56420528D01*
X240771912Y-56686282D01*
X240916082Y-57055146D01*
X241083130Y-57501386D01*
X241263092Y-57999262D01*
X241334325Y-58201013D01*
X241933557Y-59909720D01*
X241773058Y-60281976D01*
X241676047Y-60559803D01*
X241642859Y-60827498D01*
X241677957Y-61123074D01*
X241785809Y-61484548D01*
X241968248Y-61943737D01*
X242111971Y-62291053D01*
X242196822Y-62529601D01*
X242231638Y-62699269D01*
X242225252Y-62839939D01*
X242194483Y-62964975D01*
X242147505Y-63163412D01*
X242173030Y-63277690D01*
X242286907Y-63376853D01*
X242289445Y-63378631D01*
X242368220Y-63454864D01*
X242453379Y-63587614D01*
X242554855Y-63798641D01*
X242682580Y-64109703D01*
X242846489Y-64542559D01*
X242951158Y-64828053D01*
X243432836Y-66151452D01*
X243299826Y-66733333D01*
X243206153Y-67264654D01*
X243167455Y-67772531D01*
X243184957Y-68212591D01*
X243250607Y-68516300D01*
X243357074Y-68737503D01*
X243517531Y-68998590D01*
X243589713Y-69100383D01*
X243836539Y-69430929D01*
X243678174Y-69821014D01*
X243579447Y-70083416D01*
X243556665Y-70251461D01*
X243620423Y-70380490D01*
X243781311Y-70525846D01*
X243818831Y-70555959D01*
X243912960Y-70640734D01*
X243997537Y-70747089D01*
X244084219Y-70899499D01*
X244184664Y-71122445D01*
X244310530Y-71440404D01*
X244473474Y-71877854D01*
X244556056Y-72103883D01*
X245048616Y-73456288D01*
X244916088Y-74665561D01*
X244783559Y-75874833D01*
X245813148Y-78371445D01*
X245683322Y-78756574D01*
X245613766Y-78996917D01*
X245582098Y-79177428D01*
X245585189Y-79228785D01*
X245669859Y-79319754D01*
X245846921Y-79448460D01*
X245942045Y-79507414D01*
X246267206Y-79698961D01*
X246532103Y-80566474D01*
X246796999Y-81433985D01*
X246267068Y-81674388D01*
X246068081Y-81759242D01*
X245737624Y-81893744D01*
X245296923Y-82069527D01*
X244767201Y-82278230D01*
X244169686Y-82511484D01*
X243525602Y-82760925D01*
X242903538Y-83000051D01*
X240069940Y-84085311D01*
X239736572Y-83307485D01*
X239607386Y-83002697D01*
X239430452Y-82580442D01*
X239219801Y-82074462D01*
X238989465Y-81518499D01*
X238753473Y-80946296D01*
X238645541Y-80683653D01*
X238431774Y-80169844D01*
X238233956Y-79707601D01*
X238061605Y-79318113D01*
X237924238Y-79022572D01*
X237831375Y-78842166D01*
X237797419Y-78795468D01*
X237671214Y-78788948D01*
X237447801Y-78818556D01*
X237292803Y-78850774D01*
X237111575Y-78893851D01*
X236983352Y-78907655D01*
X236891415Y-78869665D01*
X236819047Y-78757364D01*
X236749528Y-78548233D01*
X236666140Y-78219754D01*
X236589907Y-77904047D01*
X236447739Y-77390363D01*
X236291539Y-76983218D01*
X236144963Y-76700531D01*
X235761849Y-76141478D01*
X235278874Y-75588681D01*
X234738190Y-75083077D01*
X234181950Y-74665602D01*
X233846320Y-74468237D01*
X233440291Y-74258391D01*
X233003558Y-73293454D01*
X232788190Y-72811312D01*
X232543812Y-72254329D01*
X232303654Y-71698688D01*
X232137471Y-71307710D01*
X231965947Y-70897638D01*
X231850451Y-70607410D01*
X231783641Y-70406319D01*
X231758173Y-70263659D01*
X231766705Y-70148724D01*
X231801893Y-70030805D01*
X231820108Y-69980520D01*
X231932100Y-69674137D01*
X231627340Y-69539893D01*
X231377600Y-69389099D01*
X231129829Y-69178330D01*
X231070320Y-69114455D01*
X230960322Y-68979666D01*
X230878422Y-68847677D01*
X230811672Y-68682518D01*
X230747124Y-68448223D01*
X230671833Y-68108825D01*
X230622298Y-67869915D01*
X230508026Y-67359205D01*
X230392490Y-66977109D01*
X230255487Y-66689998D01*
X230076806Y-66464245D01*
X229836239Y-66266221D01*
X229548445Y-66082922D01*
X229113758Y-65822929D01*
X228796765Y-65623349D01*
X228574750Y-65461137D01*
X228424994Y-65313245D01*
X228324780Y-65156629D01*
X228251392Y-64968243D01*
X228182110Y-64725038D01*
X228171704Y-64686272D01*
X228073101Y-64348126D01*
X227978685Y-64115910D01*
X227861249Y-63935255D01*
X227714789Y-63773244D01*
X227549823Y-63581579D01*
X227410523Y-63355101D01*
X227272423Y-63048741D01*
X227157557Y-62746686D01*
X227042137Y-62401258D01*
X226956250Y-62089468D01*
X226912285Y-61859046D01*
X226909680Y-61791748D01*
X226866784Y-61566197D01*
X226715213Y-61448974D01*
X226484892Y-61461977D01*
X226467311Y-61468070D01*
X226297355Y-61594858D01*
X226267932Y-61791362D01*
X226379003Y-62044098D01*
X226469225Y-62165823D01*
X226615486Y-62388496D01*
X226775582Y-62700956D01*
X226915498Y-63036807D01*
X226915642Y-63037203D01*
X227024886Y-63357936D01*
X227075529Y-63583051D01*
X227074085Y-63766734D01*
X227027066Y-63963176D01*
X227026955Y-63963538D01*
X226982497Y-64128584D01*
X226971157Y-64271181D01*
X227001117Y-64433311D01*
X227080559Y-64656966D01*
X227217666Y-64984131D01*
X227232659Y-65019028D01*
X227541581Y-65737595D01*
X227281587Y-66478750D01*
X227162109Y-66848786D01*
X227064464Y-67205809D01*
X227003777Y-67492227D01*
X226992917Y-67577997D01*
X227022303Y-67993294D01*
X227157002Y-68456504D01*
X227377387Y-68910315D01*
X227524636Y-69130654D01*
X227692063Y-69377637D01*
X227825396Y-69615552D01*
X227862194Y-69699897D01*
X227892595Y-69927369D01*
X227870603Y-70239543D01*
X227806448Y-70570259D01*
X227710358Y-70853355D01*
X227672557Y-70926455D01*
X227621278Y-71143551D01*
X227709923Y-71330018D01*
X227805667Y-71396234D01*
X227878877Y-71494170D01*
X227991601Y-71725672D01*
X228135457Y-72068143D01*
X228302055Y-72498986D01*
X228483011Y-72995606D01*
X228669937Y-73535406D01*
X228854448Y-74095789D01*
X229028156Y-74654159D01*
X229082000Y-74835219D01*
X229318273Y-75639897D01*
X229140757Y-76465191D01*
X228995193Y-77205145D01*
X228908132Y-77831390D01*
X228881357Y-78383401D01*
X228916655Y-78900649D01*
X229015809Y-79422608D01*
X229180605Y-79988752D01*
X229317924Y-80383104D01*
X229685189Y-81392154D01*
X229385250Y-81578936D01*
X229198727Y-81709584D01*
X229124917Y-81830978D01*
X229132355Y-82010639D01*
X229146663Y-82090964D01*
X229186727Y-82241514D01*
X229273760Y-82526875D01*
X229401379Y-82927477D01*
X229563202Y-83423744D01*
X229752845Y-83996105D01*
X229963928Y-84624984D01*
X230190065Y-85290811D01*
X230191034Y-85293648D01*
X230446384Y-86042999D01*
X230652283Y-86652754D01*
X230813045Y-87137558D01*
X230932982Y-87512054D01*
X231016410Y-87790887D01*
X231067641Y-87988703D01*
X231090992Y-88120146D01*
X231090775Y-88199860D01*
X231071304Y-88242493D01*
X231062052Y-88250455D01*
X230942984Y-88315404D01*
X230711421Y-88427115D01*
X230404927Y-88567821D01*
X230174931Y-88670095D01*
X229822925Y-88822145D01*
X229583805Y-88914738D01*
X229421816Y-88956144D01*
X229301206Y-88954640D01*
X229186222Y-88918497D01*
X229156102Y-88905850D01*
X228852595Y-88855552D01*
X228611908Y-88910702D01*
X228400658Y-88997649D01*
X228266540Y-89097865D01*
X228175847Y-89255449D01*
X228094881Y-89514502D01*
X228065669Y-89625459D01*
X228006659Y-89943403D01*
X228021277Y-90228369D01*
X228099127Y-90529805D01*
X228169052Y-90786425D01*
X228192702Y-91007490D01*
X228168831Y-91252627D01*
X228096189Y-91581459D01*
X228075391Y-91663713D01*
X227904541Y-92264576D01*
X227731911Y-92723229D01*
X227546570Y-93060546D01*
X227337581Y-93297406D01*
X227152938Y-93424862D01*
X226971624Y-93508138D01*
X226684747Y-93622244D01*
X226321755Y-93757193D01*
X225912102Y-93903000D01*
X225485237Y-94049679D01*
X225070612Y-94187246D01*
X224697677Y-94305711D01*
X224395882Y-94395093D01*
X224194681Y-94445402D01*
X224126413Y-94451048D01*
X224081976Y-94370886D01*
X223984674Y-94156702D01*
X223842003Y-93826257D01*
X223661457Y-93397311D01*
X223450532Y-92887623D01*
X223216722Y-92314955D01*
X223033146Y-91860499D01*
X222003227Y-89299489D01*
X221564287Y-89391371D01*
X221320087Y-89439589D01*
X221153319Y-89467028D01*
X221108181Y-89469371D01*
X221068244Y-89393960D01*
X220959098Y-89179064D01*
X220784154Y-88831517D01*
X220546818Y-88358149D01*
X220250501Y-87765790D01*
X219898612Y-87061272D01*
X219494562Y-86251427D01*
X219041758Y-85343083D01*
X218543610Y-84343075D01*
X218003527Y-83258231D01*
X217424918Y-82095383D01*
X216811194Y-80861362D01*
X216584481Y-80405367D01*
X216257602Y-79744974D01*
X215944826Y-79107621D01*
X215655817Y-78513403D01*
X215400239Y-77982413D01*
X215187757Y-77534746D01*
X215028038Y-77190494D01*
X214930743Y-76969751D01*
X214923755Y-76952598D01*
X214802370Y-76658852D01*
X214715380Y-76487888D01*
X214638951Y-76409877D01*
X214549248Y-76394991D01*
X214484648Y-76403058D01*
X214329165Y-76433113D01*
X214274810Y-76451720D01*
X214295283Y-76531111D01*
X214354918Y-76742072D01*
X214446492Y-77059555D01*
X214562782Y-77458508D01*
X214686671Y-77880312D01*
X214850946Y-78439477D01*
X215041380Y-79090662D01*
X215253781Y-79819327D01*
X215483958Y-80610936D01*
X215727723Y-81450946D01*
X215980883Y-82324820D01*
X216239247Y-83218018D01*
X216498628Y-84116000D01*
X216754832Y-85004227D01*
X217003672Y-85868159D01*
X217240954Y-86693259D01*
X217462489Y-87464985D01*
X217664087Y-88168798D01*
X217841557Y-88790160D01*
X217990708Y-89314530D01*
X218107351Y-89727370D01*
X218187295Y-90014140D01*
X218226347Y-90160299D01*
X218228058Y-90167571D01*
X218304232Y-90505203D01*
X217369793Y-90896818D01*
X217895448Y-92487224D01*
X218064094Y-92997291D01*
X218223976Y-93480512D01*
X218364771Y-93905714D01*
X218476158Y-94241724D01*
X218547813Y-94457370D01*
X218553011Y-94472960D01*
X218599785Y-94627942D01*
X218622555Y-94770593D01*
X218616176Y-94930494D01*
X218575501Y-95137227D01*
X218495386Y-95420371D01*
X218370682Y-95809509D01*
X218265147Y-96127692D01*
X217845373Y-97387093D01*
X215476246Y-98196067D01*
X214859850Y-98405369D01*
X214270231Y-98603376D01*
X213731531Y-98782147D01*
X213267891Y-98933746D01*
X212903449Y-99050230D01*
X212662344Y-99123664D01*
X212619287Y-99135681D01*
X212131454Y-99266319D01*
X211928604Y-98846476D01*
X211854327Y-98681045D01*
X211726284Y-98382620D01*
X211552127Y-97969566D01*
X211339509Y-97460248D01*
X211096083Y-96873028D01*
X210829501Y-96226271D01*
X210547415Y-95538343D01*
X210413462Y-95210444D01*
X210134338Y-94528237D01*
X209873520Y-93894370D01*
X209637567Y-93324524D01*
X209433043Y-92834387D01*
X209266508Y-92439640D01*
X209144527Y-92155969D01*
X209073660Y-91999057D01*
X209058665Y-91972354D01*
X208966470Y-91984684D01*
X208757390Y-92036503D01*
X208470223Y-92117865D01*
X208352393Y-92153331D01*
X207688625Y-92356208D01*
X207789895Y-92634446D01*
X207846109Y-92822694D01*
X207812351Y-92922492D01*
X207661540Y-92996135D01*
X207627185Y-93008764D01*
X207448666Y-93059860D01*
X207344658Y-93021730D01*
X207253111Y-92865440D01*
X207234635Y-92825715D01*
X207133534Y-92644056D01*
X207026019Y-92582771D01*
X206873626Y-92602359D01*
X206629624Y-92687134D01*
X206406559Y-92797033D01*
X206248487Y-92918458D01*
X206212663Y-93060328D01*
X206237912Y-93191439D01*
X206266999Y-93357935D01*
X206220733Y-93460919D01*
X206065948Y-93552831D01*
X205986310Y-93589263D01*
X205668726Y-93731580D01*
X205568476Y-93456144D01*
X205484361Y-93276913D01*
X205377269Y-93198337D01*
X205213282Y-93217292D01*
X204958481Y-93330653D01*
X204846190Y-93389580D01*
X204618630Y-93519759D01*
X204508111Y-93619000D01*
X204483826Y-93725815D01*
X204500643Y-93821563D01*
X204519816Y-93957541D01*
X204471894Y-94045239D01*
X204322387Y-94122791D01*
X204179395Y-94176743D01*
X203952008Y-94251751D01*
X203824790Y-94257680D01*
X203746775Y-94187415D01*
X203704756Y-94110485D01*
X203639977Y-94003019D01*
X203556980Y-93958866D01*
X203412235Y-93974295D01*
X203162215Y-94045577D01*
X203115672Y-94060006D01*
X202627690Y-94211741D01*
X202726790Y-94484017D01*
X202779269Y-94673022D01*
X202743843Y-94771756D01*
X202643616Y-94822635D01*
X202306997Y-94916065D01*
X202054097Y-94926956D01*
X201910459Y-94855179D01*
X201895368Y-94826428D01*
X201766536Y-94691865D01*
X201519220Y-94668691D01*
X201154463Y-94756968D01*
X201092190Y-94778913D01*
X200695133Y-94923430D01*
X201012766Y-95655228D01*
X201182659Y-96050157D01*
X201384697Y-96525093D01*
X201588762Y-97009032D01*
X201707386Y-97292776D01*
X201814476Y-97549278D01*
X201977018Y-97937531D01*
X202187119Y-98438726D01*
X202436885Y-99034053D01*
X202718420Y-99704702D01*
X203023832Y-100431865D01*
X203345226Y-101196733D01*
X203674708Y-101980495D01*
X203709954Y-102064316D01*
X205335535Y-105930106D01*
X204753021Y-107045561D01*
X205321387Y-108448038D01*
X205532937Y-108966960D01*
X205753100Y-109501686D01*
X205962938Y-110006570D01*
X206143510Y-110435971D01*
X206238363Y-110657952D01*
X206586971Y-111465390D01*
X282979722Y-83660702D01*
X282241710Y-81474009D01*
X282020243Y-80815608D01*
X281789221Y-80124887D01*
X281561756Y-79441331D01*
X281350963Y-78804427D01*
X281169957Y-78253661D01*
X281063480Y-77926554D01*
X280623262Y-76565794D01*
X280122690Y-76777132D01*
X279622116Y-76988470D01*
X279180090Y-75774012D01*
X278337176Y-75890306D01*
X277984256Y-75936612D01*
X277695058Y-75970066D01*
X277505446Y-75986790D01*
X277450515Y-75986202D01*
X277415407Y-75906459D01*
X277336404Y-75689965D01*
X277219883Y-75355382D01*
X277072220Y-74921374D01*
X276899794Y-74406602D01*
X276708983Y-73829729D01*
X276600049Y-73497450D01*
X276402289Y-72895020D01*
X276219983Y-72344780D01*
X276059433Y-71865342D01*
X275926936Y-71475317D01*
X275828791Y-71193317D01*
X275771296Y-71037952D01*
X275759330Y-71013243D01*
X275671621Y-71024652D01*
X275455256Y-71067031D01*
X275140610Y-71134064D01*
X274758059Y-71219437D01*
X274662641Y-71241237D01*
X273599953Y-71485087D01*
X273448648Y-70926057D01*
X273378424Y-70691641D01*
X273262202Y-70332563D01*
X273109743Y-69877698D01*
X272930805Y-69355917D01*
X272735149Y-68796093D01*
X272598022Y-68409774D01*
X271898700Y-66452523D01*
X271494914Y-66624236D01*
X271262521Y-66728422D01*
X271099646Y-66811439D01*
X271054242Y-66842686D01*
X271004219Y-66799943D01*
X270908144Y-66632862D01*
X270778907Y-66369440D01*
X270629404Y-66037678D01*
X270472528Y-65665575D01*
X270321171Y-65281128D01*
X270262896Y-65124217D01*
X270147711Y-64814237D01*
X270063951Y-64626424D01*
X269987679Y-64529270D01*
X269894952Y-64491272D01*
X269774498Y-64481473D01*
X269516118Y-64456534D01*
X269340746Y-64389232D01*
X269226579Y-64250605D01*
X269151819Y-64011696D01*
X269094664Y-63643541D01*
X269085083Y-63565623D01*
X269041215Y-63227548D01*
X268998746Y-62944097D01*
X268964614Y-62760084D01*
X268954772Y-62724142D01*
X268882153Y-62609615D01*
X268728836Y-62413472D01*
X268525066Y-62173982D01*
X268478984Y-62122087D01*
X268349864Y-61975504D01*
X268240641Y-61840527D01*
X268141089Y-61696647D01*
X268040987Y-61523352D01*
X267930112Y-61300131D01*
X267798241Y-61006470D01*
X267635152Y-60621861D01*
X267430621Y-60125791D01*
X267189574Y-59534941D01*
X266953767Y-58958589D01*
X266726621Y-58408285D01*
X266518695Y-57909238D01*
X266340547Y-57486656D01*
X266202737Y-57165751D01*
X266117321Y-56974897D01*
X265948728Y-56666969D01*
X265786259Y-56456863D01*
X265647464Y-56361556D01*
X265549898Y-56398023D01*
X265539743Y-56416247D01*
X265539732Y-56540463D01*
X265589084Y-56810345D01*
X265688208Y-57227459D01*
X265837517Y-57793368D01*
X266037421Y-58509638D01*
X266288333Y-59377831D01*
X266561861Y-60302991D01*
X267076187Y-62027889D01*
X266996702Y-62693944D01*
X266917215Y-63359999D01*
X267284699Y-64023195D01*
X267460560Y-64360711D01*
X267580695Y-64633028D01*
X267631310Y-64807888D01*
X267631325Y-64833802D01*
X267555859Y-64967357D01*
X267389354Y-65134020D01*
X267297516Y-65205607D01*
X266984563Y-65430000D01*
X267888706Y-67914111D01*
X267416103Y-68048404D01*
X266943499Y-68182697D01*
X267156741Y-68789110D01*
X267317627Y-69252982D01*
X267491599Y-69765481D01*
X267671355Y-70303933D01*
X267849594Y-70845662D01*
X268019017Y-71367996D01*
X268172324Y-71848259D01*
X268302213Y-72263779D01*
X268401384Y-72591880D01*
X268462535Y-72809889D01*
X268478638Y-72894689D01*
X268406145Y-72963518D01*
X268228299Y-73108549D01*
X267971224Y-73309063D01*
X267661046Y-73544335D01*
X267635859Y-73563186D01*
X267321185Y-73802247D01*
X267056441Y-74010488D01*
X266868277Y-74166445D01*
X266783342Y-74248649D01*
X266781992Y-74251004D01*
X266796078Y-74346111D01*
X266854935Y-74576088D01*
X266952596Y-74920539D01*
X267083092Y-75359071D01*
X267240458Y-75871290D01*
X267418724Y-76436799D01*
X267452369Y-76542047D01*
X267634084Y-77116798D01*
X267796056Y-77643655D01*
X267932270Y-78101853D01*
X268036708Y-78470635D01*
X268103354Y-78729238D01*
X268126193Y-78856902D01*
X268125286Y-78864088D01*
X268041093Y-78948840D01*
X267845896Y-79084048D01*
X267574519Y-79246579D01*
X267428535Y-79326913D01*
X267127692Y-79499574D01*
X266881755Y-79662351D01*
X266727992Y-79789625D01*
X266698748Y-79828598D01*
X266686766Y-80020791D01*
X266767375Y-80346784D01*
X266819768Y-80498779D01*
X266925083Y-80810345D01*
X267009115Y-81099061D01*
X267049142Y-81278222D01*
X267062708Y-81432992D01*
X267019466Y-81529133D01*
X266884024Y-81606685D01*
X266695164Y-81678735D01*
X266301860Y-81821957D01*
X265078070Y-78297549D01*
X263854281Y-74773142D01*
X263530263Y-74582267D01*
X263396559Y-74499911D01*
X263295498Y-74416664D01*
X263210205Y-74303183D01*
X263123807Y-74130128D01*
X263019432Y-73868157D01*
X262880207Y-73487928D01*
X262845211Y-73390997D01*
X262677997Y-72908053D01*
X262572645Y-72553506D01*
X262523816Y-72306872D01*
X262524023Y-72158814D01*
X262523131Y-71835254D01*
X262393747Y-71609892D01*
X262248215Y-71520433D01*
X262073013Y-71405232D01*
X261973464Y-71214095D01*
X261935688Y-70912993D01*
X261934798Y-70751959D01*
X261929121Y-70512453D01*
X261881673Y-70358180D01*
X261761378Y-70211376D01*
X261691231Y-70142462D01*
X261468705Y-69983929D01*
X261159920Y-69832214D01*
X260930237Y-69749966D01*
X260418621Y-69597976D01*
X259907091Y-68192560D01*
X259691335Y-67616086D01*
X259507595Y-67158875D01*
X259360744Y-66832325D01*
X259255659Y-66647834D01*
X259237198Y-66625965D01*
X259136184Y-66490871D01*
X259149698Y-66358203D01*
X259208115Y-66249641D01*
X259289864Y-66094910D01*
X259269619Y-66009923D01*
X259136994Y-65928587D01*
X258912292Y-65856496D01*
X258652165Y-65831301D01*
X258650733Y-65831344D01*
X258344515Y-65767959D01*
X258124880Y-65611361D01*
X257909094Y-65437864D01*
X257766911Y-65406480D01*
X257688063Y-65519159D01*
X257664343Y-65698729D01*
X257595479Y-65984453D01*
X257415326Y-66189763D01*
X257232789Y-66369357D01*
X257107811Y-66554433D01*
X257102905Y-66565829D01*
X257061719Y-66702422D01*
X257096161Y-66806989D01*
X257230076Y-66945489D01*
X257245191Y-66959448D01*
X257402972Y-67139109D01*
X257470300Y-67339898D01*
X257483475Y-67477373D01*
X257517871Y-67664032D01*
X257600881Y-67969886D01*
X257722436Y-68361692D01*
X257872464Y-68806208D01*
X257962240Y-69057742D01*
X258422710Y-70322872D01*
X258126793Y-70699813D01*
X257888752Y-71083505D01*
X257765563Y-71464264D01*
X257758722Y-71813829D01*
X257869723Y-72103934D01*
X258043567Y-72273695D01*
X258205837Y-72416789D01*
X258253228Y-72587668D01*
X258192143Y-72829239D01*
X258143675Y-72944359D01*
X257990859Y-73285904D01*
X258280369Y-73534593D01*
X258406923Y-73651791D01*
X258506798Y-73775598D01*
X258596710Y-73939202D01*
X258693383Y-74175799D01*
X258813534Y-74518578D01*
X258887592Y-74740014D01*
X259019347Y-75141654D01*
X259103333Y-75421642D01*
X259144327Y-75612988D01*
X259147104Y-75748700D01*
X259116439Y-75861789D01*
X259065428Y-75969114D01*
X258976845Y-76150734D01*
X258934080Y-76256611D01*
X258933367Y-76264518D01*
X258956356Y-76346784D01*
X259015447Y-76561258D01*
X259103677Y-76882580D01*
X259214083Y-77285392D01*
X259330397Y-77710333D01*
X259461719Y-78186180D01*
X259584410Y-78623027D01*
X259689625Y-78989964D01*
X259768517Y-79256080D01*
X259807971Y-79379086D01*
X259851555Y-79521239D01*
X259834032Y-79613192D01*
X259726470Y-79691754D01*
X259499928Y-79793739D01*
X259473021Y-79805195D01*
X259049712Y-79985333D01*
X259040731Y-80379713D01*
X259023908Y-80624275D01*
X258969483Y-80758514D01*
X258849843Y-80835146D01*
X258790727Y-80856988D01*
X258649672Y-80906379D01*
X258378302Y-81002176D01*
X258000191Y-81136031D01*
X257538916Y-81299590D01*
X257018051Y-81484501D01*
X256548860Y-81651233D01*
X254548017Y-82362581D01*
X252776597Y-77495643D01*
X253124898Y-76724889D01*
X252824296Y-76532158D01*
X252534724Y-76276002D01*
X252315180Y-75915190D01*
X252157046Y-75431357D01*
X252065056Y-74914064D01*
X251997493Y-74511324D01*
X251904134Y-74095863D01*
X251803860Y-73750503D01*
X251792416Y-73718133D01*
X251706553Y-73499303D01*
X251612705Y-73318574D01*
X251485552Y-73143626D01*
X251299777Y-72942133D01*
X251030064Y-72681772D01*
X250847356Y-72511575D01*
X250083517Y-71803996D01*
X249569164Y-70313132D01*
X249388913Y-69785505D01*
X249258733Y-69388837D01*
X249172829Y-69100597D01*
X249125407Y-68898248D01*
X249110674Y-68759259D01*
X249122836Y-68661094D01*
X249135164Y-68625155D01*
X249191132Y-68456502D01*
X249167179Y-68343638D01*
X249039016Y-68229828D01*
X248936007Y-68159965D01*
X248812148Y-68068513D01*
X248730005Y-67966002D01*
X248669785Y-67809478D01*
X248611692Y-67555982D01*
X248577911Y-67382855D01*
X248483552Y-66961797D01*
X248366398Y-66624847D01*
X248200983Y-66328076D01*
X247961844Y-66027559D01*
X247623515Y-65679366D01*
X247548023Y-65606220D01*
X247212918Y-65267579D01*
X246964047Y-64969950D01*
X246757422Y-64655739D01*
X246595997Y-64359587D01*
X246284525Y-63657614D01*
X246090306Y-62996874D01*
X246019868Y-62401410D01*
X246023196Y-62250003D01*
X246020524Y-61995737D01*
X245987143Y-61809171D01*
X245955599Y-61754208D01*
X245889106Y-61654487D01*
X245775386Y-61436011D01*
X245630215Y-61130732D01*
X245469366Y-60770600D01*
X245464867Y-60760215D01*
X245287601Y-60359146D01*
X245148776Y-60074218D01*
X245026218Y-59869890D01*
X244897749Y-59710620D01*
X244741194Y-59560870D01*
X244687380Y-59514155D01*
X244308792Y-59189609D01*
X243654882Y-57510131D01*
X243433060Y-56935074D01*
X243267682Y-56492173D01*
X243152698Y-56162676D01*
X243082053Y-55927822D01*
X243049695Y-55768859D01*
X243049569Y-55667028D01*
X243053937Y-55648049D01*
X243069354Y-55384788D01*
X242940483Y-55198024D01*
X242823007Y-55133650D01*
X242755340Y-55100702D01*
X242689787Y-55050032D01*
X242618642Y-54966864D01*
X242534207Y-54836418D01*
X242428778Y-54643920D01*
X242294656Y-54374592D01*
X242124139Y-54013658D01*
X241909525Y-53546341D01*
X241643113Y-52957862D01*
X241352893Y-52312877D01*
X240750446Y-50969000D01*
X240214772Y-49767098D01*
X239743321Y-48701247D01*
X239333542Y-47765522D01*
X238982883Y-46953995D01*
X238688795Y-46260740D01*
X238448726Y-45679830D01*
X238260126Y-45205341D01*
X238120443Y-44831344D01*
X238070094Y-44685993D01*
X237937469Y-44294261D01*
X237842305Y-44032971D01*
X237771209Y-43877335D01*
X237710793Y-43802566D01*
X237647664Y-43783879D01*
X237587353Y-43792410D01*
X237443539Y-43883045D01*
G37*
X237443539Y-43883045D02*
X237428738Y-44054860D01*
X237542639Y-44289255D01*
X237596944Y-44362798D01*
X237641426Y-44420850D01*
X237683035Y-44483575D01*
X237725448Y-44563131D01*
X237772342Y-44671678D01*
X237827395Y-44821376D01*
X237894283Y-45024385D01*
X237976683Y-45292865D01*
X238078272Y-45638974D01*
X238202727Y-46074875D01*
X238353725Y-46612725D01*
X238534943Y-47264685D01*
X238750057Y-48042914D01*
X239002745Y-48959572D01*
X239164268Y-49546016D01*
X239458723Y-50616164D01*
X239712217Y-51540871D01*
X239927485Y-52332084D01*
X240107259Y-53001754D01*
X240254270Y-53561830D01*
X240371252Y-54024262D01*
X240460938Y-54401000D01*
X240526060Y-54703992D01*
X240569352Y-54945189D01*
X240593545Y-55136540D01*
X240601374Y-55289995D01*
X240595569Y-55417502D01*
X240578865Y-55531013D01*
X240556297Y-55633034D01*
X240501355Y-55917755D01*
X240509044Y-56110041D01*
X240582651Y-56269636D01*
X240592063Y-56283624D01*
X240660585Y-56420528D01*
X240771912Y-56686282D01*
X240916082Y-57055146D01*
X241083130Y-57501386D01*
X241263092Y-57999262D01*
X241334325Y-58201013D01*
X241933557Y-59909720D01*
X241773058Y-60281976D01*
X241676047Y-60559803D01*
X241642859Y-60827498D01*
X241677957Y-61123074D01*
X241785809Y-61484548D01*
X241968248Y-61943737D01*
X242111971Y-62291053D01*
X242196822Y-62529601D01*
X242231638Y-62699269D01*
X242225252Y-62839939D01*
X242194483Y-62964975D01*
X242147505Y-63163412D01*
X242173030Y-63277690D01*
X242286907Y-63376853D01*
X242289445Y-63378631D01*
X242368220Y-63454864D01*
X242453379Y-63587614D01*
X242554855Y-63798641D01*
X242682580Y-64109703D01*
X242846489Y-64542559D01*
X242951158Y-64828053D01*
X243432836Y-66151452D01*
X243299826Y-66733333D01*
X243206153Y-67264654D01*
X243167455Y-67772531D01*
X243184957Y-68212591D01*
X243250607Y-68516300D01*
X243357074Y-68737503D01*
X243517531Y-68998590D01*
X243589713Y-69100383D01*
X243836539Y-69430929D01*
X243678174Y-69821014D01*
X243579447Y-70083416D01*
X243556665Y-70251461D01*
X243620423Y-70380490D01*
X243781311Y-70525846D01*
X243818831Y-70555959D01*
X243912960Y-70640734D01*
X243997537Y-70747089D01*
X244084219Y-70899499D01*
X244184664Y-71122445D01*
X244310530Y-71440404D01*
X244473474Y-71877854D01*
X244556056Y-72103883D01*
X245048616Y-73456288D01*
X244916088Y-74665561D01*
X244783559Y-75874833D01*
X245813148Y-78371445D01*
X245683322Y-78756574D01*
X245613766Y-78996917D01*
X245582098Y-79177428D01*
X245585189Y-79228785D01*
X245669859Y-79319754D01*
X245846921Y-79448460D01*
X245942045Y-79507414D01*
X246267206Y-79698961D01*
X246532103Y-80566474D01*
X246796999Y-81433985D01*
X246267068Y-81674388D01*
X246068081Y-81759242D01*
X245737624Y-81893744D01*
X245296923Y-82069527D01*
X244767201Y-82278230D01*
X244169686Y-82511484D01*
X243525602Y-82760925D01*
X242903538Y-83000051D01*
X240069940Y-84085311D01*
X239736572Y-83307485D01*
X239607386Y-83002697D01*
X239430452Y-82580442D01*
X239219801Y-82074462D01*
X238989465Y-81518499D01*
X238753473Y-80946296D01*
X238645541Y-80683653D01*
X238431774Y-80169844D01*
X238233956Y-79707601D01*
X238061605Y-79318113D01*
X237924238Y-79022572D01*
X237831375Y-78842166D01*
X237797419Y-78795468D01*
X237671214Y-78788948D01*
X237447801Y-78818556D01*
X237292803Y-78850774D01*
X237111575Y-78893851D01*
X236983352Y-78907655D01*
X236891415Y-78869665D01*
X236819047Y-78757364D01*
X236749528Y-78548233D01*
X236666140Y-78219754D01*
X236589907Y-77904047D01*
X236447739Y-77390363D01*
X236291539Y-76983218D01*
X236144963Y-76700531D01*
X235761849Y-76141478D01*
X235278874Y-75588681D01*
X234738190Y-75083077D01*
X234181950Y-74665602D01*
X233846320Y-74468237D01*
X233440291Y-74258391D01*
X233003558Y-73293454D01*
X232788190Y-72811312D01*
X232543812Y-72254329D01*
X232303654Y-71698688D01*
X232137471Y-71307710D01*
X231965947Y-70897638D01*
X231850451Y-70607410D01*
X231783641Y-70406319D01*
X231758173Y-70263659D01*
X231766705Y-70148724D01*
X231801893Y-70030805D01*
X231820108Y-69980520D01*
X231932100Y-69674137D01*
X231627340Y-69539893D01*
X231377600Y-69389099D01*
X231129829Y-69178330D01*
X231070320Y-69114455D01*
X230960322Y-68979666D01*
X230878422Y-68847677D01*
X230811672Y-68682518D01*
X230747124Y-68448223D01*
X230671833Y-68108825D01*
X230622298Y-67869915D01*
X230508026Y-67359205D01*
X230392490Y-66977109D01*
X230255487Y-66689998D01*
X230076806Y-66464245D01*
X229836239Y-66266221D01*
X229548445Y-66082922D01*
X229113758Y-65822929D01*
X228796765Y-65623349D01*
X228574750Y-65461137D01*
X228424994Y-65313245D01*
X228324780Y-65156629D01*
X228251392Y-64968243D01*
X228182110Y-64725038D01*
X228171704Y-64686272D01*
X228073101Y-64348126D01*
X227978685Y-64115910D01*
X227861249Y-63935255D01*
X227714789Y-63773244D01*
X227549823Y-63581579D01*
X227410523Y-63355101D01*
X227272423Y-63048741D01*
X227157557Y-62746686D01*
X227042137Y-62401258D01*
X226956250Y-62089468D01*
X226912285Y-61859046D01*
X226909680Y-61791748D01*
X226866784Y-61566197D01*
X226715213Y-61448974D01*
X226484892Y-61461977D01*
X226467311Y-61468070D01*
X226297355Y-61594858D01*
X226267932Y-61791362D01*
X226379003Y-62044098D01*
X226469225Y-62165823D01*
X226615486Y-62388496D01*
X226775582Y-62700956D01*
X226915498Y-63036807D01*
X226915642Y-63037203D01*
X227024886Y-63357936D01*
X227075529Y-63583051D01*
X227074085Y-63766734D01*
X227027066Y-63963176D01*
X227026955Y-63963538D01*
X226982497Y-64128584D01*
X226971157Y-64271181D01*
X227001117Y-64433311D01*
X227080559Y-64656966D01*
X227217666Y-64984131D01*
X227232659Y-65019028D01*
X227541581Y-65737595D01*
X227281587Y-66478750D01*
X227162109Y-66848786D01*
X227064464Y-67205809D01*
X227003777Y-67492227D01*
X226992917Y-67577997D01*
X227022303Y-67993294D01*
X227157002Y-68456504D01*
X227377387Y-68910315D01*
X227524636Y-69130654D01*
X227692063Y-69377637D01*
X227825396Y-69615552D01*
X227862194Y-69699897D01*
X227892595Y-69927369D01*
X227870603Y-70239543D01*
X227806448Y-70570259D01*
X227710358Y-70853355D01*
X227672557Y-70926455D01*
X227621278Y-71143551D01*
X227709923Y-71330018D01*
X227805667Y-71396234D01*
X227878877Y-71494170D01*
X227991601Y-71725672D01*
X228135457Y-72068143D01*
X228302055Y-72498986D01*
X228483011Y-72995606D01*
X228669937Y-73535406D01*
X228854448Y-74095789D01*
X229028156Y-74654159D01*
X229082000Y-74835219D01*
X229318273Y-75639897D01*
X229140757Y-76465191D01*
X228995193Y-77205145D01*
X228908132Y-77831390D01*
X228881357Y-78383401D01*
X228916655Y-78900649D01*
X229015809Y-79422608D01*
X229180605Y-79988752D01*
X229317924Y-80383104D01*
X229685189Y-81392154D01*
X229385250Y-81578936D01*
X229198727Y-81709584D01*
X229124917Y-81830978D01*
X229132355Y-82010639D01*
X229146663Y-82090964D01*
X229186727Y-82241514D01*
X229273760Y-82526875D01*
X229401379Y-82927477D01*
X229563202Y-83423744D01*
X229752845Y-83996105D01*
X229963928Y-84624984D01*
X230190065Y-85290811D01*
X230191034Y-85293648D01*
X230446384Y-86042999D01*
X230652283Y-86652754D01*
X230813045Y-87137558D01*
X230932982Y-87512054D01*
X231016410Y-87790887D01*
X231067641Y-87988703D01*
X231090992Y-88120146D01*
X231090775Y-88199860D01*
X231071304Y-88242493D01*
X231062052Y-88250455D01*
X230942984Y-88315404D01*
X230711421Y-88427115D01*
X230404927Y-88567821D01*
X230174931Y-88670095D01*
X229822925Y-88822145D01*
X229583805Y-88914738D01*
X229421816Y-88956144D01*
X229301206Y-88954640D01*
X229186222Y-88918497D01*
X229156102Y-88905850D01*
X228852595Y-88855552D01*
X228611908Y-88910702D01*
X228400658Y-88997649D01*
X228266540Y-89097865D01*
X228175847Y-89255449D01*
X228094881Y-89514502D01*
X228065669Y-89625459D01*
X228006659Y-89943403D01*
X228021277Y-90228369D01*
X228099127Y-90529805D01*
X228169052Y-90786425D01*
X228192702Y-91007490D01*
X228168831Y-91252627D01*
X228096189Y-91581459D01*
X228075391Y-91663713D01*
X227904541Y-92264576D01*
X227731911Y-92723229D01*
X227546570Y-93060546D01*
X227337581Y-93297406D01*
X227152938Y-93424862D01*
X226971624Y-93508138D01*
X226684747Y-93622244D01*
X226321755Y-93757193D01*
X225912102Y-93903000D01*
X225485237Y-94049679D01*
X225070612Y-94187246D01*
X224697677Y-94305711D01*
X224395882Y-94395093D01*
X224194681Y-94445402D01*
X224126413Y-94451048D01*
X224081976Y-94370886D01*
X223984674Y-94156702D01*
X223842003Y-93826257D01*
X223661457Y-93397311D01*
X223450532Y-92887623D01*
X223216722Y-92314955D01*
X223033146Y-91860499D01*
X222003227Y-89299489D01*
X221564287Y-89391371D01*
X221320087Y-89439589D01*
X221153319Y-89467028D01*
X221108181Y-89469371D01*
X221068244Y-89393960D01*
X220959098Y-89179064D01*
X220784154Y-88831517D01*
X220546818Y-88358149D01*
X220250501Y-87765790D01*
X219898612Y-87061272D01*
X219494562Y-86251427D01*
X219041758Y-85343083D01*
X218543610Y-84343075D01*
X218003527Y-83258231D01*
X217424918Y-82095383D01*
X216811194Y-80861362D01*
X216584481Y-80405367D01*
X216257602Y-79744974D01*
X215944826Y-79107621D01*
X215655817Y-78513403D01*
X215400239Y-77982413D01*
X215187757Y-77534746D01*
X215028038Y-77190494D01*
X214930743Y-76969751D01*
X214923755Y-76952598D01*
X214802370Y-76658852D01*
X214715380Y-76487888D01*
X214638951Y-76409877D01*
X214549248Y-76394991D01*
X214484648Y-76403058D01*
X214329165Y-76433113D01*
X214274810Y-76451720D01*
X214295283Y-76531111D01*
X214354918Y-76742072D01*
X214446492Y-77059555D01*
X214562782Y-77458508D01*
X214686671Y-77880312D01*
X214850946Y-78439477D01*
X215041380Y-79090662D01*
X215253781Y-79819327D01*
X215483958Y-80610936D01*
X215727723Y-81450946D01*
X215980883Y-82324820D01*
X216239247Y-83218018D01*
X216498628Y-84116000D01*
X216754832Y-85004227D01*
X217003672Y-85868159D01*
X217240954Y-86693259D01*
X217462489Y-87464985D01*
X217664087Y-88168798D01*
X217841557Y-88790160D01*
X217990708Y-89314530D01*
X218107351Y-89727370D01*
X218187295Y-90014140D01*
X218226347Y-90160299D01*
X218228058Y-90167571D01*
X218304232Y-90505203D01*
X217369793Y-90896818D01*
X217895448Y-92487224D01*
X218064094Y-92997291D01*
X218223976Y-93480512D01*
X218364771Y-93905714D01*
X218476158Y-94241724D01*
X218547813Y-94457370D01*
X218553011Y-94472960D01*
X218599785Y-94627942D01*
X218622555Y-94770593D01*
X218616176Y-94930494D01*
X218575501Y-95137227D01*
X218495386Y-95420371D01*
X218370682Y-95809509D01*
X218265147Y-96127692D01*
X217845373Y-97387093D01*
X215476246Y-98196067D01*
X214859850Y-98405369D01*
X214270231Y-98603376D01*
X213731531Y-98782147D01*
X213267891Y-98933746D01*
X212903449Y-99050230D01*
X212662344Y-99123664D01*
X212619287Y-99135681D01*
X212131454Y-99266319D01*
X211928604Y-98846476D01*
X211854327Y-98681045D01*
X211726284Y-98382620D01*
X211552127Y-97969566D01*
X211339509Y-97460248D01*
X211096083Y-96873028D01*
X210829501Y-96226271D01*
X210547415Y-95538343D01*
X210413462Y-95210444D01*
X210134338Y-94528237D01*
X209873520Y-93894370D01*
X209637567Y-93324524D01*
X209433043Y-92834387D01*
X209266508Y-92439640D01*
X209144527Y-92155969D01*
X209073660Y-91999057D01*
X209058665Y-91972354D01*
X208966470Y-91984684D01*
X208757390Y-92036503D01*
X208470223Y-92117865D01*
X208352393Y-92153331D01*
X207688625Y-92356208D01*
X207789895Y-92634446D01*
X207846109Y-92822694D01*
X207812351Y-92922492D01*
X207661540Y-92996135D01*
X207627185Y-93008764D01*
X207448666Y-93059860D01*
X207344658Y-93021730D01*
X207253111Y-92865440D01*
X207234635Y-92825715D01*
X207133534Y-92644056D01*
X207026019Y-92582771D01*
X206873626Y-92602359D01*
X206629624Y-92687134D01*
X206406559Y-92797033D01*
X206248487Y-92918458D01*
X206212663Y-93060328D01*
X206237912Y-93191439D01*
X206266999Y-93357935D01*
X206220733Y-93460919D01*
X206065948Y-93552831D01*
X205986310Y-93589263D01*
X205668726Y-93731580D01*
X205568476Y-93456144D01*
X205484361Y-93276913D01*
X205377269Y-93198337D01*
X205213282Y-93217292D01*
X204958481Y-93330653D01*
X204846190Y-93389580D01*
X204618630Y-93519759D01*
X204508111Y-93619000D01*
X204483826Y-93725815D01*
X204500643Y-93821563D01*
X204519816Y-93957541D01*
X204471894Y-94045239D01*
X204322387Y-94122791D01*
X204179395Y-94176743D01*
X203952008Y-94251751D01*
X203824790Y-94257680D01*
X203746775Y-94187415D01*
X203704756Y-94110485D01*
X203639977Y-94003019D01*
X203556980Y-93958866D01*
X203412235Y-93974295D01*
X203162215Y-94045577D01*
X203115672Y-94060006D01*
X202627690Y-94211741D01*
X202726790Y-94484017D01*
X202779269Y-94673022D01*
X202743843Y-94771756D01*
X202643616Y-94822635D01*
X202306997Y-94916065D01*
X202054097Y-94926956D01*
X201910459Y-94855179D01*
X201895368Y-94826428D01*
X201766536Y-94691865D01*
X201519220Y-94668691D01*
X201154463Y-94756968D01*
X201092190Y-94778913D01*
X200695133Y-94923430D01*
X201012766Y-95655228D01*
X201182659Y-96050157D01*
X201384697Y-96525093D01*
X201588762Y-97009032D01*
X201707386Y-97292776D01*
X201814476Y-97549278D01*
X201977018Y-97937531D01*
X202187119Y-98438726D01*
X202436885Y-99034053D01*
X202718420Y-99704702D01*
X203023832Y-100431865D01*
X203345226Y-101196733D01*
X203674708Y-101980495D01*
X203709954Y-102064316D01*
X205335535Y-105930106D01*
X204753021Y-107045561D01*
X205321387Y-108448038D01*
X205532937Y-108966960D01*
X205753100Y-109501686D01*
X205962938Y-110006570D01*
X206143510Y-110435971D01*
X206238363Y-110657952D01*
X206586971Y-111465390D01*
X282979722Y-83660702D01*
X282241710Y-81474009D01*
X282020243Y-80815608D01*
X281789221Y-80124887D01*
X281561756Y-79441331D01*
X281350963Y-78804427D01*
X281169957Y-78253661D01*
X281063480Y-77926554D01*
X280623262Y-76565794D01*
X280122690Y-76777132D01*
X279622116Y-76988470D01*
X279180090Y-75774012D01*
X278337176Y-75890306D01*
X277984256Y-75936612D01*
X277695058Y-75970066D01*
X277505446Y-75986790D01*
X277450515Y-75986202D01*
X277415407Y-75906459D01*
X277336404Y-75689965D01*
X277219883Y-75355382D01*
X277072220Y-74921374D01*
X276899794Y-74406602D01*
X276708983Y-73829729D01*
X276600049Y-73497450D01*
X276402289Y-72895020D01*
X276219983Y-72344780D01*
X276059433Y-71865342D01*
X275926936Y-71475317D01*
X275828791Y-71193317D01*
X275771296Y-71037952D01*
X275759330Y-71013243D01*
X275671621Y-71024652D01*
X275455256Y-71067031D01*
X275140610Y-71134064D01*
X274758059Y-71219437D01*
X274662641Y-71241237D01*
X273599953Y-71485087D01*
X273448648Y-70926057D01*
X273378424Y-70691641D01*
X273262202Y-70332563D01*
X273109743Y-69877698D01*
X272930805Y-69355917D01*
X272735149Y-68796093D01*
X272598022Y-68409774D01*
X271898700Y-66452523D01*
X271494914Y-66624236D01*
X271262521Y-66728422D01*
X271099646Y-66811439D01*
X271054242Y-66842686D01*
X271004219Y-66799943D01*
X270908144Y-66632862D01*
X270778907Y-66369440D01*
X270629404Y-66037678D01*
X270472528Y-65665575D01*
X270321171Y-65281128D01*
X270262896Y-65124217D01*
X270147711Y-64814237D01*
X270063951Y-64626424D01*
X269987679Y-64529270D01*
X269894952Y-64491272D01*
X269774498Y-64481473D01*
X269516118Y-64456534D01*
X269340746Y-64389232D01*
X269226579Y-64250605D01*
X269151819Y-64011696D01*
X269094664Y-63643541D01*
X269085083Y-63565623D01*
X269041215Y-63227548D01*
X268998746Y-62944097D01*
X268964614Y-62760084D01*
X268954772Y-62724142D01*
X268882153Y-62609615D01*
X268728836Y-62413472D01*
X268525066Y-62173982D01*
X268478984Y-62122087D01*
X268349864Y-61975504D01*
X268240641Y-61840527D01*
X268141089Y-61696647D01*
X268040987Y-61523352D01*
X267930112Y-61300131D01*
X267798241Y-61006470D01*
X267635152Y-60621861D01*
X267430621Y-60125791D01*
X267189574Y-59534941D01*
X266953767Y-58958589D01*
X266726621Y-58408285D01*
X266518695Y-57909238D01*
X266340547Y-57486656D01*
X266202737Y-57165751D01*
X266117321Y-56974897D01*
X265948728Y-56666969D01*
X265786259Y-56456863D01*
X265647464Y-56361556D01*
X265549898Y-56398023D01*
X265539743Y-56416247D01*
X265539732Y-56540463D01*
X265589084Y-56810345D01*
X265688208Y-57227459D01*
X265837517Y-57793368D01*
X266037421Y-58509638D01*
X266288333Y-59377831D01*
X266561861Y-60302991D01*
X267076187Y-62027889D01*
X266996702Y-62693944D01*
X266917215Y-63359999D01*
X267284699Y-64023195D01*
X267460560Y-64360711D01*
X267580695Y-64633028D01*
X267631310Y-64807888D01*
X267631325Y-64833802D01*
X267555859Y-64967357D01*
X267389354Y-65134020D01*
X267297516Y-65205607D01*
X266984563Y-65430000D01*
X267888706Y-67914111D01*
X267416103Y-68048404D01*
X266943499Y-68182697D01*
X267156741Y-68789110D01*
X267317627Y-69252982D01*
X267491599Y-69765481D01*
X267671355Y-70303933D01*
X267849594Y-70845662D01*
X268019017Y-71367996D01*
X268172324Y-71848259D01*
X268302213Y-72263779D01*
X268401384Y-72591880D01*
X268462535Y-72809889D01*
X268478638Y-72894689D01*
X268406145Y-72963518D01*
X268228299Y-73108549D01*
X267971224Y-73309063D01*
X267661046Y-73544335D01*
X267635859Y-73563186D01*
X267321185Y-73802247D01*
X267056441Y-74010488D01*
X266868277Y-74166445D01*
X266783342Y-74248649D01*
X266781992Y-74251004D01*
X266796078Y-74346111D01*
X266854935Y-74576088D01*
X266952596Y-74920539D01*
X267083092Y-75359071D01*
X267240458Y-75871290D01*
X267418724Y-76436799D01*
X267452369Y-76542047D01*
X267634084Y-77116798D01*
X267796056Y-77643655D01*
X267932270Y-78101853D01*
X268036708Y-78470635D01*
X268103354Y-78729238D01*
X268126193Y-78856902D01*
X268125286Y-78864088D01*
X268041093Y-78948840D01*
X267845896Y-79084048D01*
X267574519Y-79246579D01*
X267428535Y-79326913D01*
X267127692Y-79499574D01*
X266881755Y-79662351D01*
X266727992Y-79789625D01*
X266698748Y-79828598D01*
X266686766Y-80020791D01*
X266767375Y-80346784D01*
X266819768Y-80498779D01*
X266925083Y-80810345D01*
X267009115Y-81099061D01*
X267049142Y-81278222D01*
X267062708Y-81432992D01*
X267019466Y-81529133D01*
X266884024Y-81606685D01*
X266695164Y-81678735D01*
X266301860Y-81821957D01*
X265078070Y-78297549D01*
X263854281Y-74773142D01*
X263530263Y-74582267D01*
X263396559Y-74499911D01*
X263295498Y-74416664D01*
X263210205Y-74303183D01*
X263123807Y-74130128D01*
X263019432Y-73868157D01*
X262880207Y-73487928D01*
X262845211Y-73390997D01*
X262677997Y-72908053D01*
X262572645Y-72553506D01*
X262523816Y-72306872D01*
X262524023Y-72158814D01*
X262523131Y-71835254D01*
X262393747Y-71609892D01*
X262248215Y-71520433D01*
X262073013Y-71405232D01*
X261973464Y-71214095D01*
X261935688Y-70912993D01*
X261934798Y-70751959D01*
X261929121Y-70512453D01*
X261881673Y-70358180D01*
X261761378Y-70211376D01*
X261691231Y-70142462D01*
X261468705Y-69983929D01*
X261159920Y-69832214D01*
X260930237Y-69749966D01*
X260418621Y-69597976D01*
X259907091Y-68192560D01*
X259691335Y-67616086D01*
X259507595Y-67158875D01*
X259360744Y-66832325D01*
X259255659Y-66647834D01*
X259237198Y-66625965D01*
X259136184Y-66490871D01*
X259149698Y-66358203D01*
X259208115Y-66249641D01*
X259289864Y-66094910D01*
X259269619Y-66009923D01*
X259136994Y-65928587D01*
X258912292Y-65856496D01*
X258652165Y-65831301D01*
X258650733Y-65831344D01*
X258344515Y-65767959D01*
X258124880Y-65611361D01*
X257909094Y-65437864D01*
X257766911Y-65406480D01*
X257688063Y-65519159D01*
X257664343Y-65698729D01*
X257595479Y-65984453D01*
X257415326Y-66189763D01*
X257232789Y-66369357D01*
X257107811Y-66554433D01*
X257102905Y-66565829D01*
X257061719Y-66702422D01*
X257096161Y-66806989D01*
X257230076Y-66945489D01*
X257245191Y-66959448D01*
X257402972Y-67139109D01*
X257470300Y-67339898D01*
X257483475Y-67477373D01*
X257517871Y-67664032D01*
X257600881Y-67969886D01*
X257722436Y-68361692D01*
X257872464Y-68806208D01*
X257962240Y-69057742D01*
X258422710Y-70322872D01*
X258126793Y-70699813D01*
X257888752Y-71083505D01*
X257765563Y-71464264D01*
X257758722Y-71813829D01*
X257869723Y-72103934D01*
X258043567Y-72273695D01*
X258205837Y-72416789D01*
X258253228Y-72587668D01*
X258192143Y-72829239D01*
X258143675Y-72944359D01*
X257990859Y-73285904D01*
X258280369Y-73534593D01*
X258406923Y-73651791D01*
X258506798Y-73775598D01*
X258596710Y-73939202D01*
X258693383Y-74175799D01*
X258813534Y-74518578D01*
X258887592Y-74740014D01*
X259019347Y-75141654D01*
X259103333Y-75421642D01*
X259144327Y-75612988D01*
X259147104Y-75748700D01*
X259116439Y-75861789D01*
X259065428Y-75969114D01*
X258976845Y-76150734D01*
X258934080Y-76256611D01*
X258933367Y-76264518D01*
X258956356Y-76346784D01*
X259015447Y-76561258D01*
X259103677Y-76882580D01*
X259214083Y-77285392D01*
X259330397Y-77710333D01*
X259461719Y-78186180D01*
X259584410Y-78623027D01*
X259689625Y-78989964D01*
X259768517Y-79256080D01*
X259807971Y-79379086D01*
X259851555Y-79521239D01*
X259834032Y-79613192D01*
X259726470Y-79691754D01*
X259499928Y-79793739D01*
X259473021Y-79805195D01*
X259049712Y-79985333D01*
X259040731Y-80379713D01*
X259023908Y-80624275D01*
X258969483Y-80758514D01*
X258849843Y-80835146D01*
X258790727Y-80856988D01*
X258649672Y-80906379D01*
X258378302Y-81002176D01*
X258000191Y-81136031D01*
X257538916Y-81299590D01*
X257018051Y-81484501D01*
X256548860Y-81651233D01*
X254548017Y-82362581D01*
X252776597Y-77495643D01*
X253124898Y-76724889D01*
X252824296Y-76532158D01*
X252534724Y-76276002D01*
X252315180Y-75915190D01*
X252157046Y-75431357D01*
X252065056Y-74914064D01*
X251997493Y-74511324D01*
X251904134Y-74095863D01*
X251803860Y-73750503D01*
X251792416Y-73718133D01*
X251706553Y-73499303D01*
X251612705Y-73318574D01*
X251485552Y-73143626D01*
X251299777Y-72942133D01*
X251030064Y-72681772D01*
X250847356Y-72511575D01*
X250083517Y-71803996D01*
X249569164Y-70313132D01*
X249388913Y-69785505D01*
X249258733Y-69388837D01*
X249172829Y-69100597D01*
X249125407Y-68898248D01*
X249110674Y-68759259D01*
X249122836Y-68661094D01*
X249135164Y-68625155D01*
X249191132Y-68456502D01*
X249167179Y-68343638D01*
X249039016Y-68229828D01*
X248936007Y-68159965D01*
X248812148Y-68068513D01*
X248730005Y-67966002D01*
X248669785Y-67809478D01*
X248611692Y-67555982D01*
X248577911Y-67382855D01*
X248483552Y-66961797D01*
X248366398Y-66624847D01*
X248200983Y-66328076D01*
X247961844Y-66027559D01*
X247623515Y-65679366D01*
X247548023Y-65606220D01*
X247212918Y-65267579D01*
X246964047Y-64969950D01*
X246757422Y-64655739D01*
X246595997Y-64359587D01*
X246284525Y-63657614D01*
X246090306Y-62996874D01*
X246019868Y-62401410D01*
X246023196Y-62250003D01*
X246020524Y-61995737D01*
X245987143Y-61809171D01*
X245955599Y-61754208D01*
X245889106Y-61654487D01*
X245775386Y-61436011D01*
X245630215Y-61130732D01*
X245469366Y-60770600D01*
X245464867Y-60760215D01*
X245287601Y-60359146D01*
X245148776Y-60074218D01*
X245026218Y-59869890D01*
X244897749Y-59710620D01*
X244741194Y-59560870D01*
X244687380Y-59514155D01*
X244308792Y-59189609D01*
X243654882Y-57510131D01*
X243433060Y-56935074D01*
X243267682Y-56492173D01*
X243152698Y-56162676D01*
X243082053Y-55927822D01*
X243049695Y-55768859D01*
X243049569Y-55667028D01*
X243053937Y-55648049D01*
X243069354Y-55384788D01*
X242940483Y-55198024D01*
X242823007Y-55133650D01*
X242755340Y-55100702D01*
X242689787Y-55050032D01*
X242618642Y-54966864D01*
X242534207Y-54836418D01*
X242428778Y-54643920D01*
X242294656Y-54374592D01*
X242124139Y-54013658D01*
X241909525Y-53546341D01*
X241643113Y-52957862D01*
X241352893Y-52312877D01*
X240750446Y-50969000D01*
X240214772Y-49767098D01*
X239743321Y-48701247D01*
X239333542Y-47765522D01*
X238982883Y-46953995D01*
X238688795Y-46260740D01*
X238448726Y-45679830D01*
X238260126Y-45205341D01*
X238120443Y-44831344D01*
X238070094Y-44685993D01*
X237937469Y-44294261D01*
X237842305Y-44032971D01*
X237771209Y-43877335D01*
X237710793Y-43802566D01*
X237647664Y-43783879D01*
X237587353Y-43792410D01*
X237443539Y-43883045D01*
G36*
X264212724Y-92284035D02*
G01*
X264106651Y-92592352D01*
X264133863Y-92860114D01*
X264274544Y-93059291D01*
X264490388Y-93181675D01*
X264743087Y-93219061D01*
X264994337Y-93163239D01*
X265205831Y-93006004D01*
X265302541Y-92848574D01*
X265354899Y-92547744D01*
X265256799Y-92281983D01*
X265021109Y-92083840D01*
X264995247Y-92071207D01*
X264687341Y-92002282D01*
X264416562Y-92079053D01*
X264212724Y-92284035D01*
G37*
X264212724Y-92284035D02*
X264106651Y-92592352D01*
X264133863Y-92860114D01*
X264274544Y-93059291D01*
X264490388Y-93181675D01*
X264743087Y-93219061D01*
X264994337Y-93163239D01*
X265205831Y-93006004D01*
X265302541Y-92848574D01*
X265354899Y-92547744D01*
X265256799Y-92281983D01*
X265021109Y-92083840D01*
X264995247Y-92071207D01*
X264687341Y-92002282D01*
X264416562Y-92079053D01*
X264212724Y-92284035D01*
G36*
X267217971Y-100696273D02*
G01*
X268062183Y-100389005D01*
X265855439Y-94326024D01*
X265011226Y-94633292D01*
X267217971Y-100696273D01*
G37*
X267217971Y-100696273D02*
X268062183Y-100389005D01*
X265855439Y-94326024D01*
X265011226Y-94633292D01*
X267217971Y-100696273D01*
G36*
X274326775Y-89027396D02*
G01*
X273856271Y-89202846D01*
X273493941Y-89344019D01*
X273216912Y-89461118D01*
X273002313Y-89564345D01*
X272827270Y-89663905D01*
X272668911Y-89769999D01*
X272517137Y-89883035D01*
X272016328Y-90361077D01*
X271652709Y-90911216D01*
X271430152Y-91512850D01*
X271352531Y-92145372D01*
X271423721Y-92788178D01*
X271647594Y-93420660D01*
X271800010Y-93697764D01*
X272218780Y-94239175D01*
X272719448Y-94640183D01*
X273298795Y-94898731D01*
X273843892Y-95004315D01*
X274285770Y-95046246D01*
X274028087Y-95961777D01*
X273895893Y-96435260D01*
X273752472Y-96955048D01*
X273619650Y-97441803D01*
X273557662Y-97671777D01*
X273344922Y-98466246D01*
X273829360Y-98284897D01*
X274313800Y-98103549D01*
X274737509Y-96521559D01*
X275161217Y-94939568D01*
X276561433Y-94428658D01*
X277961649Y-93917747D01*
X278883454Y-96450385D01*
X279805782Y-96114685D01*
X278588290Y-92820532D01*
X277682314Y-93150280D01*
X276276432Y-93661979D01*
X275673268Y-93876059D01*
X275199826Y-94031071D01*
X274835969Y-94132931D01*
X274561558Y-94187556D01*
X274447450Y-94199262D01*
X273991768Y-94166114D01*
X273525197Y-94030065D01*
X273111054Y-93814047D01*
X272895542Y-93637127D01*
X272679024Y-93341506D01*
X272485129Y-92943575D01*
X272338258Y-92504359D01*
X272262812Y-92084882D01*
X272260254Y-92048402D01*
X272304542Y-91656780D01*
X272461847Y-91236095D01*
X272705604Y-90842127D01*
X272966542Y-90565182D01*
X273123024Y-90448554D01*
X273326239Y-90328615D01*
X273599959Y-90194105D01*
X273967954Y-90033764D01*
X274453994Y-89836335D01*
X274759274Y-89716060D01*
X276223849Y-89143178D01*
X277682314Y-93150280D01*
X278588290Y-92820532D01*
X278326387Y-92111907D01*
X276846991Y-88109130D01*
X274928327Y-88807466D01*
X274326775Y-89027396D01*
G37*
X274326775Y-89027396D02*
X273856271Y-89202846D01*
X273493941Y-89344019D01*
X273216912Y-89461118D01*
X273002313Y-89564345D01*
X272827270Y-89663905D01*
X272668911Y-89769999D01*
X272517137Y-89883035D01*
X272016328Y-90361077D01*
X271652709Y-90911216D01*
X271430152Y-91512850D01*
X271352531Y-92145372D01*
X271423721Y-92788178D01*
X271647594Y-93420660D01*
X271800010Y-93697764D01*
X272218780Y-94239175D01*
X272719448Y-94640183D01*
X273298795Y-94898731D01*
X273843892Y-95004315D01*
X274285770Y-95046246D01*
X274028087Y-95961777D01*
X273895893Y-96435260D01*
X273752472Y-96955048D01*
X273619650Y-97441803D01*
X273557662Y-97671777D01*
X273344922Y-98466246D01*
X273829360Y-98284897D01*
X274313800Y-98103549D01*
X274737509Y-96521559D01*
X275161217Y-94939568D01*
X276561433Y-94428658D01*
X277961649Y-93917747D01*
X278883454Y-96450385D01*
X279805782Y-96114685D01*
X278588290Y-92820532D01*
X277682314Y-93150280D01*
X276276432Y-93661979D01*
X275673268Y-93876059D01*
X275199826Y-94031071D01*
X274835969Y-94132931D01*
X274561558Y-94187556D01*
X274447450Y-94199262D01*
X273991768Y-94166114D01*
X273525197Y-94030065D01*
X273111054Y-93814047D01*
X272895542Y-93637127D01*
X272679024Y-93341506D01*
X272485129Y-92943575D01*
X272338258Y-92504359D01*
X272262812Y-92084882D01*
X272260254Y-92048402D01*
X272304542Y-91656780D01*
X272461847Y-91236095D01*
X272705604Y-90842127D01*
X272966542Y-90565182D01*
X273123024Y-90448554D01*
X273326239Y-90328615D01*
X273599959Y-90194105D01*
X273967954Y-90033764D01*
X274453994Y-89836335D01*
X274759274Y-89716060D01*
X276223849Y-89143178D01*
X277682314Y-93150280D01*
X278588290Y-92820532D01*
X278326387Y-92111907D01*
X276846991Y-88109130D01*
X274928327Y-88807466D01*
X274326775Y-89027396D01*
G36*
X215216226Y-111366572D02*
G01*
X218874772Y-110034971D01*
X219324152Y-110979557D01*
X219509524Y-111365939D01*
X219683766Y-111723304D01*
X219827524Y-112012314D01*
X219921440Y-112193631D01*
X219922630Y-112195803D01*
X220071725Y-112467463D01*
X219376751Y-112720412D01*
X218506506Y-113077146D01*
X217793965Y-113457958D01*
X217234746Y-113866684D01*
X216824464Y-114307164D01*
X216558741Y-114783233D01*
X216433246Y-115298226D01*
X216439636Y-115939657D01*
X216588495Y-116528710D01*
X216863056Y-117049410D01*
X217246555Y-117485788D01*
X217722225Y-117821871D01*
X218273299Y-118041689D01*
X218883012Y-118129267D01*
X219372276Y-118098018D01*
X219863469Y-117987929D01*
X220409821Y-117808950D01*
X220943786Y-117586833D01*
X221397814Y-117347335D01*
X221482287Y-117293527D01*
X221924710Y-116956500D01*
X222323000Y-116573289D01*
X222632335Y-116189009D01*
X222719214Y-116048542D01*
X222888425Y-115744488D01*
X222576174Y-115493310D01*
X222263922Y-115242130D01*
X221987331Y-115647516D01*
X221562866Y-116144532D01*
X221027581Y-116577765D01*
X220422194Y-116923524D01*
X219787427Y-117158110D01*
X219225598Y-117254541D01*
X218707563Y-117221359D01*
X218248916Y-117064286D01*
X217864861Y-116804894D01*
X217570599Y-116464757D01*
X217381334Y-116065447D01*
X217312265Y-115628536D01*
X217378596Y-115175594D01*
X217524792Y-114841040D01*
X217673952Y-114622007D01*
X217866388Y-114423587D01*
X218122702Y-114233270D01*
X218463494Y-114038546D01*
X218909365Y-113826908D01*
X219480917Y-113585846D01*
X219805434Y-113456216D01*
X221215394Y-112900164D01*
X220275137Y-110970995D01*
X220023480Y-110454897D01*
X219796360Y-109989579D01*
X219603268Y-109594448D01*
X219453698Y-109288920D01*
X219357142Y-109092401D01*
X219323165Y-109024362D01*
X219246583Y-109046655D01*
X219035980Y-109118259D01*
X218710721Y-109232315D01*
X218290170Y-109381970D01*
X217793687Y-109560363D01*
X217240641Y-109760641D01*
X217124170Y-109803002D01*
X214936892Y-110599107D01*
X215216226Y-111366572D01*
G37*
X215216226Y-111366572D02*
X218874772Y-110034971D01*
X219324152Y-110979557D01*
X219509524Y-111365939D01*
X219683766Y-111723304D01*
X219827524Y-112012314D01*
X219921440Y-112193631D01*
X219922630Y-112195803D01*
X220071725Y-112467463D01*
X219376751Y-112720412D01*
X218506506Y-113077146D01*
X217793965Y-113457958D01*
X217234746Y-113866684D01*
X216824464Y-114307164D01*
X216558741Y-114783233D01*
X216433246Y-115298226D01*
X216439636Y-115939657D01*
X216588495Y-116528710D01*
X216863056Y-117049410D01*
X217246555Y-117485788D01*
X217722225Y-117821871D01*
X218273299Y-118041689D01*
X218883012Y-118129267D01*
X219372276Y-118098018D01*
X219863469Y-117987929D01*
X220409821Y-117808950D01*
X220943786Y-117586833D01*
X221397814Y-117347335D01*
X221482287Y-117293527D01*
X221924710Y-116956500D01*
X222323000Y-116573289D01*
X222632335Y-116189009D01*
X222719214Y-116048542D01*
X222888425Y-115744488D01*
X222576174Y-115493310D01*
X222263922Y-115242130D01*
X221987331Y-115647516D01*
X221562866Y-116144532D01*
X221027581Y-116577765D01*
X220422194Y-116923524D01*
X219787427Y-117158110D01*
X219225598Y-117254541D01*
X218707563Y-117221359D01*
X218248916Y-117064286D01*
X217864861Y-116804894D01*
X217570599Y-116464757D01*
X217381334Y-116065447D01*
X217312265Y-115628536D01*
X217378596Y-115175594D01*
X217524792Y-114841040D01*
X217673952Y-114622007D01*
X217866388Y-114423587D01*
X218122702Y-114233270D01*
X218463494Y-114038546D01*
X218909365Y-113826908D01*
X219480917Y-113585846D01*
X219805434Y-113456216D01*
X221215394Y-112900164D01*
X220275137Y-110970995D01*
X220023480Y-110454897D01*
X219796360Y-109989579D01*
X219603268Y-109594448D01*
X219453698Y-109288920D01*
X219357142Y-109092401D01*
X219323165Y-109024362D01*
X219246583Y-109046655D01*
X219035980Y-109118259D01*
X218710721Y-109232315D01*
X218290170Y-109381970D01*
X217793687Y-109560363D01*
X217240641Y-109760641D01*
X217124170Y-109803002D01*
X214936892Y-110599107D01*
X215216226Y-111366572D01*
G36*
X226266404Y-106468087D02*
G01*
X225559858Y-106909895D01*
X225530905Y-106931573D01*
X225278713Y-107140844D01*
X225165378Y-107303765D01*
X225187046Y-107453455D01*
X225339863Y-107623035D01*
X225440710Y-107706944D01*
X225680648Y-107898677D01*
X225986648Y-107595937D01*
X226160134Y-107441259D01*
X226353333Y-107313573D01*
X226607722Y-107190710D01*
X226964783Y-107050502D01*
X227099039Y-107001412D01*
X227487658Y-106866107D01*
X227774586Y-106783894D01*
X228009079Y-106745448D01*
X228240395Y-106741447D01*
X228412055Y-106752872D01*
X229067648Y-106885917D01*
X229654385Y-107166334D01*
X230170579Y-107592596D01*
X230614546Y-108163178D01*
X230984600Y-108876559D01*
X231107248Y-109189626D01*
X231329419Y-109804071D01*
X231075681Y-109635683D01*
X230507657Y-109352059D01*
X229891653Y-109207160D01*
X229253665Y-109194080D01*
X228619690Y-109305910D01*
X228015722Y-109535743D01*
X227467758Y-109876672D01*
X227001793Y-110321788D01*
X226674325Y-110805192D01*
X226457747Y-111340591D01*
X226387909Y-111876548D01*
X226463229Y-112443738D01*
X226571673Y-112795995D01*
X226863619Y-113386122D01*
X227263049Y-113856477D01*
X227759778Y-114200576D01*
X228343621Y-114411938D01*
X229004391Y-114484079D01*
X229214239Y-114477717D01*
X229598421Y-114417839D01*
X230055453Y-114292400D01*
X230520378Y-114123540D01*
X230928242Y-113933398D01*
X231087429Y-113839269D01*
X231616199Y-113400843D01*
X232015323Y-112868484D01*
X232283364Y-112249469D01*
X232418890Y-111551077D01*
X232420462Y-110780582D01*
X232411098Y-110722133D01*
X231447202Y-111072963D01*
X231548318Y-111562327D01*
X231499838Y-112040528D01*
X231315396Y-112490447D01*
X231008630Y-112894970D01*
X230593178Y-113236977D01*
X230082677Y-113499356D01*
X229490764Y-113664988D01*
X229366388Y-113684643D01*
X228824493Y-113684896D01*
X228333320Y-113541597D01*
X227913679Y-113271772D01*
X227586379Y-112892447D01*
X227372228Y-112420653D01*
X227296541Y-111990891D01*
X227336507Y-111471657D01*
X227527622Y-111011896D01*
X227867799Y-110614527D01*
X228354948Y-110282463D01*
X228607722Y-110161071D01*
X229217151Y-109963419D01*
X229790199Y-109905735D01*
X230311352Y-109983039D01*
X230765096Y-110190349D01*
X231135916Y-110522680D01*
X231408299Y-110975053D01*
X231447202Y-111072963D01*
X232411098Y-110722133D01*
X232286646Y-109945262D01*
X232026240Y-109080250D01*
X231691510Y-108279453D01*
X231319103Y-107620852D01*
X230893724Y-107084833D01*
X230400080Y-106651788D01*
X229883624Y-106333275D01*
X229216027Y-106074449D01*
X228500372Y-105961285D01*
X227756794Y-105991015D01*
X227005428Y-106160872D01*
X226266404Y-106468087D01*
G37*
X226266404Y-106468087D02*
X225559858Y-106909895D01*
X225530905Y-106931573D01*
X225278713Y-107140844D01*
X225165378Y-107303765D01*
X225187046Y-107453455D01*
X225339863Y-107623035D01*
X225440710Y-107706944D01*
X225680648Y-107898677D01*
X225986648Y-107595937D01*
X226160134Y-107441259D01*
X226353333Y-107313573D01*
X226607722Y-107190710D01*
X226964783Y-107050502D01*
X227099039Y-107001412D01*
X227487658Y-106866107D01*
X227774586Y-106783894D01*
X228009079Y-106745448D01*
X228240395Y-106741447D01*
X228412055Y-106752872D01*
X229067648Y-106885917D01*
X229654385Y-107166334D01*
X230170579Y-107592596D01*
X230614546Y-108163178D01*
X230984600Y-108876559D01*
X231107248Y-109189626D01*
X231329419Y-109804071D01*
X231075681Y-109635683D01*
X230507657Y-109352059D01*
X229891653Y-109207160D01*
X229253665Y-109194080D01*
X228619690Y-109305910D01*
X228015722Y-109535743D01*
X227467758Y-109876672D01*
X227001793Y-110321788D01*
X226674325Y-110805192D01*
X226457747Y-111340591D01*
X226387909Y-111876548D01*
X226463229Y-112443738D01*
X226571673Y-112795995D01*
X226863619Y-113386122D01*
X227263049Y-113856477D01*
X227759778Y-114200576D01*
X228343621Y-114411938D01*
X229004391Y-114484079D01*
X229214239Y-114477717D01*
X229598421Y-114417839D01*
X230055453Y-114292400D01*
X230520378Y-114123540D01*
X230928242Y-113933398D01*
X231087429Y-113839269D01*
X231616199Y-113400843D01*
X232015323Y-112868484D01*
X232283364Y-112249469D01*
X232418890Y-111551077D01*
X232420462Y-110780582D01*
X232411098Y-110722133D01*
X231447202Y-111072963D01*
X231548318Y-111562327D01*
X231499838Y-112040528D01*
X231315396Y-112490447D01*
X231008630Y-112894970D01*
X230593178Y-113236977D01*
X230082677Y-113499356D01*
X229490764Y-113664988D01*
X229366388Y-113684643D01*
X228824493Y-113684896D01*
X228333320Y-113541597D01*
X227913679Y-113271772D01*
X227586379Y-112892447D01*
X227372228Y-112420653D01*
X227296541Y-111990891D01*
X227336507Y-111471657D01*
X227527622Y-111011896D01*
X227867799Y-110614527D01*
X228354948Y-110282463D01*
X228607722Y-110161071D01*
X229217151Y-109963419D01*
X229790199Y-109905735D01*
X230311352Y-109983039D01*
X230765096Y-110190349D01*
X231135916Y-110522680D01*
X231408299Y-110975053D01*
X231447202Y-111072963D01*
X232411098Y-110722133D01*
X232286646Y-109945262D01*
X232026240Y-109080250D01*
X231691510Y-108279453D01*
X231319103Y-107620852D01*
X230893724Y-107084833D01*
X230400080Y-106651788D01*
X229883624Y-106333275D01*
X229216027Y-106074449D01*
X228500372Y-105961285D01*
X227756794Y-105991015D01*
X227005428Y-106160872D01*
X226266404Y-106468087D01*
G36*
X245237212Y-101879996D02*
G01*
X244944324Y-102001463D01*
X244731572Y-102112455D01*
X244561288Y-102232774D01*
X244395800Y-102382223D01*
X244386272Y-102391502D01*
X244146748Y-102678047D01*
X243947994Y-103007292D01*
X243893358Y-103132050D01*
X243820236Y-103348619D01*
X243774126Y-103556723D01*
X243758977Y-103776208D01*
X243778741Y-104026924D01*
X243837366Y-104328718D01*
X243938805Y-104701440D01*
X244087007Y-105164937D01*
X244285922Y-105739057D01*
X244539501Y-106443650D01*
X244568123Y-106522338D01*
X245345190Y-108657314D01*
X246112656Y-108377980D01*
X245803525Y-107528650D01*
X246154737Y-107692423D01*
X246631606Y-107855744D01*
X247129954Y-107900461D01*
X247684588Y-107827020D01*
X248088442Y-107717183D01*
X248494506Y-107577616D01*
X248793017Y-107442818D01*
X249036887Y-107287035D01*
X249140747Y-107205012D01*
X249502581Y-106849692D01*
X249731996Y-106475283D01*
X249856712Y-106030488D01*
X249882395Y-105832573D01*
X249853297Y-105343519D01*
X249810855Y-105232618D01*
X248970606Y-105538443D01*
X248976437Y-105561967D01*
X248997868Y-105960596D01*
X248883022Y-106336099D01*
X248648563Y-106640248D01*
X248586862Y-106689681D01*
X248329371Y-106838006D01*
X247976628Y-106991514D01*
X247594080Y-107126123D01*
X247247175Y-107217751D01*
X247086168Y-107241865D01*
X246628809Y-107207129D01*
X246169198Y-107050885D01*
X245837666Y-106844925D01*
X245654180Y-106665228D01*
X245509816Y-106434581D01*
X245370434Y-106098725D01*
X245179183Y-105574489D01*
X246512352Y-105118163D01*
X247003922Y-104951504D01*
X247369101Y-104833371D01*
X247635363Y-104757459D01*
X247830180Y-104717464D01*
X247981029Y-104707077D01*
X248115384Y-104719994D01*
X248187389Y-104733731D01*
X248549692Y-104878700D01*
X248807983Y-105144018D01*
X248970606Y-105538443D01*
X249810855Y-105232618D01*
X249679636Y-104889745D01*
X249380089Y-104500581D01*
X248973329Y-104205358D01*
X248794466Y-104123879D01*
X248520431Y-104038698D01*
X248236577Y-104002105D01*
X247917085Y-104017951D01*
X247536141Y-104090090D01*
X247067927Y-104222373D01*
X246486626Y-104418653D01*
X246251092Y-104503396D01*
X244960329Y-104973195D01*
X244801548Y-104536946D01*
X244689765Y-104059841D01*
X244699504Y-103607489D01*
X244827721Y-103217783D01*
X244918760Y-103078605D01*
X245311742Y-102708297D01*
X245817802Y-102435056D01*
X246413459Y-102266317D01*
X247075237Y-102209516D01*
X247565703Y-102240394D01*
X247862718Y-102273950D01*
X248085680Y-102293771D01*
X248195289Y-102296516D01*
X248200354Y-102294302D01*
X248217574Y-102207530D01*
X248254851Y-102016935D01*
X248272464Y-101926503D01*
X248339506Y-101581915D01*
X247916211Y-101504441D01*
X247430789Y-101429929D01*
X247020238Y-101407914D01*
X246630653Y-101443715D01*
X246208130Y-101542649D01*
X245698765Y-101710035D01*
X245647906Y-101728248D01*
X245237212Y-101879996D01*
G37*
X245237212Y-101879996D02*
X244944324Y-102001463D01*
X244731572Y-102112455D01*
X244561288Y-102232774D01*
X244395800Y-102382223D01*
X244386272Y-102391502D01*
X244146748Y-102678047D01*
X243947994Y-103007292D01*
X243893358Y-103132050D01*
X243820236Y-103348619D01*
X243774126Y-103556723D01*
X243758977Y-103776208D01*
X243778741Y-104026924D01*
X243837366Y-104328718D01*
X243938805Y-104701440D01*
X244087007Y-105164937D01*
X244285922Y-105739057D01*
X244539501Y-106443650D01*
X244568123Y-106522338D01*
X245345190Y-108657314D01*
X246112656Y-108377980D01*
X245803525Y-107528650D01*
X246154737Y-107692423D01*
X246631606Y-107855744D01*
X247129954Y-107900461D01*
X247684588Y-107827020D01*
X248088442Y-107717183D01*
X248494506Y-107577616D01*
X248793017Y-107442818D01*
X249036887Y-107287035D01*
X249140747Y-107205012D01*
X249502581Y-106849692D01*
X249731996Y-106475283D01*
X249856712Y-106030488D01*
X249882395Y-105832573D01*
X249853297Y-105343519D01*
X249810855Y-105232618D01*
X248970606Y-105538443D01*
X248976437Y-105561967D01*
X248997868Y-105960596D01*
X248883022Y-106336099D01*
X248648563Y-106640248D01*
X248586862Y-106689681D01*
X248329371Y-106838006D01*
X247976628Y-106991514D01*
X247594080Y-107126123D01*
X247247175Y-107217751D01*
X247086168Y-107241865D01*
X246628809Y-107207129D01*
X246169198Y-107050885D01*
X245837666Y-106844925D01*
X245654180Y-106665228D01*
X245509816Y-106434581D01*
X245370434Y-106098725D01*
X245179183Y-105574489D01*
X246512352Y-105118163D01*
X247003922Y-104951504D01*
X247369101Y-104833371D01*
X247635363Y-104757459D01*
X247830180Y-104717464D01*
X247981029Y-104707077D01*
X248115384Y-104719994D01*
X248187389Y-104733731D01*
X248549692Y-104878700D01*
X248807983Y-105144018D01*
X248970606Y-105538443D01*
X249810855Y-105232618D01*
X249679636Y-104889745D01*
X249380089Y-104500581D01*
X248973329Y-104205358D01*
X248794466Y-104123879D01*
X248520431Y-104038698D01*
X248236577Y-104002105D01*
X247917085Y-104017951D01*
X247536141Y-104090090D01*
X247067927Y-104222373D01*
X246486626Y-104418653D01*
X246251092Y-104503396D01*
X244960329Y-104973195D01*
X244801548Y-104536946D01*
X244689765Y-104059841D01*
X244699504Y-103607489D01*
X244827721Y-103217783D01*
X244918760Y-103078605D01*
X245311742Y-102708297D01*
X245817802Y-102435056D01*
X246413459Y-102266317D01*
X247075237Y-102209516D01*
X247565703Y-102240394D01*
X247862718Y-102273950D01*
X248085680Y-102293771D01*
X248195289Y-102296516D01*
X248200354Y-102294302D01*
X248217574Y-102207530D01*
X248254851Y-102016935D01*
X248272464Y-101926503D01*
X248339506Y-101581915D01*
X247916211Y-101504441D01*
X247430789Y-101429929D01*
X247020238Y-101407914D01*
X246630653Y-101443715D01*
X246208130Y-101542649D01*
X245698765Y-101710035D01*
X245647906Y-101728248D01*
X245237212Y-101879996D01*
G36*
X254759859Y-101993125D02*
G01*
X255072002Y-102828885D01*
X255334849Y-103526072D01*
X255556150Y-104099174D01*
X255743652Y-104562679D01*
X255905103Y-104931076D01*
X256048252Y-105218849D01*
X256180848Y-105440488D01*
X256310638Y-105610481D01*
X256445371Y-105743313D01*
X256592794Y-105853474D01*
X256760656Y-105955451D01*
X256928726Y-106048445D01*
X257491128Y-106273554D01*
X258102315Y-106357359D01*
X258772599Y-106299841D01*
X259512291Y-106100977D01*
X259672966Y-106042927D01*
X260036105Y-105890709D01*
X260406823Y-105710198D01*
X260685181Y-105552315D01*
X261166485Y-105203892D01*
X261588022Y-104817875D01*
X261904866Y-104436019D01*
X261934467Y-104391291D01*
X262113992Y-104111284D01*
X261802333Y-103880629D01*
X261615255Y-103747292D01*
X261491281Y-103668547D01*
X261466346Y-103658829D01*
X261408407Y-103723763D01*
X261286420Y-103880481D01*
X261191810Y-104007080D01*
X260915524Y-104348354D01*
X260629600Y-104618520D01*
X260295966Y-104843426D01*
X259876551Y-105048922D01*
X259358921Y-105251547D01*
X258947525Y-105397326D01*
X258650049Y-105490081D01*
X258428977Y-105538006D01*
X258246789Y-105549294D01*
X258070684Y-105532832D01*
X257588933Y-105412123D01*
X257194419Y-105194417D01*
X256868768Y-104862274D01*
X256593610Y-104398253D01*
X256410676Y-103956914D01*
X256173503Y-103305287D01*
X256594691Y-103476278D01*
X256924574Y-103581644D01*
X257308100Y-103664282D01*
X257520805Y-103692523D01*
X257766390Y-103707084D01*
X257982717Y-103695343D01*
X258216188Y-103648289D01*
X258513200Y-103556912D01*
X258869944Y-103430508D01*
X259252714Y-103287589D01*
X259523092Y-103172320D01*
X259723483Y-103060193D01*
X259896289Y-102926699D01*
X260083912Y-102747329D01*
X260126568Y-102704176D01*
X260575857Y-102143162D01*
X260869934Y-101531334D01*
X261008524Y-100869611D01*
X260991347Y-100158913D01*
X260957173Y-99943689D01*
X260793362Y-99396215D01*
X259949429Y-99703381D01*
X260103829Y-100224672D01*
X260135621Y-100726492D01*
X260132255Y-100764195D01*
X259995580Y-101348918D01*
X259723861Y-101865084D01*
X259336465Y-102297409D01*
X258852763Y-102630606D01*
X258292123Y-102849388D01*
X257673914Y-102938471D01*
X257384936Y-102932376D01*
X256792287Y-102816082D01*
X256283954Y-102561222D01*
X255866297Y-102172764D01*
X255545673Y-101655683D01*
X255447142Y-101417048D01*
X255297689Y-100850304D01*
X255288508Y-100329030D01*
X255420347Y-99813757D01*
X255480222Y-99670535D01*
X255781491Y-99182046D01*
X256187141Y-98788742D01*
X256670212Y-98496614D01*
X257203749Y-98311648D01*
X257760789Y-98239834D01*
X258314374Y-98287160D01*
X258837544Y-98459614D01*
X259303342Y-98763186D01*
X259355259Y-98809785D01*
X259693035Y-99214469D01*
X259949429Y-99703381D01*
X260793362Y-99396215D01*
X260750761Y-99253839D01*
X260414758Y-98654606D01*
X259962699Y-98158383D01*
X259408122Y-97777564D01*
X258764563Y-97524544D01*
X258204521Y-97423394D01*
X257931705Y-97402409D01*
X257709364Y-97405364D01*
X257489272Y-97440730D01*
X257223206Y-97516977D01*
X256862940Y-97642578D01*
X256774933Y-97674514D01*
X256388091Y-97819393D01*
X256113822Y-97937184D01*
X255909571Y-98051959D01*
X255732787Y-98187791D01*
X255540915Y-98368752D01*
X255531848Y-98377742D01*
X255248387Y-98709794D01*
X255015807Y-99074833D01*
X254947090Y-99218759D01*
X254761202Y-99663814D01*
X254343449Y-98516046D01*
X253568196Y-98798215D01*
X254759859Y-101993125D01*
G37*
X254759859Y-101993125D02*
X255072002Y-102828885D01*
X255334849Y-103526072D01*
X255556150Y-104099174D01*
X255743652Y-104562679D01*
X255905103Y-104931076D01*
X256048252Y-105218849D01*
X256180848Y-105440488D01*
X256310638Y-105610481D01*
X256445371Y-105743313D01*
X256592794Y-105853474D01*
X256760656Y-105955451D01*
X256928726Y-106048445D01*
X257491128Y-106273554D01*
X258102315Y-106357359D01*
X258772599Y-106299841D01*
X259512291Y-106100977D01*
X259672966Y-106042927D01*
X260036105Y-105890709D01*
X260406823Y-105710198D01*
X260685181Y-105552315D01*
X261166485Y-105203892D01*
X261588022Y-104817875D01*
X261904866Y-104436019D01*
X261934467Y-104391291D01*
X262113992Y-104111284D01*
X261802333Y-103880629D01*
X261615255Y-103747292D01*
X261491281Y-103668547D01*
X261466346Y-103658829D01*
X261408407Y-103723763D01*
X261286420Y-103880481D01*
X261191810Y-104007080D01*
X260915524Y-104348354D01*
X260629600Y-104618520D01*
X260295966Y-104843426D01*
X259876551Y-105048922D01*
X259358921Y-105251547D01*
X258947525Y-105397326D01*
X258650049Y-105490081D01*
X258428977Y-105538006D01*
X258246789Y-105549294D01*
X258070684Y-105532832D01*
X257588933Y-105412123D01*
X257194419Y-105194417D01*
X256868768Y-104862274D01*
X256593610Y-104398253D01*
X256410676Y-103956914D01*
X256173503Y-103305287D01*
X256594691Y-103476278D01*
X256924574Y-103581644D01*
X257308100Y-103664282D01*
X257520805Y-103692523D01*
X257766390Y-103707084D01*
X257982717Y-103695343D01*
X258216188Y-103648289D01*
X258513200Y-103556912D01*
X258869944Y-103430508D01*
X259252714Y-103287589D01*
X259523092Y-103172320D01*
X259723483Y-103060193D01*
X259896289Y-102926699D01*
X260083912Y-102747329D01*
X260126568Y-102704176D01*
X260575857Y-102143162D01*
X260869934Y-101531334D01*
X261008524Y-100869611D01*
X260991347Y-100158913D01*
X260957173Y-99943689D01*
X260793362Y-99396215D01*
X259949429Y-99703381D01*
X260103829Y-100224672D01*
X260135621Y-100726492D01*
X260132255Y-100764195D01*
X259995580Y-101348918D01*
X259723861Y-101865084D01*
X259336465Y-102297409D01*
X258852763Y-102630606D01*
X258292123Y-102849388D01*
X257673914Y-102938471D01*
X257384936Y-102932376D01*
X256792287Y-102816082D01*
X256283954Y-102561222D01*
X255866297Y-102172764D01*
X255545673Y-101655683D01*
X255447142Y-101417048D01*
X255297689Y-100850304D01*
X255288508Y-100329030D01*
X255420347Y-99813757D01*
X255480222Y-99670535D01*
X255781491Y-99182046D01*
X256187141Y-98788742D01*
X256670212Y-98496614D01*
X257203749Y-98311648D01*
X257760789Y-98239834D01*
X258314374Y-98287160D01*
X258837544Y-98459614D01*
X259303342Y-98763186D01*
X259355259Y-98809785D01*
X259693035Y-99214469D01*
X259949429Y-99703381D01*
X260793362Y-99396215D01*
X260750761Y-99253839D01*
X260414758Y-98654606D01*
X259962699Y-98158383D01*
X259408122Y-97777564D01*
X258764563Y-97524544D01*
X258204521Y-97423394D01*
X257931705Y-97402409D01*
X257709364Y-97405364D01*
X257489272Y-97440730D01*
X257223206Y-97516977D01*
X256862940Y-97642578D01*
X256774933Y-97674514D01*
X256388091Y-97819393D01*
X256113822Y-97937184D01*
X255909571Y-98051959D01*
X255732787Y-98187791D01*
X255540915Y-98368752D01*
X255531848Y-98377742D01*
X255248387Y-98709794D01*
X255015807Y-99074833D01*
X254947090Y-99218759D01*
X254761202Y-99663814D01*
X254343449Y-98516046D01*
X253568196Y-98798215D01*
X254759859Y-101993125D01*
%TD*%
D12*
%TO.P,REF\u002A\u002A,1*%
%TO.N,N/C*%
X307000000Y-123000000D03*
%TD*%
%TO.P,REF\u002A\u002A,1*%
%TO.N,N/C*%
X156500000Y-123000000D03*
%TD*%
%TO.P,REF\u002A\u002A,1*%
%TO.N,N/C*%
X6000000Y-123000000D03*
%TD*%
%TO.P,REF\u002A\u002A,1*%
%TO.N,N/C*%
X307000000Y-67000000D03*
%TD*%
%TO.P,REF\u002A\u002A,1*%
%TO.N,N/C*%
X156500000Y-67000000D03*
%TD*%
%TO.P,REF\u002A\u002A,1*%
%TO.N,N/C*%
X6000000Y-67000000D03*
%TD*%
%TO.P,REF\u002A\u002A,1*%
%TO.N,N/C*%
X309000000Y-21000000D03*
%TD*%
%TO.P,REF\u002A\u002A,1*%
%TO.N,N/C*%
X156500000Y-21000000D03*
%TD*%
%TO.P,REF\u002A\u002A,1*%
%TO.N,N/C*%
X4000000Y-21000000D03*
%TD*%
%TO.P,REF\u002A\u002A,1*%
%TO.N,N/C*%
X309000000Y-4000000D03*
%TD*%
%TO.P,REF\u002A\u002A,1*%
%TO.N,N/C*%
X156500000Y-4000000D03*
%TD*%
%TO.P,REF\u002A\u002A,1*%
%TO.N,N/C*%
X4000000Y-4000000D03*
%TD*%
D13*
%TO.N,*%
X9280000Y-67070000D03*
%TD*%
D14*
X311245021Y-762549D02*
X311480712Y-833708D01*
X311698089Y-949291D01*
X311888879Y-1104895D01*
X312045811Y-1294593D01*
X312162906Y-1511157D01*
X312235709Y-1746344D01*
X312265001Y-2025037D01*
X312265000Y-126964053D01*
X312237451Y-127245021D01*
X312166291Y-127480712D01*
X312050711Y-127698088D01*
X311895104Y-127888879D01*
X311705408Y-128045811D01*
X311488843Y-128162906D01*
X311253656Y-128235709D01*
X310974972Y-128265000D01*
X2035947Y-128265000D01*
X1754979Y-128237451D01*
X1519288Y-128166291D01*
X1301912Y-128050711D01*
X1111121Y-127895104D01*
X954189Y-127705408D01*
X837094Y-127488843D01*
X764291Y-127253656D01*
X735000Y-126974972D01*
X735000Y-122720777D01*
X3165000Y-122720777D01*
X3165000Y-123279223D01*
X3273948Y-123826939D01*
X3487656Y-124342876D01*
X3797912Y-124807207D01*
X4192793Y-125202088D01*
X4657124Y-125512344D01*
X5173061Y-125726052D01*
X5720777Y-125835000D01*
X6279223Y-125835000D01*
X6826939Y-125726052D01*
X7342876Y-125512344D01*
X7807207Y-125202088D01*
X8202088Y-124807207D01*
X8512344Y-124342876D01*
X8726052Y-123826939D01*
X8835000Y-123279223D01*
X8835000Y-122720777D01*
X153665000Y-122720777D01*
X153665000Y-123279223D01*
X153773948Y-123826939D01*
X153987656Y-124342876D01*
X154297912Y-124807207D01*
X154692793Y-125202088D01*
X155157124Y-125512344D01*
X155673061Y-125726052D01*
X156220777Y-125835000D01*
X156779223Y-125835000D01*
X157326939Y-125726052D01*
X157842876Y-125512344D01*
X158307207Y-125202088D01*
X158702088Y-124807207D01*
X159012344Y-124342876D01*
X159226052Y-123826939D01*
X159335000Y-123279223D01*
X159335000Y-122720777D01*
X159226052Y-122173061D01*
X159012344Y-121657124D01*
X158702088Y-121192793D01*
X158307207Y-120797912D01*
X157842876Y-120487656D01*
X157326939Y-120273948D01*
X156779223Y-120165000D01*
X156220777Y-120165000D01*
X155673061Y-120273948D01*
X155157124Y-120487656D01*
X154692793Y-120797912D01*
X154297912Y-121192793D01*
X153987656Y-121657124D01*
X153773948Y-122173061D01*
X153665000Y-122720777D01*
X8835000Y-122720777D01*
X8726052Y-122173061D01*
X8512344Y-121657124D01*
X8202088Y-121192793D01*
X7807207Y-120797912D01*
X7342876Y-120487656D01*
X6826939Y-120273948D01*
X6279223Y-120165000D01*
X5720777Y-120165000D01*
X5173061Y-120273948D01*
X4657124Y-120487656D01*
X4192793Y-120797912D01*
X3797912Y-121192793D01*
X3487656Y-121657124D01*
X3273948Y-122173061D01*
X3165000Y-122720777D01*
X735000Y-122720777D01*
X735000Y-89889540D01*
X185677950Y-89889540D01*
X185681024Y-89928308D01*
X185678679Y-89967122D01*
X185679537Y-89986442D01*
X185787333Y-92083086D01*
X185793267Y-92122589D01*
X185793714Y-92162533D01*
X185795950Y-92181742D01*
X186051272Y-94248977D01*
X186060212Y-94288839D01*
X186063639Y-94329537D01*
X186067267Y-94348532D01*
X186470339Y-96381759D01*
X186482357Y-96421532D01*
X186488890Y-96462574D01*
X186493909Y-96481250D01*
X187044959Y-98475867D01*
X187060054Y-98515100D01*
X187069733Y-98556002D01*
X187076129Y-98574252D01*
X187775380Y-100525661D01*
X187793450Y-100563863D01*
X187806231Y-100604147D01*
X187813975Y-100621868D01*
X188661651Y-102525469D01*
X188682507Y-102562177D01*
X188698249Y-102601358D01*
X188707295Y-102618450D01*
X189703621Y-104469642D01*
X189726991Y-104504434D01*
X189745459Y-104542050D01*
X189755749Y-104558423D01*
X190900951Y-106352608D01*
X190926479Y-106385107D01*
X190947365Y-106420762D01*
X190958830Y-106436335D01*
X192253131Y-108168909D01*
X192280388Y-108198800D01*
X192303310Y-108232150D01*
X192315870Y-108246855D01*
X193762018Y-109916255D01*
X193790699Y-109943471D01*
X193815345Y-109974383D01*
X193828916Y-109988161D01*
X195413384Y-111574558D01*
X195442889Y-111598824D01*
X195468708Y-111626982D01*
X195483196Y-111639792D01*
X197186888Y-113125044D01*
X197216627Y-113146242D01*
X197243043Y-113171457D01*
X197258351Y-113183274D01*
X199075743Y-114566114D01*
X199105359Y-114584382D01*
X199132007Y-114606739D01*
X199148040Y-114617552D01*
X201073612Y-115896706D01*
X201102804Y-115912225D01*
X201129392Y-115931876D01*
X201146060Y-115941682D01*
X203174287Y-117115881D01*
X203202846Y-117128877D01*
X203229131Y-117145998D01*
X203246349Y-117154802D01*
X205371710Y-118222778D01*
X205399477Y-118233481D01*
X205425289Y-118248278D01*
X205442980Y-118256090D01*
X207659949Y-119216570D01*
X207686826Y-119225212D01*
X207712045Y-119237893D01*
X207730135Y-119244727D01*
X210033192Y-120096442D01*
X210059125Y-120103243D01*
X210083676Y-120114012D01*
X210102100Y-120119886D01*
X212485722Y-120861567D01*
X212510695Y-120866732D01*
X212534543Y-120875781D01*
X212553242Y-120880714D01*
X215011905Y-121511088D01*
X215035935Y-121514800D01*
X215059066Y-121522304D01*
X215077984Y-121526316D01*
X217606166Y-122044116D01*
X217629289Y-122046536D01*
X217651714Y-122052653D01*
X217670801Y-122055764D01*
X220262979Y-122459719D01*
X220285237Y-122460986D01*
X220306995Y-122465857D01*
X220326205Y-122468086D01*
X222976855Y-122756923D01*
X222998313Y-122757155D01*
X223019434Y-122760898D01*
X223038724Y-122762264D01*
X225742326Y-122934715D01*
X225763037Y-122934010D01*
X225783578Y-122936729D01*
X225802909Y-122937249D01*
X228553937Y-122992044D01*
X228573964Y-122990482D01*
X228593976Y-122992263D01*
X228613312Y-122991954D01*
X231406245Y-122927822D01*
X231425652Y-122925468D01*
X231445186Y-122926380D01*
X231464492Y-122925257D01*
X234293808Y-122740929D01*
X234312659Y-122737833D01*
X234331762Y-122737932D01*
X234351005Y-122736010D01*
X234493482Y-122720777D01*
X304165000Y-122720777D01*
X304165000Y-123279223D01*
X304273948Y-123826939D01*
X304487656Y-124342876D01*
X304797912Y-124807207D01*
X305192793Y-125202088D01*
X305657124Y-125512344D01*
X306173061Y-125726052D01*
X306720777Y-125835000D01*
X307279223Y-125835000D01*
X307826939Y-125726052D01*
X308342876Y-125512344D01*
X308807207Y-125202088D01*
X309202088Y-124807207D01*
X309512344Y-124342876D01*
X309726052Y-123826939D01*
X309835000Y-123279223D01*
X309835000Y-122720777D01*
X309726052Y-122173061D01*
X309512344Y-121657124D01*
X309202088Y-121192793D01*
X308807207Y-120797912D01*
X308342876Y-120487656D01*
X307826939Y-120273948D01*
X307279223Y-120165000D01*
X306720777Y-120165000D01*
X306173061Y-120273948D01*
X305657124Y-120487656D01*
X305192793Y-120797912D01*
X304797912Y-121192793D01*
X304487656Y-121657124D01*
X304273948Y-122173061D01*
X304165000Y-122720777D01*
X234493482Y-122720777D01*
X237211180Y-122430215D01*
X237229523Y-122426415D01*
X237248251Y-122425746D01*
X237267399Y-122423038D01*
X240152908Y-121994507D01*
X240170803Y-121990030D01*
X240189192Y-121988625D01*
X240208215Y-121985144D01*
X243113540Y-121432604D01*
X243131022Y-121427470D01*
X243149120Y-121425353D01*
X243167987Y-121421112D01*
X246087601Y-120743295D01*
X246092684Y-120741578D01*
X246097991Y-120740840D01*
X246116762Y-120736191D01*
X246607328Y-120611039D01*
X246607643Y-120610925D01*
X246615357Y-120608965D01*
X247368227Y-120412086D01*
X247368482Y-120411992D01*
X247382299Y-120408327D01*
X248074862Y-120219415D01*
X248074909Y-120219397D01*
X248092939Y-120214352D01*
X248751765Y-120025012D01*
X248752671Y-120024653D01*
X248753628Y-120024475D01*
X248772168Y-120018978D01*
X249423824Y-119820811D01*
X249424728Y-119820436D01*
X249425687Y-119820243D01*
X249444141Y-119814461D01*
X250115196Y-119599074D01*
X250115223Y-119599062D01*
X250133193Y-119593162D01*
X250850213Y-119352156D01*
X250850438Y-119352055D01*
X250864522Y-119347259D01*
X251654076Y-119072241D01*
X251654382Y-119072100D01*
X251664391Y-119068603D01*
X252553048Y-118751175D01*
X252553335Y-118751039D01*
X252559776Y-118748752D01*
X253574103Y-118380518D01*
X253574335Y-118380407D01*
X253578949Y-118378749D01*
X254410469Y-118073370D01*
X254410777Y-118073221D01*
X254418267Y-118070479D01*
X255474985Y-117675178D01*
X255475257Y-117675045D01*
X255487501Y-117670427D01*
X256432993Y-117306277D01*
X256433099Y-117306224D01*
X256449361Y-117299853D01*
X257309566Y-116955949D01*
X257310457Y-116955487D01*
X257311414Y-116955208D01*
X257329309Y-116947878D01*
X258130160Y-116613308D01*
X258132088Y-116612271D01*
X258134178Y-116611622D01*
X258151946Y-116603987D01*
X258919383Y-116267842D01*
X258921387Y-116266720D01*
X258923570Y-116266000D01*
X258941203Y-116258059D01*
X259701160Y-115909431D01*
X259702216Y-115908815D01*
X259703375Y-115908413D01*
X259720881Y-115900196D01*
X260499298Y-115528176D01*
X260499391Y-115528120D01*
X260515324Y-115520390D01*
X261338134Y-115114069D01*
X261340418Y-115112649D01*
X261342925Y-115111691D01*
X261360171Y-115102941D01*
X263159036Y-114174381D01*
X263171036Y-114166617D01*
X263184204Y-114161060D01*
X263201137Y-114151720D01*
X266136617Y-112505721D01*
X266154135Y-112493509D01*
X266173414Y-112484338D01*
X266189913Y-112474251D01*
X268999942Y-110729164D01*
X269017706Y-110715562D01*
X269037441Y-110705031D01*
X269053457Y-110694193D01*
X271736463Y-108851177D01*
X271754335Y-108836135D01*
X271774398Y-108824169D01*
X271789880Y-108812582D01*
X274344294Y-106872795D01*
X274362122Y-106856279D01*
X274382359Y-106842825D01*
X274397255Y-106830494D01*
X276821505Y-104795093D01*
X276839116Y-104777099D01*
X276859358Y-104762124D01*
X276873617Y-104749061D01*
X279166133Y-102619204D01*
X279183346Y-102599752D01*
X279203406Y-102583254D01*
X279216976Y-102569476D01*
X281376185Y-100346321D01*
X281388088Y-100331392D01*
X281402322Y-100318660D01*
X281415310Y-100304331D01*
X282593962Y-98985598D01*
X282604735Y-98970874D01*
X282617839Y-98958168D01*
X282630239Y-98943329D01*
X284361665Y-96841833D01*
X284375863Y-96820693D01*
X284393225Y-96802064D01*
X284404859Y-96786617D01*
X285994261Y-94645295D01*
X286008009Y-94622401D01*
X286025171Y-94601935D01*
X286035980Y-94585899D01*
X287480995Y-92409473D01*
X287494156Y-92384702D01*
X287510981Y-92362267D01*
X287520903Y-92345668D01*
X288819159Y-90138853D01*
X288831552Y-90112115D01*
X288847880Y-90087574D01*
X288856850Y-90070442D01*
X290005985Y-87837958D01*
X290017409Y-87809159D01*
X290033031Y-87782403D01*
X290040983Y-87764775D01*
X291038628Y-85511340D01*
X291048839Y-85480428D01*
X291063516Y-85451365D01*
X291070381Y-85433286D01*
X291914170Y-83163617D01*
X291922896Y-83130577D01*
X291936345Y-83099157D01*
X291942055Y-83080681D01*
X292629621Y-80799498D01*
X292636560Y-80764364D01*
X292648463Y-80730599D01*
X292652951Y-80711788D01*
X293181927Y-78423809D01*
X293186758Y-78386703D01*
X293196775Y-78350655D01*
X293199977Y-78331583D01*
X293567997Y-76041523D01*
X293569091Y-76023784D01*
X293573170Y-76006481D01*
X293575615Y-75987297D01*
X293617999Y-75635208D01*
X293618323Y-75620529D01*
X293621187Y-75606136D01*
X293622958Y-75586879D01*
X293797827Y-73527796D01*
X293797365Y-73492276D01*
X293802016Y-73457051D01*
X293802529Y-73437719D01*
X293841795Y-71433070D01*
X293838821Y-71395092D01*
X293841198Y-71357074D01*
X293840381Y-71337753D01*
X293742589Y-69354029D01*
X293737038Y-69316537D01*
X293736806Y-69278634D01*
X293734666Y-69259414D01*
X293498360Y-67263106D01*
X293490874Y-67228919D01*
X293488410Y-67194017D01*
X293485039Y-67174974D01*
X293401361Y-66720777D01*
X304165000Y-66720777D01*
X304165000Y-67279223D01*
X304273948Y-67826939D01*
X304487656Y-68342876D01*
X304797912Y-68807207D01*
X305192793Y-69202088D01*
X305657124Y-69512344D01*
X306173061Y-69726052D01*
X306720777Y-69835000D01*
X307279223Y-69835000D01*
X307826939Y-69726052D01*
X308342876Y-69512344D01*
X308807207Y-69202088D01*
X309202088Y-68807207D01*
X309512344Y-68342876D01*
X309726052Y-67826939D01*
X309835000Y-67279223D01*
X309835000Y-66720777D01*
X309726052Y-66173061D01*
X309512344Y-65657124D01*
X309202088Y-65192793D01*
X308807207Y-64797912D01*
X308342876Y-64487656D01*
X307826939Y-64273948D01*
X307279223Y-64165000D01*
X306720777Y-64165000D01*
X306173061Y-64273948D01*
X305657124Y-64487656D01*
X305192793Y-64797912D01*
X304797912Y-65192793D01*
X304487656Y-65657124D01*
X304273948Y-66173061D01*
X304165000Y-66720777D01*
X293401361Y-66720777D01*
X293108760Y-65132566D01*
X293103797Y-65115303D01*
X293101820Y-65097448D01*
X293097694Y-65078555D01*
X293065197Y-64934585D01*
X293060661Y-64920886D01*
X293058576Y-64906608D01*
X293053796Y-64887870D01*
X292900129Y-64302503D01*
X292895052Y-64288783D01*
X292892431Y-64274385D01*
X292886998Y-64255825D01*
X292679512Y-63564900D01*
X292676894Y-63558521D01*
X292675497Y-63551766D01*
X292669623Y-63533341D01*
X292420299Y-62769780D01*
X292418925Y-62766648D01*
X292418170Y-62763314D01*
X292411949Y-62745003D01*
X292132772Y-61941733D01*
X292131890Y-61939821D01*
X292131391Y-61937780D01*
X292124860Y-61919578D01*
X291899756Y-61305720D01*
X291827816Y-61109534D01*
X291826810Y-61107448D01*
X291826222Y-61105210D01*
X291819377Y-61087123D01*
X291516445Y-60303211D01*
X291514580Y-60299507D01*
X291513447Y-60295522D01*
X291506243Y-60277575D01*
X291209407Y-59552726D01*
X291205424Y-59545195D01*
X291202879Y-59537058D01*
X291195207Y-59519307D01*
X290916452Y-58886446D01*
X290907444Y-58870441D01*
X290901257Y-58853148D01*
X290892875Y-58835720D01*
X290644185Y-58327774D01*
X290629673Y-58304265D01*
X290618982Y-58278788D01*
X290609676Y-58261836D01*
X289876899Y-56948824D01*
X289859247Y-56923394D01*
X289845622Y-56895605D01*
X289835340Y-56879227D01*
X288633656Y-54994362D01*
X288608712Y-54962572D01*
X288588351Y-54927665D01*
X288576914Y-54912071D01*
X287253104Y-53133152D01*
X287225599Y-53102877D01*
X287202471Y-53069140D01*
X287189929Y-53054420D01*
X285739564Y-51376065D01*
X285710293Y-51348222D01*
X285685113Y-51316642D01*
X285671543Y-51302864D01*
X284090194Y-49719689D01*
X284060127Y-49694963D01*
X284033784Y-49666295D01*
X284019283Y-49653502D01*
X282302521Y-48160121D01*
X282279613Y-48143829D01*
X282259492Y-48124194D01*
X282244315Y-48112209D01*
X281126655Y-47242126D01*
X281103408Y-47227429D01*
X281082718Y-47209297D01*
X281066921Y-47198141D01*
X279116048Y-45840676D01*
X279085440Y-45823548D01*
X279057624Y-45802176D01*
X279041142Y-45792061D01*
X276979416Y-44546567D01*
X276949427Y-44532240D01*
X276921880Y-44513663D01*
X276904804Y-44504586D01*
X274738415Y-43372308D01*
X274709253Y-43360529D01*
X274682180Y-43344519D01*
X274664597Y-43336470D01*
X272399731Y-42318647D01*
X272371512Y-42309151D01*
X272345070Y-42295478D01*
X272327058Y-42288440D01*
X269969904Y-41386315D01*
X269942705Y-41378852D01*
X269916979Y-41367282D01*
X269898609Y-41361237D01*
X267455361Y-40576050D01*
X267429198Y-40570386D01*
X267404239Y-40560701D01*
X267385578Y-40555629D01*
X264862419Y-39888623D01*
X264837277Y-39884547D01*
X264813105Y-39876550D01*
X264794211Y-39872428D01*
X262197335Y-39324842D01*
X262173185Y-39322173D01*
X262149771Y-39315678D01*
X262130698Y-39312485D01*
X259466293Y-38885563D01*
X259443074Y-38884142D01*
X259420394Y-38878995D01*
X259401191Y-38876710D01*
X256675444Y-38571692D01*
X256653097Y-38571386D01*
X256631095Y-38567450D01*
X256611807Y-38566054D01*
X253830908Y-38384182D01*
X253809362Y-38384881D01*
X253787982Y-38382042D01*
X253768651Y-38381515D01*
X250938791Y-38324028D01*
X250917963Y-38325644D01*
X250897152Y-38323808D01*
X250877816Y-38324132D01*
X248005184Y-38392275D01*
X247985013Y-38394737D01*
X247964701Y-38393827D01*
X247945398Y-38394986D01*
X245036179Y-38589997D01*
X245016584Y-38593253D01*
X244996720Y-38593209D01*
X244977483Y-38595188D01*
X242037870Y-38918312D01*
X242018794Y-38922323D01*
X241999315Y-38923098D01*
X241980179Y-38925883D01*
X239016362Y-39378357D01*
X239002037Y-39382003D01*
X238987296Y-39383111D01*
X238968269Y-39386569D01*
X236997051Y-39758983D01*
X236987992Y-39761632D01*
X236978605Y-39762598D01*
X236959680Y-39766577D01*
X234899711Y-40214827D01*
X234890770Y-40217711D01*
X234881462Y-40218928D01*
X234862654Y-40223426D01*
X232841383Y-40721768D01*
X232831217Y-40725358D01*
X232820574Y-40727070D01*
X232801906Y-40732120D01*
X230880945Y-41266235D01*
X230879627Y-41266745D01*
X230878232Y-41266992D01*
X230859648Y-41272341D01*
X230519243Y-41372882D01*
X230053917Y-41509897D01*
X229638337Y-41631794D01*
X229309350Y-41727775D01*
X229101152Y-41787818D01*
X229095821Y-41789938D01*
X229090188Y-41791029D01*
X229071691Y-41796670D01*
X228804425Y-41880220D01*
X228796559Y-41883552D01*
X228788209Y-41885398D01*
X228769866Y-41891523D01*
X228356894Y-42032625D01*
X228356815Y-42032661D01*
X228339687Y-42038631D01*
X227815886Y-42225333D01*
X227815572Y-42225481D01*
X227805498Y-42229083D01*
X227191865Y-42453335D01*
X227191569Y-42453478D01*
X227184582Y-42456020D01*
X226502114Y-42709773D01*
X226501855Y-42709899D01*
X226496407Y-42711909D01*
X225766102Y-42987112D01*
X225765869Y-42987227D01*
X225761185Y-42988975D01*
X225004038Y-43277580D01*
X225003808Y-43277695D01*
X224999418Y-43279351D01*
X224236428Y-43573308D01*
X224236196Y-43573425D01*
X224231712Y-43575135D01*
X223483874Y-43866396D01*
X223483625Y-43866522D01*
X223478640Y-43868447D01*
X222766951Y-44148961D01*
X222766674Y-44149103D01*
X222760617Y-44151476D01*
X222106074Y-44413194D01*
X222105769Y-44413352D01*
X222097646Y-44416596D01*
X221521249Y-44651467D01*
X221520986Y-44651605D01*
X221508639Y-44656678D01*
X221031381Y-44856656D01*
X221029227Y-44857818D01*
X221026890Y-44858547D01*
X221009133Y-44866207D01*
X220652015Y-45023239D01*
X220642953Y-45028332D01*
X220633129Y-45031713D01*
X220615601Y-45039883D01*
X218623818Y-45985325D01*
X218611489Y-45992731D01*
X218598062Y-45997879D01*
X218580828Y-46006652D01*
X215650012Y-47524397D01*
X215633288Y-47535248D01*
X215615001Y-47543170D01*
X215598156Y-47552669D01*
X212777186Y-49169644D01*
X212760344Y-49181623D01*
X212741759Y-49190657D01*
X212725345Y-49200884D01*
X210018434Y-50913798D01*
X210001503Y-50926990D01*
X209982633Y-50937234D01*
X209966695Y-50948186D01*
X207378056Y-52753747D01*
X207361068Y-52768254D01*
X207341951Y-52779803D01*
X207326535Y-52791478D01*
X204860383Y-54686395D01*
X204843400Y-54702308D01*
X204824072Y-54715275D01*
X204809227Y-54727668D01*
X202469776Y-56708649D01*
X202452868Y-56726070D01*
X202433397Y-56740562D01*
X202419176Y-56753666D01*
X200210640Y-58817418D01*
X200193905Y-58836440D01*
X200174370Y-58852571D01*
X200160827Y-58866375D01*
X198087420Y-61009607D01*
X198070971Y-61030323D01*
X198051485Y-61048197D01*
X198038678Y-61062687D01*
X196104616Y-63282107D01*
X196088602Y-63304582D01*
X196069293Y-63324305D01*
X196057283Y-63339462D01*
X194266777Y-65631777D01*
X194253504Y-65652697D01*
X194237072Y-65671238D01*
X194225828Y-65686972D01*
X192916863Y-67546015D01*
X192905029Y-67566889D01*
X192890004Y-67585596D01*
X192879536Y-67601857D01*
X191524420Y-69739594D01*
X191512120Y-69763975D01*
X191496175Y-69786150D01*
X191486589Y-69802945D01*
X190276752Y-71957273D01*
X190265281Y-71983384D01*
X190249933Y-72007414D01*
X190241284Y-72024711D01*
X189176952Y-74191029D01*
X189166494Y-74218904D01*
X189151917Y-74244870D01*
X189144266Y-74262630D01*
X188225664Y-76436339D01*
X188216418Y-76466009D01*
X188202822Y-76493953D01*
X188196225Y-76512131D01*
X187423577Y-78688630D01*
X187415767Y-78720084D01*
X187403379Y-78750035D01*
X187397897Y-78768580D01*
X186771427Y-80943271D01*
X186765292Y-80976471D01*
X186754364Y-81008416D01*
X186750052Y-81027268D01*
X186269987Y-83195547D01*
X186265778Y-83230406D01*
X186256581Y-83264290D01*
X186253493Y-83283381D01*
X185920055Y-85440653D01*
X185918030Y-85477033D01*
X185910841Y-85512752D01*
X185909028Y-85532005D01*
X185722443Y-87673667D01*
X185722852Y-87711372D01*
X185717952Y-87748755D01*
X185717457Y-87768087D01*
X185677950Y-89889540D01*
X735000Y-89889540D01*
X735000Y-66720777D01*
X3165000Y-66720777D01*
X3165000Y-67279223D01*
X3273948Y-67826939D01*
X3487656Y-68342876D01*
X3797912Y-68807207D01*
X4192793Y-69202088D01*
X4657124Y-69512344D01*
X5173061Y-69726052D01*
X5720777Y-69835000D01*
X6279223Y-69835000D01*
X6826939Y-69726052D01*
X7342876Y-69512344D01*
X7807207Y-69202088D01*
X8202088Y-68807207D01*
X8512344Y-68342876D01*
X8687865Y-67919132D01*
X8789744Y-67987205D01*
X8978102Y-68065226D01*
X9178061Y-68105000D01*
X9381939Y-68105000D01*
X9581898Y-68065226D01*
X9770256Y-67987205D01*
X9939774Y-67873937D01*
X10083937Y-67729774D01*
X10197205Y-67560256D01*
X10275226Y-67371898D01*
X10315000Y-67171939D01*
X10315000Y-66968061D01*
X10275226Y-66768102D01*
X10255624Y-66720777D01*
X153665000Y-66720777D01*
X153665000Y-67279223D01*
X153773948Y-67826939D01*
X153987656Y-68342876D01*
X154297912Y-68807207D01*
X154692793Y-69202088D01*
X155157124Y-69512344D01*
X155673061Y-69726052D01*
X156220777Y-69835000D01*
X156779223Y-69835000D01*
X157326939Y-69726052D01*
X157842876Y-69512344D01*
X158307207Y-69202088D01*
X158702088Y-68807207D01*
X159012344Y-68342876D01*
X159226052Y-67826939D01*
X159335000Y-67279223D01*
X159335000Y-66720777D01*
X159226052Y-66173061D01*
X159012344Y-65657124D01*
X158702088Y-65192793D01*
X158307207Y-64797912D01*
X157842876Y-64487656D01*
X157326939Y-64273948D01*
X156779223Y-64165000D01*
X156220777Y-64165000D01*
X155673061Y-64273948D01*
X155157124Y-64487656D01*
X154692793Y-64797912D01*
X154297912Y-65192793D01*
X153987656Y-65657124D01*
X153773948Y-66173061D01*
X153665000Y-66720777D01*
X10255624Y-66720777D01*
X10197205Y-66579744D01*
X10083937Y-66410226D01*
X9939774Y-66266063D01*
X9770256Y-66152795D01*
X9581898Y-66074774D01*
X9381939Y-66035000D01*
X9178061Y-66035000D01*
X8978102Y-66074774D01*
X8789744Y-66152795D01*
X8729966Y-66192737D01*
X8726052Y-66173061D01*
X8512344Y-65657124D01*
X8202088Y-65192793D01*
X7807207Y-64797912D01*
X7342876Y-64487656D01*
X6826939Y-64273948D01*
X6279223Y-64165000D01*
X5720777Y-64165000D01*
X5173061Y-64273948D01*
X4657124Y-64487656D01*
X4192793Y-64797912D01*
X3797912Y-65192793D01*
X3487656Y-65657124D01*
X3273948Y-66173061D01*
X3165000Y-66720777D01*
X735000Y-66720777D01*
X735000Y-20720777D01*
X1165000Y-20720777D01*
X1165000Y-21279223D01*
X1273948Y-21826939D01*
X1487656Y-22342876D01*
X1797912Y-22807207D01*
X2192793Y-23202088D01*
X2657124Y-23512344D01*
X3173061Y-23726052D01*
X3720777Y-23835000D01*
X4279223Y-23835000D01*
X4826939Y-23726052D01*
X5342876Y-23512344D01*
X5807207Y-23202088D01*
X6202088Y-22807207D01*
X6512344Y-22342876D01*
X6726052Y-21826939D01*
X6835000Y-21279223D01*
X6835000Y-20720777D01*
X153665000Y-20720777D01*
X153665000Y-21279223D01*
X153773948Y-21826939D01*
X153987656Y-22342876D01*
X154297912Y-22807207D01*
X154692793Y-23202088D01*
X155157124Y-23512344D01*
X155673061Y-23726052D01*
X156220777Y-23835000D01*
X156779223Y-23835000D01*
X157326939Y-23726052D01*
X157842876Y-23512344D01*
X158307207Y-23202088D01*
X158702088Y-22807207D01*
X159012344Y-22342876D01*
X159226052Y-21826939D01*
X159335000Y-21279223D01*
X159335000Y-20720777D01*
X306165000Y-20720777D01*
X306165000Y-21279223D01*
X306273948Y-21826939D01*
X306487656Y-22342876D01*
X306797912Y-22807207D01*
X307192793Y-23202088D01*
X307657124Y-23512344D01*
X308173061Y-23726052D01*
X308720777Y-23835000D01*
X309279223Y-23835000D01*
X309826939Y-23726052D01*
X310342876Y-23512344D01*
X310807207Y-23202088D01*
X311202088Y-22807207D01*
X311512344Y-22342876D01*
X311726052Y-21826939D01*
X311835000Y-21279223D01*
X311835000Y-20720777D01*
X311726052Y-20173061D01*
X311512344Y-19657124D01*
X311202088Y-19192793D01*
X310807207Y-18797912D01*
X310342876Y-18487656D01*
X309826939Y-18273948D01*
X309279223Y-18165000D01*
X308720777Y-18165000D01*
X308173061Y-18273948D01*
X307657124Y-18487656D01*
X307192793Y-18797912D01*
X306797912Y-19192793D01*
X306487656Y-19657124D01*
X306273948Y-20173061D01*
X306165000Y-20720777D01*
X159335000Y-20720777D01*
X159226052Y-20173061D01*
X159012344Y-19657124D01*
X158702088Y-19192793D01*
X158307207Y-18797912D01*
X157842876Y-18487656D01*
X157326939Y-18273948D01*
X156779223Y-18165000D01*
X156220777Y-18165000D01*
X155673061Y-18273948D01*
X155157124Y-18487656D01*
X154692793Y-18797912D01*
X154297912Y-19192793D01*
X153987656Y-19657124D01*
X153773948Y-20173061D01*
X153665000Y-20720777D01*
X6835000Y-20720777D01*
X6726052Y-20173061D01*
X6512344Y-19657124D01*
X6202088Y-19192793D01*
X5807207Y-18797912D01*
X5342876Y-18487656D01*
X4826939Y-18273948D01*
X4279223Y-18165000D01*
X3720777Y-18165000D01*
X3173061Y-18273948D01*
X2657124Y-18487656D01*
X2192793Y-18797912D01*
X1797912Y-19192793D01*
X1487656Y-19657124D01*
X1273948Y-20173061D01*
X1165000Y-20720777D01*
X735000Y-20720777D01*
X735000Y-3720777D01*
X1165000Y-3720777D01*
X1165000Y-4279223D01*
X1273948Y-4826939D01*
X1487656Y-5342876D01*
X1797912Y-5807207D01*
X2192793Y-6202088D01*
X2657124Y-6512344D01*
X3173061Y-6726052D01*
X3720777Y-6835000D01*
X4279223Y-6835000D01*
X4826939Y-6726052D01*
X5342876Y-6512344D01*
X5807207Y-6202088D01*
X6202088Y-5807207D01*
X6512344Y-5342876D01*
X6726052Y-4826939D01*
X6835000Y-4279223D01*
X6835000Y-3720777D01*
X153665000Y-3720777D01*
X153665000Y-4279223D01*
X153773948Y-4826939D01*
X153987656Y-5342876D01*
X154297912Y-5807207D01*
X154692793Y-6202088D01*
X155157124Y-6512344D01*
X155673061Y-6726052D01*
X156220777Y-6835000D01*
X156779223Y-6835000D01*
X157326939Y-6726052D01*
X157842876Y-6512344D01*
X158307207Y-6202088D01*
X158702088Y-5807207D01*
X159012344Y-5342876D01*
X159226052Y-4826939D01*
X159335000Y-4279223D01*
X159335000Y-3720777D01*
X306165000Y-3720777D01*
X306165000Y-4279223D01*
X306273948Y-4826939D01*
X306487656Y-5342876D01*
X306797912Y-5807207D01*
X307192793Y-6202088D01*
X307657124Y-6512344D01*
X308173061Y-6726052D01*
X308720777Y-6835000D01*
X309279223Y-6835000D01*
X309826939Y-6726052D01*
X310342876Y-6512344D01*
X310807207Y-6202088D01*
X311202088Y-5807207D01*
X311512344Y-5342876D01*
X311726052Y-4826939D01*
X311835000Y-4279223D01*
X311835000Y-3720777D01*
X311726052Y-3173061D01*
X311512344Y-2657124D01*
X311202088Y-2192793D01*
X310807207Y-1797912D01*
X310342876Y-1487656D01*
X309826939Y-1273948D01*
X309279223Y-1165000D01*
X308720777Y-1165000D01*
X308173061Y-1273948D01*
X307657124Y-1487656D01*
X307192793Y-1797912D01*
X306797912Y-2192793D01*
X306487656Y-2657124D01*
X306273948Y-3173061D01*
X306165000Y-3720777D01*
X159335000Y-3720777D01*
X159226052Y-3173061D01*
X159012344Y-2657124D01*
X158702088Y-2192793D01*
X158307207Y-1797912D01*
X157842876Y-1487656D01*
X157326939Y-1273948D01*
X156779223Y-1165000D01*
X156220777Y-1165000D01*
X155673061Y-1273948D01*
X155157124Y-1487656D01*
X154692793Y-1797912D01*
X154297912Y-2192793D01*
X153987656Y-2657124D01*
X153773948Y-3173061D01*
X153665000Y-3720777D01*
X6835000Y-3720777D01*
X6726052Y-3173061D01*
X6512344Y-2657124D01*
X6202088Y-2192793D01*
X5807207Y-1797912D01*
X5342876Y-1487656D01*
X4826939Y-1273948D01*
X4279223Y-1165000D01*
X3720777Y-1165000D01*
X3173061Y-1273948D01*
X2657124Y-1487656D01*
X2192793Y-1797912D01*
X1797912Y-2192793D01*
X1487656Y-2657124D01*
X1273948Y-3173061D01*
X1165000Y-3720777D01*
X735000Y-3720777D01*
X735000Y-2035947D01*
X762549Y-1754979D01*
X833708Y-1519288D01*
X949291Y-1301911D01*
X1104895Y-1111121D01*
X1294593Y-954189D01*
X1511157Y-837094D01*
X1746344Y-764291D01*
X2025028Y-735000D01*
X310964053Y-735000D01*
X311245021Y-762549D01*
%TA.AperFunction,NonConductor*%
D15*
G36*
X311245021Y-762549D02*
G01*
X311480712Y-833708D01*
X311698089Y-949291D01*
X311888879Y-1104895D01*
X312045811Y-1294593D01*
X312162906Y-1511157D01*
X312235709Y-1746344D01*
X312265001Y-2025037D01*
X312265000Y-126964053D01*
X312237451Y-127245021D01*
X312166291Y-127480712D01*
X312050711Y-127698088D01*
X311895104Y-127888879D01*
X311705408Y-128045811D01*
X311488843Y-128162906D01*
X311253656Y-128235709D01*
X310974972Y-128265000D01*
X2035947Y-128265000D01*
X1754979Y-128237451D01*
X1519288Y-128166291D01*
X1301912Y-128050711D01*
X1111121Y-127895104D01*
X954189Y-127705408D01*
X837094Y-127488843D01*
X764291Y-127253656D01*
X735000Y-126974972D01*
X735000Y-122720777D01*
X3165000Y-122720777D01*
X3165000Y-123279223D01*
X3273948Y-123826939D01*
X3487656Y-124342876D01*
X3797912Y-124807207D01*
X4192793Y-125202088D01*
X4657124Y-125512344D01*
X5173061Y-125726052D01*
X5720777Y-125835000D01*
X6279223Y-125835000D01*
X6826939Y-125726052D01*
X7342876Y-125512344D01*
X7807207Y-125202088D01*
X8202088Y-124807207D01*
X8512344Y-124342876D01*
X8726052Y-123826939D01*
X8835000Y-123279223D01*
X8835000Y-122720777D01*
X153665000Y-122720777D01*
X153665000Y-123279223D01*
X153773948Y-123826939D01*
X153987656Y-124342876D01*
X154297912Y-124807207D01*
X154692793Y-125202088D01*
X155157124Y-125512344D01*
X155673061Y-125726052D01*
X156220777Y-125835000D01*
X156779223Y-125835000D01*
X157326939Y-125726052D01*
X157842876Y-125512344D01*
X158307207Y-125202088D01*
X158702088Y-124807207D01*
X159012344Y-124342876D01*
X159226052Y-123826939D01*
X159335000Y-123279223D01*
X159335000Y-122720777D01*
X159226052Y-122173061D01*
X159012344Y-121657124D01*
X158702088Y-121192793D01*
X158307207Y-120797912D01*
X157842876Y-120487656D01*
X157326939Y-120273948D01*
X156779223Y-120165000D01*
X156220777Y-120165000D01*
X155673061Y-120273948D01*
X155157124Y-120487656D01*
X154692793Y-120797912D01*
X154297912Y-121192793D01*
X153987656Y-121657124D01*
X153773948Y-122173061D01*
X153665000Y-122720777D01*
X8835000Y-122720777D01*
X8726052Y-122173061D01*
X8512344Y-121657124D01*
X8202088Y-121192793D01*
X7807207Y-120797912D01*
X7342876Y-120487656D01*
X6826939Y-120273948D01*
X6279223Y-120165000D01*
X5720777Y-120165000D01*
X5173061Y-120273948D01*
X4657124Y-120487656D01*
X4192793Y-120797912D01*
X3797912Y-121192793D01*
X3487656Y-121657124D01*
X3273948Y-122173061D01*
X3165000Y-122720777D01*
X735000Y-122720777D01*
X735000Y-89889540D01*
X185677950Y-89889540D01*
X185681024Y-89928308D01*
X185678679Y-89967122D01*
X185679537Y-89986442D01*
X185787333Y-92083086D01*
X185793267Y-92122589D01*
X185793714Y-92162533D01*
X185795950Y-92181742D01*
X186051272Y-94248977D01*
X186060212Y-94288839D01*
X186063639Y-94329537D01*
X186067267Y-94348532D01*
X186470339Y-96381759D01*
X186482357Y-96421532D01*
X186488890Y-96462574D01*
X186493909Y-96481250D01*
X187044959Y-98475867D01*
X187060054Y-98515100D01*
X187069733Y-98556002D01*
X187076129Y-98574252D01*
X187775380Y-100525661D01*
X187793450Y-100563863D01*
X187806231Y-100604147D01*
X187813975Y-100621868D01*
X188661651Y-102525469D01*
X188682507Y-102562177D01*
X188698249Y-102601358D01*
X188707295Y-102618450D01*
X189703621Y-104469642D01*
X189726991Y-104504434D01*
X189745459Y-104542050D01*
X189755749Y-104558423D01*
X190900951Y-106352608D01*
X190926479Y-106385107D01*
X190947365Y-106420762D01*
X190958830Y-106436335D01*
X192253131Y-108168909D01*
X192280388Y-108198800D01*
X192303310Y-108232150D01*
X192315870Y-108246855D01*
X193762018Y-109916255D01*
X193790699Y-109943471D01*
X193815345Y-109974383D01*
X193828916Y-109988161D01*
X195413384Y-111574558D01*
X195442889Y-111598824D01*
X195468708Y-111626982D01*
X195483196Y-111639792D01*
X197186888Y-113125044D01*
X197216627Y-113146242D01*
X197243043Y-113171457D01*
X197258351Y-113183274D01*
X199075743Y-114566114D01*
X199105359Y-114584382D01*
X199132007Y-114606739D01*
X199148040Y-114617552D01*
X201073612Y-115896706D01*
X201102804Y-115912225D01*
X201129392Y-115931876D01*
X201146060Y-115941682D01*
X203174287Y-117115881D01*
X203202846Y-117128877D01*
X203229131Y-117145998D01*
X203246349Y-117154802D01*
X205371710Y-118222778D01*
X205399477Y-118233481D01*
X205425289Y-118248278D01*
X205442980Y-118256090D01*
X207659949Y-119216570D01*
X207686826Y-119225212D01*
X207712045Y-119237893D01*
X207730135Y-119244727D01*
X210033192Y-120096442D01*
X210059125Y-120103243D01*
X210083676Y-120114012D01*
X210102100Y-120119886D01*
X212485722Y-120861567D01*
X212510695Y-120866732D01*
X212534543Y-120875781D01*
X212553242Y-120880714D01*
X215011905Y-121511088D01*
X215035935Y-121514800D01*
X215059066Y-121522304D01*
X215077984Y-121526316D01*
X217606166Y-122044116D01*
X217629289Y-122046536D01*
X217651714Y-122052653D01*
X217670801Y-122055764D01*
X220262979Y-122459719D01*
X220285237Y-122460986D01*
X220306995Y-122465857D01*
X220326205Y-122468086D01*
X222976855Y-122756923D01*
X222998313Y-122757155D01*
X223019434Y-122760898D01*
X223038724Y-122762264D01*
X225742326Y-122934715D01*
X225763037Y-122934010D01*
X225783578Y-122936729D01*
X225802909Y-122937249D01*
X228553937Y-122992044D01*
X228573964Y-122990482D01*
X228593976Y-122992263D01*
X228613312Y-122991954D01*
X231406245Y-122927822D01*
X231425652Y-122925468D01*
X231445186Y-122926380D01*
X231464492Y-122925257D01*
X234293808Y-122740929D01*
X234312659Y-122737833D01*
X234331762Y-122737932D01*
X234351005Y-122736010D01*
X234493482Y-122720777D01*
X304165000Y-122720777D01*
X304165000Y-123279223D01*
X304273948Y-123826939D01*
X304487656Y-124342876D01*
X304797912Y-124807207D01*
X305192793Y-125202088D01*
X305657124Y-125512344D01*
X306173061Y-125726052D01*
X306720777Y-125835000D01*
X307279223Y-125835000D01*
X307826939Y-125726052D01*
X308342876Y-125512344D01*
X308807207Y-125202088D01*
X309202088Y-124807207D01*
X309512344Y-124342876D01*
X309726052Y-123826939D01*
X309835000Y-123279223D01*
X309835000Y-122720777D01*
X309726052Y-122173061D01*
X309512344Y-121657124D01*
X309202088Y-121192793D01*
X308807207Y-120797912D01*
X308342876Y-120487656D01*
X307826939Y-120273948D01*
X307279223Y-120165000D01*
X306720777Y-120165000D01*
X306173061Y-120273948D01*
X305657124Y-120487656D01*
X305192793Y-120797912D01*
X304797912Y-121192793D01*
X304487656Y-121657124D01*
X304273948Y-122173061D01*
X304165000Y-122720777D01*
X234493482Y-122720777D01*
X237211180Y-122430215D01*
X237229523Y-122426415D01*
X237248251Y-122425746D01*
X237267399Y-122423038D01*
X240152908Y-121994507D01*
X240170803Y-121990030D01*
X240189192Y-121988625D01*
X240208215Y-121985144D01*
X243113540Y-121432604D01*
X243131022Y-121427470D01*
X243149120Y-121425353D01*
X243167987Y-121421112D01*
X246087601Y-120743295D01*
X246092684Y-120741578D01*
X246097991Y-120740840D01*
X246116762Y-120736191D01*
X246607328Y-120611039D01*
X246607643Y-120610925D01*
X246615357Y-120608965D01*
X247368227Y-120412086D01*
X247368482Y-120411992D01*
X247382299Y-120408327D01*
X248074862Y-120219415D01*
X248074909Y-120219397D01*
X248092939Y-120214352D01*
X248751765Y-120025012D01*
X248752671Y-120024653D01*
X248753628Y-120024475D01*
X248772168Y-120018978D01*
X249423824Y-119820811D01*
X249424728Y-119820436D01*
X249425687Y-119820243D01*
X249444141Y-119814461D01*
X250115196Y-119599074D01*
X250115223Y-119599062D01*
X250133193Y-119593162D01*
X250850213Y-119352156D01*
X250850438Y-119352055D01*
X250864522Y-119347259D01*
X251654076Y-119072241D01*
X251654382Y-119072100D01*
X251664391Y-119068603D01*
X252553048Y-118751175D01*
X252553335Y-118751039D01*
X252559776Y-118748752D01*
X253574103Y-118380518D01*
X253574335Y-118380407D01*
X253578949Y-118378749D01*
X254410469Y-118073370D01*
X254410777Y-118073221D01*
X254418267Y-118070479D01*
X255474985Y-117675178D01*
X255475257Y-117675045D01*
X255487501Y-117670427D01*
X256432993Y-117306277D01*
X256433099Y-117306224D01*
X256449361Y-117299853D01*
X257309566Y-116955949D01*
X257310457Y-116955487D01*
X257311414Y-116955208D01*
X257329309Y-116947878D01*
X258130160Y-116613308D01*
X258132088Y-116612271D01*
X258134178Y-116611622D01*
X258151946Y-116603987D01*
X258919383Y-116267842D01*
X258921387Y-116266720D01*
X258923570Y-116266000D01*
X258941203Y-116258059D01*
X259701160Y-115909431D01*
X259702216Y-115908815D01*
X259703375Y-115908413D01*
X259720881Y-115900196D01*
X260499298Y-115528176D01*
X260499391Y-115528120D01*
X260515324Y-115520390D01*
X261338134Y-115114069D01*
X261340418Y-115112649D01*
X261342925Y-115111691D01*
X261360171Y-115102941D01*
X263159036Y-114174381D01*
X263171036Y-114166617D01*
X263184204Y-114161060D01*
X263201137Y-114151720D01*
X266136617Y-112505721D01*
X266154135Y-112493509D01*
X266173414Y-112484338D01*
X266189913Y-112474251D01*
X268999942Y-110729164D01*
X269017706Y-110715562D01*
X269037441Y-110705031D01*
X269053457Y-110694193D01*
X271736463Y-108851177D01*
X271754335Y-108836135D01*
X271774398Y-108824169D01*
X271789880Y-108812582D01*
X274344294Y-106872795D01*
X274362122Y-106856279D01*
X274382359Y-106842825D01*
X274397255Y-106830494D01*
X276821505Y-104795093D01*
X276839116Y-104777099D01*
X276859358Y-104762124D01*
X276873617Y-104749061D01*
X279166133Y-102619204D01*
X279183346Y-102599752D01*
X279203406Y-102583254D01*
X279216976Y-102569476D01*
X281376185Y-100346321D01*
X281388088Y-100331392D01*
X281402322Y-100318660D01*
X281415310Y-100304331D01*
X282593962Y-98985598D01*
X282604735Y-98970874D01*
X282617839Y-98958168D01*
X282630239Y-98943329D01*
X284361665Y-96841833D01*
X284375863Y-96820693D01*
X284393225Y-96802064D01*
X284404859Y-96786617D01*
X285994261Y-94645295D01*
X286008009Y-94622401D01*
X286025171Y-94601935D01*
X286035980Y-94585899D01*
X287480995Y-92409473D01*
X287494156Y-92384702D01*
X287510981Y-92362267D01*
X287520903Y-92345668D01*
X288819159Y-90138853D01*
X288831552Y-90112115D01*
X288847880Y-90087574D01*
X288856850Y-90070442D01*
X290005985Y-87837958D01*
X290017409Y-87809159D01*
X290033031Y-87782403D01*
X290040983Y-87764775D01*
X291038628Y-85511340D01*
X291048839Y-85480428D01*
X291063516Y-85451365D01*
X291070381Y-85433286D01*
X291914170Y-83163617D01*
X291922896Y-83130577D01*
X291936345Y-83099157D01*
X291942055Y-83080681D01*
X292629621Y-80799498D01*
X292636560Y-80764364D01*
X292648463Y-80730599D01*
X292652951Y-80711788D01*
X293181927Y-78423809D01*
X293186758Y-78386703D01*
X293196775Y-78350655D01*
X293199977Y-78331583D01*
X293567997Y-76041523D01*
X293569091Y-76023784D01*
X293573170Y-76006481D01*
X293575615Y-75987297D01*
X293617999Y-75635208D01*
X293618323Y-75620529D01*
X293621187Y-75606136D01*
X293622958Y-75586879D01*
X293797827Y-73527796D01*
X293797365Y-73492276D01*
X293802016Y-73457051D01*
X293802529Y-73437719D01*
X293841795Y-71433070D01*
X293838821Y-71395092D01*
X293841198Y-71357074D01*
X293840381Y-71337753D01*
X293742589Y-69354029D01*
X293737038Y-69316537D01*
X293736806Y-69278634D01*
X293734666Y-69259414D01*
X293498360Y-67263106D01*
X293490874Y-67228919D01*
X293488410Y-67194017D01*
X293485039Y-67174974D01*
X293401361Y-66720777D01*
X304165000Y-66720777D01*
X304165000Y-67279223D01*
X304273948Y-67826939D01*
X304487656Y-68342876D01*
X304797912Y-68807207D01*
X305192793Y-69202088D01*
X305657124Y-69512344D01*
X306173061Y-69726052D01*
X306720777Y-69835000D01*
X307279223Y-69835000D01*
X307826939Y-69726052D01*
X308342876Y-69512344D01*
X308807207Y-69202088D01*
X309202088Y-68807207D01*
X309512344Y-68342876D01*
X309726052Y-67826939D01*
X309835000Y-67279223D01*
X309835000Y-66720777D01*
X309726052Y-66173061D01*
X309512344Y-65657124D01*
X309202088Y-65192793D01*
X308807207Y-64797912D01*
X308342876Y-64487656D01*
X307826939Y-64273948D01*
X307279223Y-64165000D01*
X306720777Y-64165000D01*
X306173061Y-64273948D01*
X305657124Y-64487656D01*
X305192793Y-64797912D01*
X304797912Y-65192793D01*
X304487656Y-65657124D01*
X304273948Y-66173061D01*
X304165000Y-66720777D01*
X293401361Y-66720777D01*
X293108760Y-65132566D01*
X293103797Y-65115303D01*
X293101820Y-65097448D01*
X293097694Y-65078555D01*
X293065197Y-64934585D01*
X293060661Y-64920886D01*
X293058576Y-64906608D01*
X293053796Y-64887870D01*
X292900129Y-64302503D01*
X292895052Y-64288783D01*
X292892431Y-64274385D01*
X292886998Y-64255825D01*
X292679512Y-63564900D01*
X292676894Y-63558521D01*
X292675497Y-63551766D01*
X292669623Y-63533341D01*
X292420299Y-62769780D01*
X292418925Y-62766648D01*
X292418170Y-62763314D01*
X292411949Y-62745003D01*
X292132772Y-61941733D01*
X292131890Y-61939821D01*
X292131391Y-61937780D01*
X292124860Y-61919578D01*
X291899756Y-61305720D01*
X291827816Y-61109534D01*
X291826810Y-61107448D01*
X291826222Y-61105210D01*
X291819377Y-61087123D01*
X291516445Y-60303211D01*
X291514580Y-60299507D01*
X291513447Y-60295522D01*
X291506243Y-60277575D01*
X291209407Y-59552726D01*
X291205424Y-59545195D01*
X291202879Y-59537058D01*
X291195207Y-59519307D01*
X290916452Y-58886446D01*
X290907444Y-58870441D01*
X290901257Y-58853148D01*
X290892875Y-58835720D01*
X290644185Y-58327774D01*
X290629673Y-58304265D01*
X290618982Y-58278788D01*
X290609676Y-58261836D01*
X289876899Y-56948824D01*
X289859247Y-56923394D01*
X289845622Y-56895605D01*
X289835340Y-56879227D01*
X288633656Y-54994362D01*
X288608712Y-54962572D01*
X288588351Y-54927665D01*
X288576914Y-54912071D01*
X287253104Y-53133152D01*
X287225599Y-53102877D01*
X287202471Y-53069140D01*
X287189929Y-53054420D01*
X285739564Y-51376065D01*
X285710293Y-51348222D01*
X285685113Y-51316642D01*
X285671543Y-51302864D01*
X284090194Y-49719689D01*
X284060127Y-49694963D01*
X284033784Y-49666295D01*
X284019283Y-49653502D01*
X282302521Y-48160121D01*
X282279613Y-48143829D01*
X282259492Y-48124194D01*
X282244315Y-48112209D01*
X281126655Y-47242126D01*
X281103408Y-47227429D01*
X281082718Y-47209297D01*
X281066921Y-47198141D01*
X279116048Y-45840676D01*
X279085440Y-45823548D01*
X279057624Y-45802176D01*
X279041142Y-45792061D01*
X276979416Y-44546567D01*
X276949427Y-44532240D01*
X276921880Y-44513663D01*
X276904804Y-44504586D01*
X274738415Y-43372308D01*
X274709253Y-43360529D01*
X274682180Y-43344519D01*
X274664597Y-43336470D01*
X272399731Y-42318647D01*
X272371512Y-42309151D01*
X272345070Y-42295478D01*
X272327058Y-42288440D01*
X269969904Y-41386315D01*
X269942705Y-41378852D01*
X269916979Y-41367282D01*
X269898609Y-41361237D01*
X267455361Y-40576050D01*
X267429198Y-40570386D01*
X267404239Y-40560701D01*
X267385578Y-40555629D01*
X264862419Y-39888623D01*
X264837277Y-39884547D01*
X264813105Y-39876550D01*
X264794211Y-39872428D01*
X262197335Y-39324842D01*
X262173185Y-39322173D01*
X262149771Y-39315678D01*
X262130698Y-39312485D01*
X259466293Y-38885563D01*
X259443074Y-38884142D01*
X259420394Y-38878995D01*
X259401191Y-38876710D01*
X256675444Y-38571692D01*
X256653097Y-38571386D01*
X256631095Y-38567450D01*
X256611807Y-38566054D01*
X253830908Y-38384182D01*
X253809362Y-38384881D01*
X253787982Y-38382042D01*
X253768651Y-38381515D01*
X250938791Y-38324028D01*
X250917963Y-38325644D01*
X250897152Y-38323808D01*
X250877816Y-38324132D01*
X248005184Y-38392275D01*
X247985013Y-38394737D01*
X247964701Y-38393827D01*
X247945398Y-38394986D01*
X245036179Y-38589997D01*
X245016584Y-38593253D01*
X244996720Y-38593209D01*
X244977483Y-38595188D01*
X242037870Y-38918312D01*
X242018794Y-38922323D01*
X241999315Y-38923098D01*
X241980179Y-38925883D01*
X239016362Y-39378357D01*
X239002037Y-39382003D01*
X238987296Y-39383111D01*
X238968269Y-39386569D01*
X236997051Y-39758983D01*
X236987992Y-39761632D01*
X236978605Y-39762598D01*
X236959680Y-39766577D01*
X234899711Y-40214827D01*
X234890770Y-40217711D01*
X234881462Y-40218928D01*
X234862654Y-40223426D01*
X232841383Y-40721768D01*
X232831217Y-40725358D01*
X232820574Y-40727070D01*
X232801906Y-40732120D01*
X230880945Y-41266235D01*
X230879627Y-41266745D01*
X230878232Y-41266992D01*
X230859648Y-41272341D01*
X230519243Y-41372882D01*
X230053917Y-41509897D01*
X229638337Y-41631794D01*
X229309350Y-41727775D01*
X229101152Y-41787818D01*
X229095821Y-41789938D01*
X229090188Y-41791029D01*
X229071691Y-41796670D01*
X228804425Y-41880220D01*
X228796559Y-41883552D01*
X228788209Y-41885398D01*
X228769866Y-41891523D01*
X228356894Y-42032625D01*
X228356815Y-42032661D01*
X228339687Y-42038631D01*
X227815886Y-42225333D01*
X227815572Y-42225481D01*
X227805498Y-42229083D01*
X227191865Y-42453335D01*
X227191569Y-42453478D01*
X227184582Y-42456020D01*
X226502114Y-42709773D01*
X226501855Y-42709899D01*
X226496407Y-42711909D01*
X225766102Y-42987112D01*
X225765869Y-42987227D01*
X225761185Y-42988975D01*
X225004038Y-43277580D01*
X225003808Y-43277695D01*
X224999418Y-43279351D01*
X224236428Y-43573308D01*
X224236196Y-43573425D01*
X224231712Y-43575135D01*
X223483874Y-43866396D01*
X223483625Y-43866522D01*
X223478640Y-43868447D01*
X222766951Y-44148961D01*
X222766674Y-44149103D01*
X222760617Y-44151476D01*
X222106074Y-44413194D01*
X222105769Y-44413352D01*
X222097646Y-44416596D01*
X221521249Y-44651467D01*
X221520986Y-44651605D01*
X221508639Y-44656678D01*
X221031381Y-44856656D01*
X221029227Y-44857818D01*
X221026890Y-44858547D01*
X221009133Y-44866207D01*
X220652015Y-45023239D01*
X220642953Y-45028332D01*
X220633129Y-45031713D01*
X220615601Y-45039883D01*
X218623818Y-45985325D01*
X218611489Y-45992731D01*
X218598062Y-45997879D01*
X218580828Y-46006652D01*
X215650012Y-47524397D01*
X215633288Y-47535248D01*
X215615001Y-47543170D01*
X215598156Y-47552669D01*
X212777186Y-49169644D01*
X212760344Y-49181623D01*
X212741759Y-49190657D01*
X212725345Y-49200884D01*
X210018434Y-50913798D01*
X210001503Y-50926990D01*
X209982633Y-50937234D01*
X209966695Y-50948186D01*
X207378056Y-52753747D01*
X207361068Y-52768254D01*
X207341951Y-52779803D01*
X207326535Y-52791478D01*
X204860383Y-54686395D01*
X204843400Y-54702308D01*
X204824072Y-54715275D01*
X204809227Y-54727668D01*
X202469776Y-56708649D01*
X202452868Y-56726070D01*
X202433397Y-56740562D01*
X202419176Y-56753666D01*
X200210640Y-58817418D01*
X200193905Y-58836440D01*
X200174370Y-58852571D01*
X200160827Y-58866375D01*
X198087420Y-61009607D01*
X198070971Y-61030323D01*
X198051485Y-61048197D01*
X198038678Y-61062687D01*
X196104616Y-63282107D01*
X196088602Y-63304582D01*
X196069293Y-63324305D01*
X196057283Y-63339462D01*
X194266777Y-65631777D01*
X194253504Y-65652697D01*
X194237072Y-65671238D01*
X194225828Y-65686972D01*
X192916863Y-67546015D01*
X192905029Y-67566889D01*
X192890004Y-67585596D01*
X192879536Y-67601857D01*
X191524420Y-69739594D01*
X191512120Y-69763975D01*
X191496175Y-69786150D01*
X191486589Y-69802945D01*
X190276752Y-71957273D01*
X190265281Y-71983384D01*
X190249933Y-72007414D01*
X190241284Y-72024711D01*
X189176952Y-74191029D01*
X189166494Y-74218904D01*
X189151917Y-74244870D01*
X189144266Y-74262630D01*
X188225664Y-76436339D01*
X188216418Y-76466009D01*
X188202822Y-76493953D01*
X188196225Y-76512131D01*
X187423577Y-78688630D01*
X187415767Y-78720084D01*
X187403379Y-78750035D01*
X187397897Y-78768580D01*
X186771427Y-80943271D01*
X186765292Y-80976471D01*
X186754364Y-81008416D01*
X186750052Y-81027268D01*
X186269987Y-83195547D01*
X186265778Y-83230406D01*
X186256581Y-83264290D01*
X186253493Y-83283381D01*
X185920055Y-85440653D01*
X185918030Y-85477033D01*
X185910841Y-85512752D01*
X185909028Y-85532005D01*
X185722443Y-87673667D01*
X185722852Y-87711372D01*
X185717952Y-87748755D01*
X185717457Y-87768087D01*
X185677950Y-89889540D01*
X735000Y-89889540D01*
X735000Y-66720777D01*
X3165000Y-66720777D01*
X3165000Y-67279223D01*
X3273948Y-67826939D01*
X3487656Y-68342876D01*
X3797912Y-68807207D01*
X4192793Y-69202088D01*
X4657124Y-69512344D01*
X5173061Y-69726052D01*
X5720777Y-69835000D01*
X6279223Y-69835000D01*
X6826939Y-69726052D01*
X7342876Y-69512344D01*
X7807207Y-69202088D01*
X8202088Y-68807207D01*
X8512344Y-68342876D01*
X8687865Y-67919132D01*
X8789744Y-67987205D01*
X8978102Y-68065226D01*
X9178061Y-68105000D01*
X9381939Y-68105000D01*
X9581898Y-68065226D01*
X9770256Y-67987205D01*
X9939774Y-67873937D01*
X10083937Y-67729774D01*
X10197205Y-67560256D01*
X10275226Y-67371898D01*
X10315000Y-67171939D01*
X10315000Y-66968061D01*
X10275226Y-66768102D01*
X10255624Y-66720777D01*
X153665000Y-66720777D01*
X153665000Y-67279223D01*
X153773948Y-67826939D01*
X153987656Y-68342876D01*
X154297912Y-68807207D01*
X154692793Y-69202088D01*
X155157124Y-69512344D01*
X155673061Y-69726052D01*
X156220777Y-69835000D01*
X156779223Y-69835000D01*
X157326939Y-69726052D01*
X157842876Y-69512344D01*
X158307207Y-69202088D01*
X158702088Y-68807207D01*
X159012344Y-68342876D01*
X159226052Y-67826939D01*
X159335000Y-67279223D01*
X159335000Y-66720777D01*
X159226052Y-66173061D01*
X159012344Y-65657124D01*
X158702088Y-65192793D01*
X158307207Y-64797912D01*
X157842876Y-64487656D01*
X157326939Y-64273948D01*
X156779223Y-64165000D01*
X156220777Y-64165000D01*
X155673061Y-64273948D01*
X155157124Y-64487656D01*
X154692793Y-64797912D01*
X154297912Y-65192793D01*
X153987656Y-65657124D01*
X153773948Y-66173061D01*
X153665000Y-66720777D01*
X10255624Y-66720777D01*
X10197205Y-66579744D01*
X10083937Y-66410226D01*
X9939774Y-66266063D01*
X9770256Y-66152795D01*
X9581898Y-66074774D01*
X9381939Y-66035000D01*
X9178061Y-66035000D01*
X8978102Y-66074774D01*
X8789744Y-66152795D01*
X8729966Y-66192737D01*
X8726052Y-66173061D01*
X8512344Y-65657124D01*
X8202088Y-65192793D01*
X7807207Y-64797912D01*
X7342876Y-64487656D01*
X6826939Y-64273948D01*
X6279223Y-64165000D01*
X5720777Y-64165000D01*
X5173061Y-64273948D01*
X4657124Y-64487656D01*
X4192793Y-64797912D01*
X3797912Y-65192793D01*
X3487656Y-65657124D01*
X3273948Y-66173061D01*
X3165000Y-66720777D01*
X735000Y-66720777D01*
X735000Y-20720777D01*
X1165000Y-20720777D01*
X1165000Y-21279223D01*
X1273948Y-21826939D01*
X1487656Y-22342876D01*
X1797912Y-22807207D01*
X2192793Y-23202088D01*
X2657124Y-23512344D01*
X3173061Y-23726052D01*
X3720777Y-23835000D01*
X4279223Y-23835000D01*
X4826939Y-23726052D01*
X5342876Y-23512344D01*
X5807207Y-23202088D01*
X6202088Y-22807207D01*
X6512344Y-22342876D01*
X6726052Y-21826939D01*
X6835000Y-21279223D01*
X6835000Y-20720777D01*
X153665000Y-20720777D01*
X153665000Y-21279223D01*
X153773948Y-21826939D01*
X153987656Y-22342876D01*
X154297912Y-22807207D01*
X154692793Y-23202088D01*
X155157124Y-23512344D01*
X155673061Y-23726052D01*
X156220777Y-23835000D01*
X156779223Y-23835000D01*
X157326939Y-23726052D01*
X157842876Y-23512344D01*
X158307207Y-23202088D01*
X158702088Y-22807207D01*
X159012344Y-22342876D01*
X159226052Y-21826939D01*
X159335000Y-21279223D01*
X159335000Y-20720777D01*
X306165000Y-20720777D01*
X306165000Y-21279223D01*
X306273948Y-21826939D01*
X306487656Y-22342876D01*
X306797912Y-22807207D01*
X307192793Y-23202088D01*
X307657124Y-23512344D01*
X308173061Y-23726052D01*
X308720777Y-23835000D01*
X309279223Y-23835000D01*
X309826939Y-23726052D01*
X310342876Y-23512344D01*
X310807207Y-23202088D01*
X311202088Y-22807207D01*
X311512344Y-22342876D01*
X311726052Y-21826939D01*
X311835000Y-21279223D01*
X311835000Y-20720777D01*
X311726052Y-20173061D01*
X311512344Y-19657124D01*
X311202088Y-19192793D01*
X310807207Y-18797912D01*
X310342876Y-18487656D01*
X309826939Y-18273948D01*
X309279223Y-18165000D01*
X308720777Y-18165000D01*
X308173061Y-18273948D01*
X307657124Y-18487656D01*
X307192793Y-18797912D01*
X306797912Y-19192793D01*
X306487656Y-19657124D01*
X306273948Y-20173061D01*
X306165000Y-20720777D01*
X159335000Y-20720777D01*
X159226052Y-20173061D01*
X159012344Y-19657124D01*
X158702088Y-19192793D01*
X158307207Y-18797912D01*
X157842876Y-18487656D01*
X157326939Y-18273948D01*
X156779223Y-18165000D01*
X156220777Y-18165000D01*
X155673061Y-18273948D01*
X155157124Y-18487656D01*
X154692793Y-18797912D01*
X154297912Y-19192793D01*
X153987656Y-19657124D01*
X153773948Y-20173061D01*
X153665000Y-20720777D01*
X6835000Y-20720777D01*
X6726052Y-20173061D01*
X6512344Y-19657124D01*
X6202088Y-19192793D01*
X5807207Y-18797912D01*
X5342876Y-18487656D01*
X4826939Y-18273948D01*
X4279223Y-18165000D01*
X3720777Y-18165000D01*
X3173061Y-18273948D01*
X2657124Y-18487656D01*
X2192793Y-18797912D01*
X1797912Y-19192793D01*
X1487656Y-19657124D01*
X1273948Y-20173061D01*
X1165000Y-20720777D01*
X735000Y-20720777D01*
X735000Y-3720777D01*
X1165000Y-3720777D01*
X1165000Y-4279223D01*
X1273948Y-4826939D01*
X1487656Y-5342876D01*
X1797912Y-5807207D01*
X2192793Y-6202088D01*
X2657124Y-6512344D01*
X3173061Y-6726052D01*
X3720777Y-6835000D01*
X4279223Y-6835000D01*
X4826939Y-6726052D01*
X5342876Y-6512344D01*
X5807207Y-6202088D01*
X6202088Y-5807207D01*
X6512344Y-5342876D01*
X6726052Y-4826939D01*
X6835000Y-4279223D01*
X6835000Y-3720777D01*
X153665000Y-3720777D01*
X153665000Y-4279223D01*
X153773948Y-4826939D01*
X153987656Y-5342876D01*
X154297912Y-5807207D01*
X154692793Y-6202088D01*
X155157124Y-6512344D01*
X155673061Y-6726052D01*
X156220777Y-6835000D01*
X156779223Y-6835000D01*
X157326939Y-6726052D01*
X157842876Y-6512344D01*
X158307207Y-6202088D01*
X158702088Y-5807207D01*
X159012344Y-5342876D01*
X159226052Y-4826939D01*
X159335000Y-4279223D01*
X159335000Y-3720777D01*
X306165000Y-3720777D01*
X306165000Y-4279223D01*
X306273948Y-4826939D01*
X306487656Y-5342876D01*
X306797912Y-5807207D01*
X307192793Y-6202088D01*
X307657124Y-6512344D01*
X308173061Y-6726052D01*
X308720777Y-6835000D01*
X309279223Y-6835000D01*
X309826939Y-6726052D01*
X310342876Y-6512344D01*
X310807207Y-6202088D01*
X311202088Y-5807207D01*
X311512344Y-5342876D01*
X311726052Y-4826939D01*
X311835000Y-4279223D01*
X311835000Y-3720777D01*
X311726052Y-3173061D01*
X311512344Y-2657124D01*
X311202088Y-2192793D01*
X310807207Y-1797912D01*
X310342876Y-1487656D01*
X309826939Y-1273948D01*
X309279223Y-1165000D01*
X308720777Y-1165000D01*
X308173061Y-1273948D01*
X307657124Y-1487656D01*
X307192793Y-1797912D01*
X306797912Y-2192793D01*
X306487656Y-2657124D01*
X306273948Y-3173061D01*
X306165000Y-3720777D01*
X159335000Y-3720777D01*
X159226052Y-3173061D01*
X159012344Y-2657124D01*
X158702088Y-2192793D01*
X158307207Y-1797912D01*
X157842876Y-1487656D01*
X157326939Y-1273948D01*
X156779223Y-1165000D01*
X156220777Y-1165000D01*
X155673061Y-1273948D01*
X155157124Y-1487656D01*
X154692793Y-1797912D01*
X154297912Y-2192793D01*
X153987656Y-2657124D01*
X153773948Y-3173061D01*
X153665000Y-3720777D01*
X6835000Y-3720777D01*
X6726052Y-3173061D01*
X6512344Y-2657124D01*
X6202088Y-2192793D01*
X5807207Y-1797912D01*
X5342876Y-1487656D01*
X4826939Y-1273948D01*
X4279223Y-1165000D01*
X3720777Y-1165000D01*
X3173061Y-1273948D01*
X2657124Y-1487656D01*
X2192793Y-1797912D01*
X1797912Y-2192793D01*
X1487656Y-2657124D01*
X1273948Y-3173061D01*
X1165000Y-3720777D01*
X735000Y-3720777D01*
X735000Y-2035947D01*
X762549Y-1754979D01*
X833708Y-1519288D01*
X949291Y-1301911D01*
X1104895Y-1111121D01*
X1294593Y-954189D01*
X1511157Y-837094D01*
X1746344Y-764291D01*
X2025028Y-735000D01*
X310964053Y-735000D01*
X311245021Y-762549D01*
G37*
%TD.AperFunction*%
M02*
