%TF.GenerationSoftware,KiCad,Pcbnew,(5.1.10-6-gecec324121)-1*%
%TF.CreationDate,2021-07-06T17:39:12+03:00*%
%TF.ProjectId,bottomplate,626f7474-6f6d-4706-9c61-74652e6b6963,rev?*%
%TF.SameCoordinates,Original*%
%TF.FileFunction,Copper,L1,Top*%
%TF.FilePolarity,Positive*%
%FSLAX46Y46*%
G04 Gerber Fmt 4.6, Leading zero omitted, Abs format (unit mm)*
G04 Created by KiCad (PCBNEW (5.1.10-6-gecec324121)-1) date 2021-07-06 17:39:12*
%MOMM*%
%LPD*%
G01*
G04 APERTURE LIST*
%TA.AperFunction,ComponentPad*%
%ADD10C,4.400000*%
%TD*%
%TA.AperFunction,ViaPad*%
%ADD11C,0.800000*%
%TD*%
%TA.AperFunction,NonConductor*%
%ADD12C,0.254000*%
%TD*%
%TA.AperFunction,NonConductor*%
%ADD13C,0.100000*%
%TD*%
G04 APERTURE END LIST*
D10*
%TO.P,REF\u002A\u002A,1*%
%TO.N,N/C*%
X307000000Y-123000000D03*
%TD*%
%TO.P,REF\u002A\u002A,1*%
%TO.N,N/C*%
X156500000Y-123000000D03*
%TD*%
%TO.P,REF\u002A\u002A,1*%
%TO.N,N/C*%
X6000000Y-123000000D03*
%TD*%
%TO.P,REF\u002A\u002A,1*%
%TO.N,N/C*%
X307000000Y-67000000D03*
%TD*%
%TO.P,REF\u002A\u002A,1*%
%TO.N,N/C*%
X156500000Y-67000000D03*
%TD*%
%TO.P,REF\u002A\u002A,1*%
%TO.N,N/C*%
X6000000Y-67000000D03*
%TD*%
%TO.P,REF\u002A\u002A,1*%
%TO.N,N/C*%
X309000000Y-21000000D03*
%TD*%
%TO.P,REF\u002A\u002A,1*%
%TO.N,N/C*%
X156500000Y-21000000D03*
%TD*%
%TO.P,REF\u002A\u002A,1*%
%TO.N,N/C*%
X4000000Y-21000000D03*
%TD*%
%TO.P,REF\u002A\u002A,1*%
%TO.N,N/C*%
X309000000Y-4000000D03*
%TD*%
%TO.P,REF\u002A\u002A,1*%
%TO.N,N/C*%
X156500000Y-4000000D03*
%TD*%
%TO.P,REF\u002A\u002A,1*%
%TO.N,N/C*%
X4000000Y-4000000D03*
%TD*%
D11*
%TO.N,*%
X9280000Y-67070000D03*
%TD*%
D12*
X311245021Y-762549D02*
X311480712Y-833708D01*
X311698089Y-949291D01*
X311888879Y-1104895D01*
X312045811Y-1294593D01*
X312162906Y-1511157D01*
X312235709Y-1746344D01*
X312265001Y-2025037D01*
X312265000Y-126964053D01*
X312237451Y-127245021D01*
X312166291Y-127480712D01*
X312050711Y-127698088D01*
X311895104Y-127888879D01*
X311705408Y-128045811D01*
X311488843Y-128162906D01*
X311253656Y-128235709D01*
X310974972Y-128265000D01*
X2035947Y-128265000D01*
X1754979Y-128237451D01*
X1519288Y-128166291D01*
X1301912Y-128050711D01*
X1111121Y-127895104D01*
X954189Y-127705408D01*
X837094Y-127488843D01*
X764291Y-127253656D01*
X735000Y-126974972D01*
X735000Y-122720777D01*
X3165000Y-122720777D01*
X3165000Y-123279223D01*
X3273948Y-123826939D01*
X3487656Y-124342876D01*
X3797912Y-124807207D01*
X4192793Y-125202088D01*
X4657124Y-125512344D01*
X5173061Y-125726052D01*
X5720777Y-125835000D01*
X6279223Y-125835000D01*
X6826939Y-125726052D01*
X7342876Y-125512344D01*
X7807207Y-125202088D01*
X8202088Y-124807207D01*
X8512344Y-124342876D01*
X8726052Y-123826939D01*
X8835000Y-123279223D01*
X8835000Y-122720777D01*
X153665000Y-122720777D01*
X153665000Y-123279223D01*
X153773948Y-123826939D01*
X153987656Y-124342876D01*
X154297912Y-124807207D01*
X154692793Y-125202088D01*
X155157124Y-125512344D01*
X155673061Y-125726052D01*
X156220777Y-125835000D01*
X156779223Y-125835000D01*
X157326939Y-125726052D01*
X157842876Y-125512344D01*
X158307207Y-125202088D01*
X158702088Y-124807207D01*
X159012344Y-124342876D01*
X159226052Y-123826939D01*
X159335000Y-123279223D01*
X159335000Y-122720777D01*
X304165000Y-122720777D01*
X304165000Y-123279223D01*
X304273948Y-123826939D01*
X304487656Y-124342876D01*
X304797912Y-124807207D01*
X305192793Y-125202088D01*
X305657124Y-125512344D01*
X306173061Y-125726052D01*
X306720777Y-125835000D01*
X307279223Y-125835000D01*
X307826939Y-125726052D01*
X308342876Y-125512344D01*
X308807207Y-125202088D01*
X309202088Y-124807207D01*
X309512344Y-124342876D01*
X309726052Y-123826939D01*
X309835000Y-123279223D01*
X309835000Y-122720777D01*
X309726052Y-122173061D01*
X309512344Y-121657124D01*
X309202088Y-121192793D01*
X308807207Y-120797912D01*
X308342876Y-120487656D01*
X307826939Y-120273948D01*
X307279223Y-120165000D01*
X306720777Y-120165000D01*
X306173061Y-120273948D01*
X305657124Y-120487656D01*
X305192793Y-120797912D01*
X304797912Y-121192793D01*
X304487656Y-121657124D01*
X304273948Y-122173061D01*
X304165000Y-122720777D01*
X159335000Y-122720777D01*
X159226052Y-122173061D01*
X159012344Y-121657124D01*
X158702088Y-121192793D01*
X158307207Y-120797912D01*
X157842876Y-120487656D01*
X157326939Y-120273948D01*
X156779223Y-120165000D01*
X156220777Y-120165000D01*
X155673061Y-120273948D01*
X155157124Y-120487656D01*
X154692793Y-120797912D01*
X154297912Y-121192793D01*
X153987656Y-121657124D01*
X153773948Y-122173061D01*
X153665000Y-122720777D01*
X8835000Y-122720777D01*
X8726052Y-122173061D01*
X8512344Y-121657124D01*
X8202088Y-121192793D01*
X7807207Y-120797912D01*
X7342876Y-120487656D01*
X6826939Y-120273948D01*
X6279223Y-120165000D01*
X5720777Y-120165000D01*
X5173061Y-120273948D01*
X4657124Y-120487656D01*
X4192793Y-120797912D01*
X3797912Y-121192793D01*
X3487656Y-121657124D01*
X3273948Y-122173061D01*
X3165000Y-122720777D01*
X735000Y-122720777D01*
X735000Y-66720777D01*
X3165000Y-66720777D01*
X3165000Y-67279223D01*
X3273948Y-67826939D01*
X3487656Y-68342876D01*
X3797912Y-68807207D01*
X4192793Y-69202088D01*
X4657124Y-69512344D01*
X5173061Y-69726052D01*
X5720777Y-69835000D01*
X6279223Y-69835000D01*
X6826939Y-69726052D01*
X7342876Y-69512344D01*
X7807207Y-69202088D01*
X8202088Y-68807207D01*
X8512344Y-68342876D01*
X8687865Y-67919132D01*
X8789744Y-67987205D01*
X8978102Y-68065226D01*
X9178061Y-68105000D01*
X9381939Y-68105000D01*
X9581898Y-68065226D01*
X9770256Y-67987205D01*
X9939774Y-67873937D01*
X10083937Y-67729774D01*
X10197205Y-67560256D01*
X10275226Y-67371898D01*
X10315000Y-67171939D01*
X10315000Y-66968061D01*
X10275226Y-66768102D01*
X10255624Y-66720777D01*
X153665000Y-66720777D01*
X153665000Y-67279223D01*
X153773948Y-67826939D01*
X153987656Y-68342876D01*
X154297912Y-68807207D01*
X154692793Y-69202088D01*
X155157124Y-69512344D01*
X155673061Y-69726052D01*
X156220777Y-69835000D01*
X156779223Y-69835000D01*
X157326939Y-69726052D01*
X157842876Y-69512344D01*
X158307207Y-69202088D01*
X158702088Y-68807207D01*
X159012344Y-68342876D01*
X159226052Y-67826939D01*
X159335000Y-67279223D01*
X159335000Y-66720777D01*
X304165000Y-66720777D01*
X304165000Y-67279223D01*
X304273948Y-67826939D01*
X304487656Y-68342876D01*
X304797912Y-68807207D01*
X305192793Y-69202088D01*
X305657124Y-69512344D01*
X306173061Y-69726052D01*
X306720777Y-69835000D01*
X307279223Y-69835000D01*
X307826939Y-69726052D01*
X308342876Y-69512344D01*
X308807207Y-69202088D01*
X309202088Y-68807207D01*
X309512344Y-68342876D01*
X309726052Y-67826939D01*
X309835000Y-67279223D01*
X309835000Y-66720777D01*
X309726052Y-66173061D01*
X309512344Y-65657124D01*
X309202088Y-65192793D01*
X308807207Y-64797912D01*
X308342876Y-64487656D01*
X307826939Y-64273948D01*
X307279223Y-64165000D01*
X306720777Y-64165000D01*
X306173061Y-64273948D01*
X305657124Y-64487656D01*
X305192793Y-64797912D01*
X304797912Y-65192793D01*
X304487656Y-65657124D01*
X304273948Y-66173061D01*
X304165000Y-66720777D01*
X159335000Y-66720777D01*
X159226052Y-66173061D01*
X159012344Y-65657124D01*
X158702088Y-65192793D01*
X158307207Y-64797912D01*
X157842876Y-64487656D01*
X157326939Y-64273948D01*
X156779223Y-64165000D01*
X156220777Y-64165000D01*
X155673061Y-64273948D01*
X155157124Y-64487656D01*
X154692793Y-64797912D01*
X154297912Y-65192793D01*
X153987656Y-65657124D01*
X153773948Y-66173061D01*
X153665000Y-66720777D01*
X10255624Y-66720777D01*
X10197205Y-66579744D01*
X10083937Y-66410226D01*
X9939774Y-66266063D01*
X9770256Y-66152795D01*
X9581898Y-66074774D01*
X9381939Y-66035000D01*
X9178061Y-66035000D01*
X8978102Y-66074774D01*
X8789744Y-66152795D01*
X8729966Y-66192737D01*
X8726052Y-66173061D01*
X8512344Y-65657124D01*
X8202088Y-65192793D01*
X7807207Y-64797912D01*
X7342876Y-64487656D01*
X6826939Y-64273948D01*
X6279223Y-64165000D01*
X5720777Y-64165000D01*
X5173061Y-64273948D01*
X4657124Y-64487656D01*
X4192793Y-64797912D01*
X3797912Y-65192793D01*
X3487656Y-65657124D01*
X3273948Y-66173061D01*
X3165000Y-66720777D01*
X735000Y-66720777D01*
X735000Y-20720777D01*
X1165000Y-20720777D01*
X1165000Y-21279223D01*
X1273948Y-21826939D01*
X1487656Y-22342876D01*
X1797912Y-22807207D01*
X2192793Y-23202088D01*
X2657124Y-23512344D01*
X3173061Y-23726052D01*
X3720777Y-23835000D01*
X4279223Y-23835000D01*
X4826939Y-23726052D01*
X5342876Y-23512344D01*
X5807207Y-23202088D01*
X6202088Y-22807207D01*
X6512344Y-22342876D01*
X6726052Y-21826939D01*
X6835000Y-21279223D01*
X6835000Y-20720777D01*
X153665000Y-20720777D01*
X153665000Y-21279223D01*
X153773948Y-21826939D01*
X153987656Y-22342876D01*
X154297912Y-22807207D01*
X154692793Y-23202088D01*
X155157124Y-23512344D01*
X155673061Y-23726052D01*
X156220777Y-23835000D01*
X156779223Y-23835000D01*
X157326939Y-23726052D01*
X157842876Y-23512344D01*
X158307207Y-23202088D01*
X158702088Y-22807207D01*
X159012344Y-22342876D01*
X159226052Y-21826939D01*
X159335000Y-21279223D01*
X159335000Y-20720777D01*
X306165000Y-20720777D01*
X306165000Y-21279223D01*
X306273948Y-21826939D01*
X306487656Y-22342876D01*
X306797912Y-22807207D01*
X307192793Y-23202088D01*
X307657124Y-23512344D01*
X308173061Y-23726052D01*
X308720777Y-23835000D01*
X309279223Y-23835000D01*
X309826939Y-23726052D01*
X310342876Y-23512344D01*
X310807207Y-23202088D01*
X311202088Y-22807207D01*
X311512344Y-22342876D01*
X311726052Y-21826939D01*
X311835000Y-21279223D01*
X311835000Y-20720777D01*
X311726052Y-20173061D01*
X311512344Y-19657124D01*
X311202088Y-19192793D01*
X310807207Y-18797912D01*
X310342876Y-18487656D01*
X309826939Y-18273948D01*
X309279223Y-18165000D01*
X308720777Y-18165000D01*
X308173061Y-18273948D01*
X307657124Y-18487656D01*
X307192793Y-18797912D01*
X306797912Y-19192793D01*
X306487656Y-19657124D01*
X306273948Y-20173061D01*
X306165000Y-20720777D01*
X159335000Y-20720777D01*
X159226052Y-20173061D01*
X159012344Y-19657124D01*
X158702088Y-19192793D01*
X158307207Y-18797912D01*
X157842876Y-18487656D01*
X157326939Y-18273948D01*
X156779223Y-18165000D01*
X156220777Y-18165000D01*
X155673061Y-18273948D01*
X155157124Y-18487656D01*
X154692793Y-18797912D01*
X154297912Y-19192793D01*
X153987656Y-19657124D01*
X153773948Y-20173061D01*
X153665000Y-20720777D01*
X6835000Y-20720777D01*
X6726052Y-20173061D01*
X6512344Y-19657124D01*
X6202088Y-19192793D01*
X5807207Y-18797912D01*
X5342876Y-18487656D01*
X4826939Y-18273948D01*
X4279223Y-18165000D01*
X3720777Y-18165000D01*
X3173061Y-18273948D01*
X2657124Y-18487656D01*
X2192793Y-18797912D01*
X1797912Y-19192793D01*
X1487656Y-19657124D01*
X1273948Y-20173061D01*
X1165000Y-20720777D01*
X735000Y-20720777D01*
X735000Y-3720777D01*
X1165000Y-3720777D01*
X1165000Y-4279223D01*
X1273948Y-4826939D01*
X1487656Y-5342876D01*
X1797912Y-5807207D01*
X2192793Y-6202088D01*
X2657124Y-6512344D01*
X3173061Y-6726052D01*
X3720777Y-6835000D01*
X4279223Y-6835000D01*
X4826939Y-6726052D01*
X5342876Y-6512344D01*
X5807207Y-6202088D01*
X6202088Y-5807207D01*
X6512344Y-5342876D01*
X6726052Y-4826939D01*
X6835000Y-4279223D01*
X6835000Y-3720777D01*
X153665000Y-3720777D01*
X153665000Y-4279223D01*
X153773948Y-4826939D01*
X153987656Y-5342876D01*
X154297912Y-5807207D01*
X154692793Y-6202088D01*
X155157124Y-6512344D01*
X155673061Y-6726052D01*
X156220777Y-6835000D01*
X156779223Y-6835000D01*
X157326939Y-6726052D01*
X157842876Y-6512344D01*
X158307207Y-6202088D01*
X158702088Y-5807207D01*
X159012344Y-5342876D01*
X159226052Y-4826939D01*
X159335000Y-4279223D01*
X159335000Y-3720777D01*
X306165000Y-3720777D01*
X306165000Y-4279223D01*
X306273948Y-4826939D01*
X306487656Y-5342876D01*
X306797912Y-5807207D01*
X307192793Y-6202088D01*
X307657124Y-6512344D01*
X308173061Y-6726052D01*
X308720777Y-6835000D01*
X309279223Y-6835000D01*
X309826939Y-6726052D01*
X310342876Y-6512344D01*
X310807207Y-6202088D01*
X311202088Y-5807207D01*
X311512344Y-5342876D01*
X311726052Y-4826939D01*
X311835000Y-4279223D01*
X311835000Y-3720777D01*
X311726052Y-3173061D01*
X311512344Y-2657124D01*
X311202088Y-2192793D01*
X310807207Y-1797912D01*
X310342876Y-1487656D01*
X309826939Y-1273948D01*
X309279223Y-1165000D01*
X308720777Y-1165000D01*
X308173061Y-1273948D01*
X307657124Y-1487656D01*
X307192793Y-1797912D01*
X306797912Y-2192793D01*
X306487656Y-2657124D01*
X306273948Y-3173061D01*
X306165000Y-3720777D01*
X159335000Y-3720777D01*
X159226052Y-3173061D01*
X159012344Y-2657124D01*
X158702088Y-2192793D01*
X158307207Y-1797912D01*
X157842876Y-1487656D01*
X157326939Y-1273948D01*
X156779223Y-1165000D01*
X156220777Y-1165000D01*
X155673061Y-1273948D01*
X155157124Y-1487656D01*
X154692793Y-1797912D01*
X154297912Y-2192793D01*
X153987656Y-2657124D01*
X153773948Y-3173061D01*
X153665000Y-3720777D01*
X6835000Y-3720777D01*
X6726052Y-3173061D01*
X6512344Y-2657124D01*
X6202088Y-2192793D01*
X5807207Y-1797912D01*
X5342876Y-1487656D01*
X4826939Y-1273948D01*
X4279223Y-1165000D01*
X3720777Y-1165000D01*
X3173061Y-1273948D01*
X2657124Y-1487656D01*
X2192793Y-1797912D01*
X1797912Y-2192793D01*
X1487656Y-2657124D01*
X1273948Y-3173061D01*
X1165000Y-3720777D01*
X735000Y-3720777D01*
X735000Y-2035947D01*
X762549Y-1754979D01*
X833708Y-1519288D01*
X949291Y-1301911D01*
X1104895Y-1111121D01*
X1294593Y-954189D01*
X1511157Y-837094D01*
X1746344Y-764291D01*
X2025028Y-735000D01*
X310964053Y-735000D01*
X311245021Y-762549D01*
%TA.AperFunction,NonConductor*%
D13*
G36*
X311245021Y-762549D02*
G01*
X311480712Y-833708D01*
X311698089Y-949291D01*
X311888879Y-1104895D01*
X312045811Y-1294593D01*
X312162906Y-1511157D01*
X312235709Y-1746344D01*
X312265001Y-2025037D01*
X312265000Y-126964053D01*
X312237451Y-127245021D01*
X312166291Y-127480712D01*
X312050711Y-127698088D01*
X311895104Y-127888879D01*
X311705408Y-128045811D01*
X311488843Y-128162906D01*
X311253656Y-128235709D01*
X310974972Y-128265000D01*
X2035947Y-128265000D01*
X1754979Y-128237451D01*
X1519288Y-128166291D01*
X1301912Y-128050711D01*
X1111121Y-127895104D01*
X954189Y-127705408D01*
X837094Y-127488843D01*
X764291Y-127253656D01*
X735000Y-126974972D01*
X735000Y-122720777D01*
X3165000Y-122720777D01*
X3165000Y-123279223D01*
X3273948Y-123826939D01*
X3487656Y-124342876D01*
X3797912Y-124807207D01*
X4192793Y-125202088D01*
X4657124Y-125512344D01*
X5173061Y-125726052D01*
X5720777Y-125835000D01*
X6279223Y-125835000D01*
X6826939Y-125726052D01*
X7342876Y-125512344D01*
X7807207Y-125202088D01*
X8202088Y-124807207D01*
X8512344Y-124342876D01*
X8726052Y-123826939D01*
X8835000Y-123279223D01*
X8835000Y-122720777D01*
X153665000Y-122720777D01*
X153665000Y-123279223D01*
X153773948Y-123826939D01*
X153987656Y-124342876D01*
X154297912Y-124807207D01*
X154692793Y-125202088D01*
X155157124Y-125512344D01*
X155673061Y-125726052D01*
X156220777Y-125835000D01*
X156779223Y-125835000D01*
X157326939Y-125726052D01*
X157842876Y-125512344D01*
X158307207Y-125202088D01*
X158702088Y-124807207D01*
X159012344Y-124342876D01*
X159226052Y-123826939D01*
X159335000Y-123279223D01*
X159335000Y-122720777D01*
X304165000Y-122720777D01*
X304165000Y-123279223D01*
X304273948Y-123826939D01*
X304487656Y-124342876D01*
X304797912Y-124807207D01*
X305192793Y-125202088D01*
X305657124Y-125512344D01*
X306173061Y-125726052D01*
X306720777Y-125835000D01*
X307279223Y-125835000D01*
X307826939Y-125726052D01*
X308342876Y-125512344D01*
X308807207Y-125202088D01*
X309202088Y-124807207D01*
X309512344Y-124342876D01*
X309726052Y-123826939D01*
X309835000Y-123279223D01*
X309835000Y-122720777D01*
X309726052Y-122173061D01*
X309512344Y-121657124D01*
X309202088Y-121192793D01*
X308807207Y-120797912D01*
X308342876Y-120487656D01*
X307826939Y-120273948D01*
X307279223Y-120165000D01*
X306720777Y-120165000D01*
X306173061Y-120273948D01*
X305657124Y-120487656D01*
X305192793Y-120797912D01*
X304797912Y-121192793D01*
X304487656Y-121657124D01*
X304273948Y-122173061D01*
X304165000Y-122720777D01*
X159335000Y-122720777D01*
X159226052Y-122173061D01*
X159012344Y-121657124D01*
X158702088Y-121192793D01*
X158307207Y-120797912D01*
X157842876Y-120487656D01*
X157326939Y-120273948D01*
X156779223Y-120165000D01*
X156220777Y-120165000D01*
X155673061Y-120273948D01*
X155157124Y-120487656D01*
X154692793Y-120797912D01*
X154297912Y-121192793D01*
X153987656Y-121657124D01*
X153773948Y-122173061D01*
X153665000Y-122720777D01*
X8835000Y-122720777D01*
X8726052Y-122173061D01*
X8512344Y-121657124D01*
X8202088Y-121192793D01*
X7807207Y-120797912D01*
X7342876Y-120487656D01*
X6826939Y-120273948D01*
X6279223Y-120165000D01*
X5720777Y-120165000D01*
X5173061Y-120273948D01*
X4657124Y-120487656D01*
X4192793Y-120797912D01*
X3797912Y-121192793D01*
X3487656Y-121657124D01*
X3273948Y-122173061D01*
X3165000Y-122720777D01*
X735000Y-122720777D01*
X735000Y-66720777D01*
X3165000Y-66720777D01*
X3165000Y-67279223D01*
X3273948Y-67826939D01*
X3487656Y-68342876D01*
X3797912Y-68807207D01*
X4192793Y-69202088D01*
X4657124Y-69512344D01*
X5173061Y-69726052D01*
X5720777Y-69835000D01*
X6279223Y-69835000D01*
X6826939Y-69726052D01*
X7342876Y-69512344D01*
X7807207Y-69202088D01*
X8202088Y-68807207D01*
X8512344Y-68342876D01*
X8687865Y-67919132D01*
X8789744Y-67987205D01*
X8978102Y-68065226D01*
X9178061Y-68105000D01*
X9381939Y-68105000D01*
X9581898Y-68065226D01*
X9770256Y-67987205D01*
X9939774Y-67873937D01*
X10083937Y-67729774D01*
X10197205Y-67560256D01*
X10275226Y-67371898D01*
X10315000Y-67171939D01*
X10315000Y-66968061D01*
X10275226Y-66768102D01*
X10255624Y-66720777D01*
X153665000Y-66720777D01*
X153665000Y-67279223D01*
X153773948Y-67826939D01*
X153987656Y-68342876D01*
X154297912Y-68807207D01*
X154692793Y-69202088D01*
X155157124Y-69512344D01*
X155673061Y-69726052D01*
X156220777Y-69835000D01*
X156779223Y-69835000D01*
X157326939Y-69726052D01*
X157842876Y-69512344D01*
X158307207Y-69202088D01*
X158702088Y-68807207D01*
X159012344Y-68342876D01*
X159226052Y-67826939D01*
X159335000Y-67279223D01*
X159335000Y-66720777D01*
X304165000Y-66720777D01*
X304165000Y-67279223D01*
X304273948Y-67826939D01*
X304487656Y-68342876D01*
X304797912Y-68807207D01*
X305192793Y-69202088D01*
X305657124Y-69512344D01*
X306173061Y-69726052D01*
X306720777Y-69835000D01*
X307279223Y-69835000D01*
X307826939Y-69726052D01*
X308342876Y-69512344D01*
X308807207Y-69202088D01*
X309202088Y-68807207D01*
X309512344Y-68342876D01*
X309726052Y-67826939D01*
X309835000Y-67279223D01*
X309835000Y-66720777D01*
X309726052Y-66173061D01*
X309512344Y-65657124D01*
X309202088Y-65192793D01*
X308807207Y-64797912D01*
X308342876Y-64487656D01*
X307826939Y-64273948D01*
X307279223Y-64165000D01*
X306720777Y-64165000D01*
X306173061Y-64273948D01*
X305657124Y-64487656D01*
X305192793Y-64797912D01*
X304797912Y-65192793D01*
X304487656Y-65657124D01*
X304273948Y-66173061D01*
X304165000Y-66720777D01*
X159335000Y-66720777D01*
X159226052Y-66173061D01*
X159012344Y-65657124D01*
X158702088Y-65192793D01*
X158307207Y-64797912D01*
X157842876Y-64487656D01*
X157326939Y-64273948D01*
X156779223Y-64165000D01*
X156220777Y-64165000D01*
X155673061Y-64273948D01*
X155157124Y-64487656D01*
X154692793Y-64797912D01*
X154297912Y-65192793D01*
X153987656Y-65657124D01*
X153773948Y-66173061D01*
X153665000Y-66720777D01*
X10255624Y-66720777D01*
X10197205Y-66579744D01*
X10083937Y-66410226D01*
X9939774Y-66266063D01*
X9770256Y-66152795D01*
X9581898Y-66074774D01*
X9381939Y-66035000D01*
X9178061Y-66035000D01*
X8978102Y-66074774D01*
X8789744Y-66152795D01*
X8729966Y-66192737D01*
X8726052Y-66173061D01*
X8512344Y-65657124D01*
X8202088Y-65192793D01*
X7807207Y-64797912D01*
X7342876Y-64487656D01*
X6826939Y-64273948D01*
X6279223Y-64165000D01*
X5720777Y-64165000D01*
X5173061Y-64273948D01*
X4657124Y-64487656D01*
X4192793Y-64797912D01*
X3797912Y-65192793D01*
X3487656Y-65657124D01*
X3273948Y-66173061D01*
X3165000Y-66720777D01*
X735000Y-66720777D01*
X735000Y-20720777D01*
X1165000Y-20720777D01*
X1165000Y-21279223D01*
X1273948Y-21826939D01*
X1487656Y-22342876D01*
X1797912Y-22807207D01*
X2192793Y-23202088D01*
X2657124Y-23512344D01*
X3173061Y-23726052D01*
X3720777Y-23835000D01*
X4279223Y-23835000D01*
X4826939Y-23726052D01*
X5342876Y-23512344D01*
X5807207Y-23202088D01*
X6202088Y-22807207D01*
X6512344Y-22342876D01*
X6726052Y-21826939D01*
X6835000Y-21279223D01*
X6835000Y-20720777D01*
X153665000Y-20720777D01*
X153665000Y-21279223D01*
X153773948Y-21826939D01*
X153987656Y-22342876D01*
X154297912Y-22807207D01*
X154692793Y-23202088D01*
X155157124Y-23512344D01*
X155673061Y-23726052D01*
X156220777Y-23835000D01*
X156779223Y-23835000D01*
X157326939Y-23726052D01*
X157842876Y-23512344D01*
X158307207Y-23202088D01*
X158702088Y-22807207D01*
X159012344Y-22342876D01*
X159226052Y-21826939D01*
X159335000Y-21279223D01*
X159335000Y-20720777D01*
X306165000Y-20720777D01*
X306165000Y-21279223D01*
X306273948Y-21826939D01*
X306487656Y-22342876D01*
X306797912Y-22807207D01*
X307192793Y-23202088D01*
X307657124Y-23512344D01*
X308173061Y-23726052D01*
X308720777Y-23835000D01*
X309279223Y-23835000D01*
X309826939Y-23726052D01*
X310342876Y-23512344D01*
X310807207Y-23202088D01*
X311202088Y-22807207D01*
X311512344Y-22342876D01*
X311726052Y-21826939D01*
X311835000Y-21279223D01*
X311835000Y-20720777D01*
X311726052Y-20173061D01*
X311512344Y-19657124D01*
X311202088Y-19192793D01*
X310807207Y-18797912D01*
X310342876Y-18487656D01*
X309826939Y-18273948D01*
X309279223Y-18165000D01*
X308720777Y-18165000D01*
X308173061Y-18273948D01*
X307657124Y-18487656D01*
X307192793Y-18797912D01*
X306797912Y-19192793D01*
X306487656Y-19657124D01*
X306273948Y-20173061D01*
X306165000Y-20720777D01*
X159335000Y-20720777D01*
X159226052Y-20173061D01*
X159012344Y-19657124D01*
X158702088Y-19192793D01*
X158307207Y-18797912D01*
X157842876Y-18487656D01*
X157326939Y-18273948D01*
X156779223Y-18165000D01*
X156220777Y-18165000D01*
X155673061Y-18273948D01*
X155157124Y-18487656D01*
X154692793Y-18797912D01*
X154297912Y-19192793D01*
X153987656Y-19657124D01*
X153773948Y-20173061D01*
X153665000Y-20720777D01*
X6835000Y-20720777D01*
X6726052Y-20173061D01*
X6512344Y-19657124D01*
X6202088Y-19192793D01*
X5807207Y-18797912D01*
X5342876Y-18487656D01*
X4826939Y-18273948D01*
X4279223Y-18165000D01*
X3720777Y-18165000D01*
X3173061Y-18273948D01*
X2657124Y-18487656D01*
X2192793Y-18797912D01*
X1797912Y-19192793D01*
X1487656Y-19657124D01*
X1273948Y-20173061D01*
X1165000Y-20720777D01*
X735000Y-20720777D01*
X735000Y-3720777D01*
X1165000Y-3720777D01*
X1165000Y-4279223D01*
X1273948Y-4826939D01*
X1487656Y-5342876D01*
X1797912Y-5807207D01*
X2192793Y-6202088D01*
X2657124Y-6512344D01*
X3173061Y-6726052D01*
X3720777Y-6835000D01*
X4279223Y-6835000D01*
X4826939Y-6726052D01*
X5342876Y-6512344D01*
X5807207Y-6202088D01*
X6202088Y-5807207D01*
X6512344Y-5342876D01*
X6726052Y-4826939D01*
X6835000Y-4279223D01*
X6835000Y-3720777D01*
X153665000Y-3720777D01*
X153665000Y-4279223D01*
X153773948Y-4826939D01*
X153987656Y-5342876D01*
X154297912Y-5807207D01*
X154692793Y-6202088D01*
X155157124Y-6512344D01*
X155673061Y-6726052D01*
X156220777Y-6835000D01*
X156779223Y-6835000D01*
X157326939Y-6726052D01*
X157842876Y-6512344D01*
X158307207Y-6202088D01*
X158702088Y-5807207D01*
X159012344Y-5342876D01*
X159226052Y-4826939D01*
X159335000Y-4279223D01*
X159335000Y-3720777D01*
X306165000Y-3720777D01*
X306165000Y-4279223D01*
X306273948Y-4826939D01*
X306487656Y-5342876D01*
X306797912Y-5807207D01*
X307192793Y-6202088D01*
X307657124Y-6512344D01*
X308173061Y-6726052D01*
X308720777Y-6835000D01*
X309279223Y-6835000D01*
X309826939Y-6726052D01*
X310342876Y-6512344D01*
X310807207Y-6202088D01*
X311202088Y-5807207D01*
X311512344Y-5342876D01*
X311726052Y-4826939D01*
X311835000Y-4279223D01*
X311835000Y-3720777D01*
X311726052Y-3173061D01*
X311512344Y-2657124D01*
X311202088Y-2192793D01*
X310807207Y-1797912D01*
X310342876Y-1487656D01*
X309826939Y-1273948D01*
X309279223Y-1165000D01*
X308720777Y-1165000D01*
X308173061Y-1273948D01*
X307657124Y-1487656D01*
X307192793Y-1797912D01*
X306797912Y-2192793D01*
X306487656Y-2657124D01*
X306273948Y-3173061D01*
X306165000Y-3720777D01*
X159335000Y-3720777D01*
X159226052Y-3173061D01*
X159012344Y-2657124D01*
X158702088Y-2192793D01*
X158307207Y-1797912D01*
X157842876Y-1487656D01*
X157326939Y-1273948D01*
X156779223Y-1165000D01*
X156220777Y-1165000D01*
X155673061Y-1273948D01*
X155157124Y-1487656D01*
X154692793Y-1797912D01*
X154297912Y-2192793D01*
X153987656Y-2657124D01*
X153773948Y-3173061D01*
X153665000Y-3720777D01*
X6835000Y-3720777D01*
X6726052Y-3173061D01*
X6512344Y-2657124D01*
X6202088Y-2192793D01*
X5807207Y-1797912D01*
X5342876Y-1487656D01*
X4826939Y-1273948D01*
X4279223Y-1165000D01*
X3720777Y-1165000D01*
X3173061Y-1273948D01*
X2657124Y-1487656D01*
X2192793Y-1797912D01*
X1797912Y-2192793D01*
X1487656Y-2657124D01*
X1273948Y-3173061D01*
X1165000Y-3720777D01*
X735000Y-3720777D01*
X735000Y-2035947D01*
X762549Y-1754979D01*
X833708Y-1519288D01*
X949291Y-1301911D01*
X1104895Y-1111121D01*
X1294593Y-954189D01*
X1511157Y-837094D01*
X1746344Y-764291D01*
X2025028Y-735000D01*
X310964053Y-735000D01*
X311245021Y-762549D01*
G37*
%TD.AperFunction*%
M02*
